<?xml version="1.0" encoding="UTF-8"?>
<svg id="case" xmlns="http://www.w3.org/2000/svg" viewBox="0 0 433.76 602.33">
  <defs>
    <style>
      .eyad-1 {
        fill: none;
        stroke: #000;
        stroke-miterlimit: 10;
        stroke-width: 3px;
      }
    </style>
  </defs>
  <g id="case" data-name="case">
    <g>
      <path class="" d="M1.55,412.91c1.1-18.81.34-37.65.97-56.46.64-18.99.56-37.99-.06-56.95-.28-8.48-.4-16.99-.82-25.47-.04-.9-.21-1.85,0-2.7,1.7-6.8.43-13.7.74-20.55.49-11.21.94-22.43.89-33.65-.03-6.46-.36-12.93-.38-19.41-.06-15.73.13-31.41,2.65-47.04,1.6-9.96,3.03-20.02,2.57-30.23-.19-4.3.81-8.62.04-12.98-.43-2.45.14-5.07-1.87-7.16-.76-.79-.36-2.08-.41-3.16-.18-4.53-.12-9.08-.32-13.58-.12-2.72.55-5.1,2.24-6.3,3.13-2.23,4.49-5.58,6.61-8.41,2.43-3.26,5.18-5.51,9.11-7.19,9.09-3.89,18.06-8.13,25.92-14.48,7.08-5.71,15.6-9.04,24.1-12.1,3.05-1.1,6.27-1.79,8.82-3.85,10.56-8.55,23.41-12.69,35.36-18.57,3.41-1.68,6.98-3.04,10.33-4.84,5.66-3.04,12.19-3.18,18.02-5.77,3.25-1.44,6.84.13,9.71,2.19,3.55,2.54,7.39,4.47,11.32,6.29,7.44,3.44,13.8,8.63,20.74,12.89,10,6.14,20.07,12.17,30.3,17.93,11.18,6.29,23.2,10.95,34.08,17.87,3.61,2.29,7.71,3.96,11.36,6.25,8.83,5.54,17.89,10.71,26.32,16.91,5.67,4.18,11.71,7.88,17.69,11.61,6.57,4.1,13.2,8.12,19.92,11.96,10.9,6.23,21.32,13.22,31.77,20.14,11,7.29,22.01,14.58,32.45,22.66,2.7,2.09,4.9,4.8,8.19,6.15,1.23.5,1.85,1.75,2.25,2.97,2.89,8.89,8.86,16.12,13.26,24.18,4.6,8.42,8.91,16.93,12.45,25.82.8,2.02,2.33,3.46,3.04,5.64,2.3,7.03,1.2,14.01.41,20.97-.33,2.87-.81,5.76-.7,8.6.4,9.97-.68,19.79-1.96,29.66-.77,5.9-.29,11.96-.4,17.94-.13,7.14-.28,14.27.08,21.41.35,6.96.19,13.94.34,20.91.2,9.08-1.27,18.07-1.23,27.15.01,3.45.36,6.85.7,10.23.7,7.09-.38,14.11-.43,21.15-.1,14.25-.02,28.51-.02,42.77,0,4.32-.43,8.61-1.06,12.89-.31,2.12-.13,4.32-.1,6.49.02,1.08.51,2.23.29,3.24-1.33,6.27.73,12.52.19,18.67-.51,5.75-.99,11.5-1.34,17.26-.28,4.68-.46,9.31-1.28,13.99-.67,3.86-2.1,6.86-4.68,9.43-10.34,10.29-22.16,18.35-35.55,24.31-10.04,4.46-20.3,8.49-29.47,14.91-4.35,3.04-10.05,4.08-14.94,6.44-7.84,3.78-16.47,5.46-24.23,9.43-2.9,1.48-5.76,3.02-8.44,4.84-8.39,5.71-18.17,8.62-26.99,13.51-5.06,2.81-9.99,5.71-14.59,9.16-2.39,1.79-4.79,2.39-7.61,1.59-1.04-.29-2.3-1.04-3.1-.71-6.16,2.54-9.19-2.09-12.9-5.31-11.85-10.29-23.63-20.51-37.71-28-6.1-3.25-12.58-6.28-18.12-10.65-2.76-2.18-6.09-3.16-9.07-4.88-13.59-7.85-26.62-16.55-39.75-25.13-13.53-8.84-26.39-18.53-39.19-28.37-5.37-4.13-11.22-7.89-16.64-11.94-7.93-5.92-16.15-11.47-23.75-17.89-10.05-8.49-20.58-16.41-32.39-22.48-5.79-2.97-11.07-6.95-16.88-9.87-4.97-2.5-6.57-6.49-6.79-11.46-.16-3.62-.03-7.25-.03-10.87ZM17.11,71.43c-1.82,2.42-3.66,4.38-5.02,6.77-.83,1.47-1.58,2.94-1.22,4.61.8,3.79.33,7.61.23,11.4-.06,2.11.55,3.24,2.44,4.2,5.15,2.63,10.11,5.6,15.27,8.21,7.45,3.77,14.2,8.49,20.73,13.68,7.32,5.81,13.76,12.68,21.88,17.59,3.37,2.04,6.97,3.92,9.97,6.55,6.88,6.04,14.14,11.61,21.94,16.36,7.55,4.6,14.65,9.89,22.45,14.15,5.03,2.75,10.07,5.69,14.8,8.84,6.84,4.55,14,8.67,20.97,12.86,8.75,5.26,17.29,10.93,26.22,15.93,7.07,3.96,13.52,9.06,20.73,12.73,7.88,4.01,15.48,8.58,23.73,11.88,4.35,1.74,8.28,4.75,12.74,5.98,7.28,2,13.39,6.14,19.93,9.46,2.38,1.21,4.28,3.47,4.55,6.44.72,8.13,2.44,16.18,2.26,24.37-.27,11.93.64,23.81,1.5,35.68.73,10.09-.19,20.16.04,30.24.11,4.87.73,9.84.05,14.61-.96,6.68-.84,13.37-1.09,20.02-.51,13.74-.91,27.48-2.3,41.16-1.25,12.25-2.45,24.5-2.46,36.82-.02,15.8-1.72,31.42-4.42,46.98-1.99,11.48-3.93,23.25-3.92,34.91.01,12.92-.68,26.11-.16,38.97.09,2.28.15,5.17-2.87,6.41-.67.27-1.33,1.3-.7,1.72,2.32,1.56,1.48,4.34,2.7,6.3.7,1.12,1.66,1.81,2.57.84,2.15-2.29,4.98-3.52,7.42-5.31,4.49-3.31,9.61-5.55,14.46-8.07,5.73-2.98,11.74-5.53,17.37-8.76,9.22-5.29,18.47-10.36,28.65-13.76,8.02-2.68,15.98-5.79,23.19-10.45,6.98-4.52,14.25-8.46,21.8-11.99,9.26-4.33,18.55-8.67,26.96-14.72,5.62-4.04,10.52-8.73,15.23-13.68.97-1.02,1.89-2.39,2.14-3.72.96-5.31,3.14-10.3,3.33-15.83.4-11.93,1.53-23.85,1.29-35.8-.24-12.08,1.88-24.14.07-36.24-.48-3.19-.49-6.5.67-9.7.41-1.14.46-2.53.26-3.75-.91-5.74-.34-11.47-.22-17.22.12-5.91.49-11.8.03-17.76-.84-10.99-.75-22.01.12-33.06.42-5.34.97-10.75.77-16.16-.13-3.55-1.19-6.96-.93-10.61.33-4.68-.11-9.4-.1-14.11.02-6.71-.09-13.44.31-20.13.42-6.99,1.48-13.94,2.07-20.92.72-8.44.04-17,2.27-25.33.69-2.6,1.25-5.41.98-8.03-.23-2.28,1.44-5.39-.73-6.69-2.24-1.35-3.93,1.64-5.87,2.71-.31.17-.7.23-1,.42-7.31,4.57-14.64,9.13-21.93,13.75-7.63,4.83-15.14,9.85-22.84,14.57-11.4,6.99-24.11,11.33-35.94,17.48-3.51,1.82-7.47,2.8-11.23,4.12-4.26,1.49-8.52,3.26-12.37,5.39-3.99,2.22-7.82,4.72-12.09,6.47-2.47,1.01-4.61-.45-6.92-.54-1.97-.08-2.84-2.07-3.74-3.65-.81-1.41-1.47-2.91-2.31-4.3-4.89-8.04-7.23-17.28-12.38-25.28-2.38-3.7-4.04-7.5-7.85-10.25-4.05-2.93-7.13-7.19-11.15-10.17-3.3-2.45-7.02-4.4-10.34-6.9-8.05-6.07-16.25-11.95-25.12-16.76-5.68-3.08-11.73-5.49-17.35-8.65-7.8-4.39-15.81-8.41-23.41-13.2-8.26-5.21-16.74-10.21-24.12-16.5-10.32-8.79-21.32-16.43-33.1-22.98-10.86-6.04-21.67-12.26-32.95-17.45-11.36-5.22-21.95-11.65-32.22-18.57-9.87-6.65-19.16-14.16-28.75-21.22-5.52-4.06-11.63-7.4-15.94-13.37ZM394.03,157.36c-1.76-2.41-3.6-3.82-5.42-5.25-6.39-5.03-12.9-9.85-19.82-14.16-9.2-5.73-17.58-12.69-26.97-18.19-4.35-2.54-8.84-5.01-12.86-7.98-7.73-5.73-16.33-10.02-24.48-14.98-10.95-6.66-21.71-13.63-32.33-20.73-12.67-8.47-26.02-15.65-39.46-22.59-10.08-5.2-20.25-10.22-30.12-15.82-11.51-6.53-21.96-14.69-33.23-21.59-4.32-2.64-8.96-4.87-12.37-8.69-2.06-2.3-4.48-2.59-6.9-1.81-5.68,1.86-11.71,2.88-17.07,5.33-6.23,2.85-12.86,4.86-18.75,8.47-4.96,3.04-10.9,3.79-15.81,7.09-8.99,6.04-18.34,11.39-28.71,14.86-8.06,2.7-15.35,7.05-22.41,11.75-4.37,2.92-9.05,5.3-14.06,6.77-2.77.81-5.27,2.16-7.95,3.12-4.13,1.48-4.55,5.33-1.33,8.5,1.03,1.01,2.1,2.01,3.29,2.81,8.66,5.85,16.77,12.44,25.48,18.24,7.35,4.91,14.39,10.25,22,14.83,4.11,2.47,8.65,3.73,12.76,5.98,13.59,7.47,27.64,14.1,40.83,22.29,8.75,5.44,17.68,10.58,25.96,16.77,6.21,4.64,12.56,9.11,18.97,13.46,3.42,2.32,7.22,4.07,10.66,6.36,4.78,3.18,9.59,6.38,14.48,9.32,5.57,3.35,11.17,6.71,16.67,10.17,9.04,5.69,18.78,9.93,28.39,14.39,5.72,2.65,11.41,5.42,17.19,7.92,2.65,1.15,4.06,5.06,7.31,3.95,2.83-.97,5.28-3.09,7.89-4.71.15-.1.28-.23.43-.33,8.46-5.35,17.34-10.04,26.45-14.08,5.55-2.46,11.34-4.57,16.95-6.97,3-1.28,6.33-1.35,9.12-3.21,11.2-7.45,24.04-11.4,36.33-16.44,4.87-1.99,9.57-4.34,13.95-6.97,4.64-2.78,9.07-5.84,14.93-7.89ZM254.18,360.44c-3.17-2.79-6.5-4.65-9.97-6.11-4.71-1.97-8.97-4.69-13.18-7.47-9.8-6.47-19.6-12.93-29.29-19.57-13.48-9.24-28.14-16.31-42.75-23.47-2.71-1.33-5.3-3.36-7.85.44-.61.91-2.16,1.28-3.35,1.71-9.02,3.25-17.75,7.19-26.34,11.44-9.54,4.71-19.27,8.99-28.01,15.26-6.74,4.84-13.96,8.9-22.04,11.47-4.08,1.3-8.26,2.59-12.22,4.4-10.33,4.73-19.77,11.94-31.91,11.79-3.01,3.42-7.72,3.64-11.31,5.98-1.26.82-1.3,1.7-.27,2.57,4.96,4.19,10.28,7.88,15.91,11.1,7.81,4.47,15.86,8.48,23.58,13.16,6.01,3.64,11.94,7.45,17.97,11.07,3.41,2.05,7.07,3.56,10.42,5.7,8.81,5.62,17.23,11.83,26.22,17.21,3.96,2.37,7.35,2.34,11.24.83,2.87-1.11,5.69-2.49,8.66-3.18,4.47-1.04,8.43-3.21,12.44-5.19,7.76-3.83,15.3-8.11,22.97-12.13,10.99-5.76,21.93-11.6,33.13-16.97,8.92-4.27,17.28-9.68,26.08-14.27,9.83-5.12,20.19-9.23,29.85-15.77ZM257.28,365.89c-2.13.05-3.71.8-5.18,1.96-5.14,4.05-11.13,6.59-16.95,9.44-6.98,3.41-14.04,6.65-20.97,10.14-7.03,3.54-13.8,7.54-21.08,10.63-5.13,2.17-9.79,5.42-14.78,7.95-8.52,4.32-17.05,8.6-25.62,12.81-7.51,3.68-14.97,7.18-23.01,9.48-3.42.98-6.7,2.5-9.98,3.93-1.81.79-3.45,1.76-3.66,4.19-.5,5.73-1.26,11.45-1.79,17.18-.76,8.26.03,16.55-.61,24.84-.33,4.33-.33,8.87,1.59,13.53,4.78-4.09,10.34-5.92,15.24-8.97,9.08-5.65,18.81-10.02,28.85-13.77,12.86-4.81,26.13-8.68,37.79-16.35,7.28-4.78,15.3-8.16,23.32-11.52,2.49-1.04,5.18-1.48,7.49-3.08,5.21-3.61,10.4-7.28,15.88-10.44,4.19-2.41,6.24-5.74,6.65-10.36.11-1.26.29-2.52.52-3.77,1.42-7.81.86-15.91,3.33-23.54,1.67-5.19,2.54-10.51,3.46-15.86.51-2.98.11-5.63-.47-8.42ZM108.66,497.37c1.51-2.21-.49-3.44-.28-5.12.85-6.79-.38-13.62.59-20.47,1.1-7.86-.15-15.88,1.19-23.77.69-4.06,1.07-8.18,1.64-12.26.19-1.36.15-2.38-1.34-3.11-6.91-3.38-13.11-7.89-19.38-12.28-.88-.62-1.79-1.2-2.73-1.73-5.31-3.04-10.68-5.98-15.95-9.11-10.49-6.23-20.54-13.18-31.51-18.63-9.41-4.67-18.53-9.89-25.65-17.92-1.2-1.35-2.5-3.29-4.36-2.64-2.21.77-1.67,3.3-1.83,5.22-.05.53.2,1.09.16,1.62-.79,8.83.19,17.68-.44,26.54-.46,6.47-.16,13.02-.44,19.54-.13,3.05.54,5.86,3.67,7.25,9.28,4.13,17.05,10.76,26.03,15.48,11.84,6.23,21.66,15.54,32.37,23.51,5.92,4.4,11.68,9.02,17.69,13.28,4.69,3.32,9.55,6.36,13.79,10.34,1.84,1.72,4.07,3.49,6.77,4.26ZM425.43,211.17c-1.03-1.23-2.2-2.18-2.79-3.41-2.08-4.39-5.39-8.2-6.52-13.03-1.28-5.48-5.77-9.12-7.83-14.2-2.57-6.32-6.12-12.23-8.39-18.71-.45-1.28-1.11-2.15-3.26-1.25-3.98,1.67-7.83,3.32-11.37,5.89-2.75,2-5.86,3.55-9.05,4.92-2.78,1.19-5.94,1.55-8.4,3.04-4.81,2.91-10.16,4.36-15.21,6.6-6.45,2.87-13.16,5.2-19.44,8.38-7.71,3.9-15.87,6.64-23.76,10.05-9.44,4.07-19.01,7.71-27.81,13.23-3.02,1.89-5.72,4.31-9.06,5.77-4.01,1.76-4.13,2.58-1.69,6.56,3.55,5.8,7.13,11.58,10.72,17.36,5.93,9.55,10.68,19.71,15.56,29.82,1.78,3.69,3.46,4.31,7.5,3.12,2.08-.61,4.1-1.42,6.12-2.21,4.95-1.93,9.46-4.6,14.81-6,8.49-2.23,16.65-6.02,24.64-9.79,11.59-5.47,23.08-11.22,33.56-18.73,6.89-4.94,14.58-8.63,21.31-13.83,1.85-1.43,3.92-2.66,6.02-3.68,5.26-2.56,9.42-6.62,14.33-9.89ZM71.57,274.99c.67-.06,1.6-.02,2.46-.24,5.43-1.4,10.85-2.93,15.9-5.38,7.66-3.73,15.41-7.15,23.49-9.9,4.77-1.63,9.36-3.89,13.83-6.24,2.17-1.14,4.5-2.94,3.74-6-.71-2.89-3.24-3.65-5.87-4.01-2.57-.35-5.01.1-7.45,1.01-10.5,3.91-21.16,7.44-31.51,11.72-6.93,2.87-14.26,5.29-19.58,11.17-1.26,1.39-2.76,2.54-2.16,4.59.58,1.98,2.45,2.53,4.22,2.98.87.22,1.8.2,2.93.31ZM125.4,274.8c-3.67.59-7.59,2-11.34,3.85-5.54,2.73-11.02,5.6-16.93,7.41-9.67,2.96-17.87,8.74-26.62,13.48-2.09,1.13-3.31,2.93-2.68,5.39.52,2.03,2.92,2.86,5.95,2.24,5.53-1.14,10.86-2.86,15.88-5.47,8.06-4.19,16.54-7.35,25.13-10.17,3.13-1.03,6.11-2.3,9.06-3.66,2.67-1.23,4.96-3,6.37-5.72,2.14-4.11.25-7.35-4.82-7.35ZM72.69,243.51c.31-.08.87-.14,1.36-.34,5.68-2.38,11.51-4.45,16.99-7.24,7.63-3.89,15.49-6.72,23.92-8.38,5.89-1.16,11.28-4.07,15.6-8.44,2.25-2.28,2.55-5.43,1.06-7.45-1.53-2.08-3.4-2.29-6.81-.82-5.82,2.5-11.63,5.02-17.48,7.47-9.01,3.78-18.05,7.5-27.08,11.25-3.07,1.27-5.54,3.46-8.09,5.47-1.77,1.39-2.87,3.36-2.49,5.73.24,1.48.94,2.79,3.02,2.77ZM124.87,187.66c.06-2.49-.56-3.09-3.15-3.18-3.33-.12-6.39.76-9.45,2.03-5.85,2.44-12.36,2.6-18.22,5.1-6.03,2.57-11.41,6.46-17.69,8.53-.97.32-1.84,1.18-2.56,1.97-.58.64-.99,1.53-1.21,2.37-.5,1.95.7,3.04,2.71,2.26,1.5-.58,3.04-1.19,4.52-1.71,6.24-2.19,12.28-4.87,19.07-5.52,8.16-.78,15.58-4.41,23.01-7.7.65-.29,1.18-.84,1.76-1.27.98-.72,1.17-1.78,1.2-2.89ZM68.1,223.38c-.08-4.79-2.51-6.22-6.08-4.34-1.63.86-2.86,2.18-4.1,3.48-1.87,1.96-3.71,3.93-5.55,5.91-1.19,1.28-3.41,2.3-2.73,4.27.66,1.9,2.86,2.59,4.84,2.98,1.59.31,3.19.62,4.8.73,1.67.11,3.27-.26,4.29-1.78,2.45-3.63,3.86-7.67,4.52-11.26ZM48.28,219.29c0,.88-.07,1.97.01,3.04.29,3.64,1.89,4.44,4.9,2.33,2.97-2.09,5.56-4.62,7.57-7.67,2.95-4.48,2.03-7.63-2.87-10.01-1.13-.55-2.32-1-3.53-1.35-3.41-.99-4.82-.22-5.27,3.23-.45,3.38-.54,6.82-.81,10.44ZM54.83,293.3c-.22-2.15-1.9-2.97-3.53-3.73-5.1-2.39-9.56-5.8-14.29-8.78-5.79-3.66-11.85-6.9-17.81-10.3-.91-.52-2.01-1.26-2.86-.04-.83,1.19.37,1.9.97,2.73,1,1.37,2.48,2.08,3.87,2.91,7.56,4.55,15.52,8.47,22.23,14.35,1.75,1.53,3.78,2.77,5.74,4.05,1.04.67,2.09,1.43,3.48,1.3,1.54-.15,2.26-.95,2.2-2.48ZM52.43,305.01c-.67-2.02-2.63-3.13-4.37-4.36-7.85-5.56-15.71-11.1-23.67-16.5-1.48-1-3.37-3.76-4.99-1.82-2.19,2.62,1.18,4,2.76,5.41,6.08,5.48,13.13,9.69,19.66,14.58,2.31,1.73,4.9,3.1,7.48,4.41,1.69.85,3.31-.07,3.14-1.73ZM45.73,223.99c-.24-4.72-1.16-8.41-2.5-11.96-1.19-3.17-2.73-3.46-5.93-1.97-2.06.96-3.44,2.61-4.93,4.14-2.53,2.6-2.49,4.55.2,6.87,2.61,2.25,5.61,4.01,8.8,5.31,2.87,1.17,4.38-.08,4.36-2.4ZM45.01,239.23c.14-3.48-1.01-4.41-4.15-2.97-3.44,1.58-6.76,3.44-10.1,5.23-1.24.66-2.91,1.05-3.01,2.79-.11,1.89,1.37,2.9,2.77,3.71,3.62,2.09,7.7,1.73,11.62,1.66,2-.04,3.16-2.03,2.75-3.97-.47-2.23-.03-4.31.12-6.46ZM47.91,245.9c0,.12-.08.84-.08,1.56.02,4.02,1.61,5.41,5.3,4.29,2.04-.62,4.07-1.4,5.86-2.72,3.94-2.91,3.71-6.54-.91-8.44-2.83-1.16-5.74-2.09-8.55-3.36-2-.9-2.75.4-2.2,2.18.61,1.96.59,3.91.58,6.49ZM19.88,260.68c-.6.65-1.6,1.02-1.05,2.13.38.77,1.04,1.5,1.75,1.99,8.21,5.61,16.32,11.38,25.18,15.96,1.57.81,3.76,1.97,4.8-.06,1.03-2.02-1.18-3.03-2.74-3.94-8.27-4.84-16.53-9.69-24.8-14.51-.92-.54-1.92-.95-3.14-1.56ZM28.92,237.69c3.83-1.17,7.78-2.53,11.28-4.78,1.74-1.12,1.18-3.32-.99-4.18-2.51-.99-5.28-1.12-7.75-2.36-2.08-1.05-3.87-.29-5.3,1.39-1.79,2.09-2.55,5.9-1.45,7.57.93,1.42,2.26,2.31,4.21,2.36ZM18,294.23c1.33,2.68,3.81,4.21,6.31,5.5,7.1,3.67,13.39,8.5,19.65,13.38.99.77,2,1.57,3.09,2.18,1.13.63,2.45,1.07,3.3-.42.63-1.1.06-2.09-.77-2.89-.52-.5-1.08-.97-1.69-1.35-8.62-5.27-16.7-11.38-25.67-16.09-1.23-.65-2.4-1.81-4.21-.32ZM19.81,305c-.3,1.57.89,2.3,1.9,2.94,5.03,3.17,10.08,6.32,15.2,9.34.98.58,2.53,1.35,3.45.05,1.09-1.54-.18-2.65-1.32-3.59-.41-.34-.89-.62-1.35-.9-5.1-3.09-10.54-5.5-15.89-8.09-.7-.34-1.38-.28-2,.26ZM52.69,270.42s-.29-.69-.89-1.14c-3.92-2.94-8.36-4.83-13.01-6.24-.88-.27-1.79.2-2.18,1.16-.39.98.12,1.84.79,2.39,3.66,3.01,7.84,5.03,12.43,6.18.5.12,1.08,0,1.6-.1.78-.17,1.21-.7,1.26-2.24ZM22.85,314.96c-1.77.25-2.26,1.15-1.5,1.91,3.48,3.48,7.54,6.13,12.27,7.61.7.22,1.41-.26,1.83-.91.48-.73.15-1.49-.34-1.97-3.56-3.57-8.22-5.01-12.27-6.64ZM25.43,330.83c1.23-.12,2.15-.2,2.69-1.08.43-.72.23-1.5-.31-1.98-2.74-2.44-5.89-4.24-9.52-4.84-1.58-.26-2.52,1.18-1.58,2.47,2.21,3,5.36,4.72,8.72,5.43ZM54.76,263.24c-.02-.18,0-.36-.06-.53-.35-1.1-5.32-3.91-6.79-3.77-.95.09-1.67.64-1.8,1.64-.2,1.51,2.3,3.73,4.81,4.37.89.22,1.77.28,2.6-.14.63-.32,1.18-.76,1.24-1.57Z"/>
      <path class="" d="M295.93,482.7c1.1-8.92-.43-19.23.06-29.53.11-2.37-.02-4.71-.4-7.05-2.06-12.43-1.57-24.83.67-37.17,1.27-7.01.69-14.07.81-21.11.11-6.34.29-12.66.9-18.98,1.22-12.58,2.19-25.17,2.62-37.82.29-8.55-.26-16.95-.97-25.41-.22-2.65.43-5.39.73-8.08.25-2.22,1.59-3.62,3.61-4.36,6.58-2.4,11.88-6.85,17.49-10.83,6.09-4.32,13.11-6.93,19.87-9.92,7.76-3.43,15.54-6.77,23.11-10.65,5.78-2.97,11.89-5.29,17.77-8.11,7.51-3.6,14.24-8.62,22.06-11.59,1.52-.58,2.95-1.45,4.49-1.92,5.63-1.74,9.82,3.23,8.8,7.59-1.1,4.71-1.38,9.62-2.54,14.32-1.89,7.66-1.59,15.41-1.47,23.15.14,9.47.08,18.98,1.05,28.38.85,8.25.67,16.54,1.65,24.79.66,5.54.33,11.23.09,16.83-.5,11.92-1.35,23.82-1.83,35.74-.33,8.3-1.61,16.6-1.48,24.81.12,7.59-.38,15.14-.35,22.71.03,8.79.9,17.66.07,26.34-.72,7.47.22,15.15-2.44,22.48-.89,2.46-.35,5.36-.84,8.06-.53,2.97-1.95,4.97-4.43,6.45-2.33,1.39-4.54,3.06-6.99,4.19-6.23,2.89-11.77,6.97-17.6,10.5-7.9,4.79-16.21,8.8-24.02,13.73-1.69,1.07-3.49,1.92-4.82,3.49-.46.55-.96,1.34-1.55,1.45-6.14,1.16-10.35,5.86-15.68,8.4-4.37,2.08-9.24,3.11-13.9,4.58-5.15,1.62-10.42,2.7-14.8,6.44-2.95,2.52-6.75,2.28-10.21.17-1.66-1.01-2.76-2.27-2.72-4.34.14-8.14-.73-16.28.1-24.43.56-5.56,1.45-11.15,1.27-16.7-.27-8.51,2.58-16.72,1.82-26.59ZM394.8,254.54c-10.04,2.38-10.98,3.68-10.56,12.8.17,3.78.66,7.7-.87,11.28-1.78,4.16-1.52,8.46-1.35,12.72.14,3.38.37,6.71.32,10.11-.04,3.17-.4,6.38-.35,9.58.09,6.09.12,12.18.24,18.28.16,7.77.41,15.53.6,23.3.2,8.15.48,16.29.5,24.44.02,8.63-.19,17.26-.35,25.89-.14,7.31.07,14.66-.66,21.92-.53,5.25-.75,10.48-.4,15.67.33,4.85.11,9.67.16,14.5.1,9.04-.18,18.04-1.74,27.04-1.39,8.05.89,16.21.44,24.36-.06,1.02.17,2.2,1.47,3.09,2.7-1.47,5.55-2.95,8.32-4.57,1.05-.61,2.21-1.3,2.05-2.9-.59-5.93-.05-11.83.32-17.76.44-7.01.08-14.07.16-21.08.13-11.36-.17-22.73.53-34.13.93-14.98.24-30.05.62-45.08.27-10.64-1.51-21.18-.88-31.82.51-8.66,1.52-17.31.97-26.02-.19-3.07.02-6.15.13-9.23.32-8.6.13-17.22.42-25.82.2-5.95-.89-11.92.21-17.84,1.14-6.15.36-12.21-.32-18.74ZM410.92,246.01c-2.73,1.14-5.51,2.35-8.33,3.48-2.32.92-3.36,2.22-2.75,4.98.98,4.43.86,8.95.78,13.51-.06,3.27-1.12,6.33-.93,9.64.42,7.49.18,15,.38,22.51.4,14.98-.22,29.98-.5,44.97-.06,3.42-.58,6.84-.7,10.26-.42,11.84,1.22,23.6.61,35.52-.74,14.43.17,28.93-.37,43.42-.14,3.74-.64,7.51-.43,11.3.58,10.63.67,21.26.03,31.9-.37,6.1-.73,12.21-1.01,18.31-.07,1.63-1.31,3.36.03,5.06,4.38-2.1,7.42-4.44,6.79-9.95-.4-3.48.53-7.16,1.19-10.7,1.16-6.19,2.25-12.38,2.2-18.69-.05-7.9-.33-15.8-.27-23.7.04-5.9.45-11.79.68-17.69.53-13.39.96-26.79,1.62-40.18.2-3.96.86-7.91,1.28-11.86.74-7.12-.4-14.25.16-21.49.64-8.35-.19-16.93-.61-25.34-.45-8.91-.79-17.83-1.22-26.74-.15-3.07.77-6.03.18-9.07-1.18-6.09-.69-12.28-.4-18.38.25-5.34,1.62-10.63,2.5-15.94.29-1.76,1.02-3.58-.9-5.14ZM311.93,303.66c.71-2.94.51-5.12.4-7.29-.04-.72-.18-1.42-.88-1.83-2.54-1.5-7.95,1.31-7.79,4.19.28,4.87.68,9.75,1.23,14.59.63,5.53,1.35,11.02,1.35,16.64,0,6.14-1.35,12.25-.43,18.39.3,1.99.04,3.93-.19,5.92-1.43,12.4-3.07,24.76-2.39,37.32.3,5.57.5,11.41-.82,16.74-2.81,11.41-2.01,22.8-1.26,34.21.26,3.96.48,7.9.68,11.86.24,4.66.13,9.35.03,13.95-.13,6.42.21,12.89-.71,19.32-.96,6.74-2.11,13.48-2.13,20.31-.02,4.89-.34,9.77-.48,14.64-.1,3.61-.87,7.17-.76,10.73.19,5.95.29,11.87-.6,17.78-.23,1.55.48,2.55,1.9,2.72,3.09.38,8.41-4.27,8.74-7.46,1.17-11.35,1.82-22.73,1.52-34.13-.12-4.58.51-9.08,1.09-13.48.99-7.5,1.17-14.97.94-22.43-.33-11.03-.62-22.13-.12-33.08.72-15.72.37-31.42.84-47.11.33-11-.31-21.99-.25-32.99.06-11.64,1.41-23.25.26-34.96-.82-8.37-.16-16.9-.16-24.57ZM353.01,527.24c2.33-1.27,4.63-2.66,7.04-3.77,2.06-.95,2.25-2.3,1.99-4.39-1.05-8.26-2.17-16.52-2.72-24.82-1.08-16.27-.19-32.57-.4-48.86-.13-9.82,1.05-19.45,3.24-29.03,1.2-5.24,2.27-10.68,2.19-16.01-.18-11.79.67-23.53,1.21-35.27.2-4.39-1.56-8.54-.85-12.9.7-4.3.11-8.63,0-12.94-.09-3.81.27-7.72-.51-11.39-.86-3.99,1.79-7.75.11-11.61,2.01-10.9,1.31-22.05,3.13-32.99.7-4.23.67-8.67.11-13.02-.14-1.12-.22-2.28-1.51-2.55-3.89-.81-9,3.52-8.64,7.37.44,4.7.33,9.4.4,14.11.1,6.29-.45,12.56-.13,18.88.21,4.31,1.17,8.78.41,12.96-1.63,8.94-2.14,17.95-2.24,26.95-.15,13.95-1.79,27.8-1.94,41.75-.11,9.94-.34,19.89-.53,29.83-.27,13.58.67,27.18-.75,40.74-.47,4.48-.96,8.97-1.21,13.47-.53,9.9-.29,19.78.18,29.7.3,6.47,1.17,13,.24,19.53-.2,1.38-.07,2.9,1.17,4.28ZM369.29,517.15c1.03.14,1.62-.82,2.44-.99,3.14-.66,3.96-2.24,3.17-5.42-1.46-5.86-.81-11.96-.59-17.86.13-3.6-1.08-7.05-.27-10.71,2.43-11.03,2.11-22.26,2.25-33.49.12-9.08-1.32-18.37,2.05-27.23.29-.76.06-1.38-.32-2.03-.76-1.31-.51-2.66-.5-4.13.11-10.13,0-20.26-.18-30.38-.17-9.75-.7-19.49-.7-29.23,0-8.81.54-17.63.79-26.44.42-14.4.87-28.79,1.17-43.19.14-6.71.05-13.42-.12-20.13-.07-2.86-1.29-3.53-3.85-2.54-1.9.74-2.75,1.72-2.07,4.13.72,2.57.9,5.41.7,8.08-.57,7.74-1.36,15.45-1.73,23.22-.55,11.63-2.26,23.13-.85,34.91,1.09,9.1.23,18.42.31,27.64.07,8.52-1.16,17.03-1.08,25.48.11,11.67-1.4,23.05-3.21,34.48-1.02,6.42-2.39,12.9-2.34,19.35.06,8.31.05,16.62.1,24.93.11,16.12.64,32.2,3.62,48.1.23,1.23.12,2.57,1.22,3.46ZM317.35,403.98c-.06,4.86.57,9.73.35,14.59-.32,6.86.13,13.75-.84,20.59-.46,3.21-.59,6.49-.59,9.74,0,10.27.06,20.55.19,30.82.15,12.08-1.05,24.12-1.64,36.16-.45,9.16.84,18.49-1.62,27.53-.2.74-.17,1.6.64,1.81,2.04.53,3.85-.71,5.77-1.08,1.68-.32,1.09-2.02,1.07-3.22-.15-7.78-.42-15.56-.45-23.34-.04-8.5.12-17,.21-25.5.14-12.62,2.83-25.03,2.98-37.66.12-10.27.46-20.54.97-30.79.23-4.67-.21-9.33.55-14.01.6-3.72-.43-7.83.7-11.3,1.27-3.89-.07-7.19-.34-10.76-.09-1.26-.22-2.58.03-3.8,1.34-6.34.08-12.74.77-19.15.92-8.55.09-17.28.85-25.86.57-6.47-.01-12.92.48-19.33.37-4.86-.76-9.75.65-14.57,1.72-5.87.56-11.85.39-17.79-.05-1.8-1.04-2.95-2.78-1.78-2.09,1.39-4.59,2.05-6.42,3.97-1.69,1.78-2.68,3.19-2.02,6.05,1,4.38,1.25,9.21-.06,13.46-1.98,6.44-1.31,12.91-1.28,19.31.06,13.06,1.12,26.1,1.4,39.16.26,12.25.06,24.51.06,36.76ZM339.24,278.75c-3.14.87-6.56,1.02-5.78,4.47,1.13,5.02-.23,9.7-.64,14.51-.7,8.08-1.11,16.12-.78,24.29.44,11.12-.23,22.29-.43,33.43-.02,1.09.05,2.18-.06,3.26-.66,6.08-.95,12.15-.91,18.28.06,8.78.36,17.65-.41,26.32-.94,10.67-1.17,21.36-1.17,31.98,0,9.97-3.44,19.79-1.06,29.79.08.32-.14.7-.21,1.05-1.29,6.4-1.21,12.91-1.66,19.39-.67,9.58.03,19.17-.27,28.75-.24,7.88-.18,15.77-.23,23.66-.02,3.43,1.13,4.18,4.4,2.9,2.55-1,4.29-2.47,4.09-5.62-.21-3.43-.12-6.88-.12-10.32,0-10.85.23-21.71-.07-32.56-.14-5.1.72-10.1.67-15.17-.08-7.52-.3-15.03.2-22.55.51-7.73,1.58-15.5,1.3-23.2-.35-9.79.15-19.49.61-29.23.37-7.94.91-15.87.72-23.84-.25-10.64-.57-21.34,1.16-31.9,1.07-6.59,1.43-13.27,1.71-19.85.34-7.85-1.08-15.76,1.28-23.53.24-.79-.19-1.77-.17-2.66.14-7.11-2.27-13.93-2.17-21.66ZM352,274.09c-1.83-.51-2.64.42-3.64.76-4.25,1.44-4.36,1.48-3.55,5.51.9,4.5.75,8.97.43,13.51-.48,6.81-1.23,13.68-.83,20.46.75,13.02.32,25.98-1.26,38.85-1.09,8.85-.2,17.66-.61,26.48-.26,5.74-.97,11.62-.25,17.31.73,5.81-1.39,11.23-1.11,17.02.25,5.25-.64,10.8-.41,16,.6,13.36-1.65,26.6-.82,39.95.47,7.67-.82,15.47-.19,23.12,1,12.15.63,24.27.72,36.4,0,1.14-.47,2.55.87,3.48,2.52-.1,4.21-1.18,4.21-3.88,0-8.87.11-17.75-.19-26.61-.27-8.14-.66-16.29-.05-24.41,1.24-16.75,2.54-33.48,2.1-50.3-.43-16.28-.35-32.56.51-48.82.38-7.22.72-14.44,1.1-21.65.49-9.37.16-18.89,1.7-28.09,2.45-14.57,2.3-29.11,2.01-43.73-.08-3.78.08-7.58-.72-11.35Z"/>
      <path class="" d="M229.29,172.39c-5,1.18-8.78-2.69-12.98-4.8-8.79-4.41-16.41-10.79-24.83-15.87-14.97-9.04-29.44-18.94-44.94-27.08-6.65-3.49-13.16-7.25-20.09-10.27-7.64-3.33-14.3-8.42-21.15-13.14-10.22-7.06-20.54-13.99-30.8-20.99-3.1-2.12-6.13-4.35-9.26-6.44-2.07-1.38-2.71-2.77-1.9-5.44,2.53-8.32,8.48-12.37,16.5-13.73,5.52-.94,10.52-3.07,14.82-6.35,5.96-4.55,12.76-7.47,19.24-11,8.67-4.72,18.13-7.72,26.78-12.66,4.55-2.6,10.53-4.4,15.62.43.92.88,2.25,1.03,3.51,1.32,8.14,1.86,15.86,4.86,23.19,8.85.47.26.99.48,1.38.85,6.52,6.14,14.69,9.75,22.08,14.55,10.6,6.89,21.02,14.05,30.69,22.24.55.46,1.09,1.04,1.74,1.26,4.78,1.6,8.63,4.66,12.08,8.12,6.37,6.38,14.12,10.58,21.84,14.97,6.42,3.65,12.71,7.55,18.21,12.61,3.49,3.21,8.06,4.85,12.22,6.94,3.38,1.69,6,4.09,8.56,6.54,3.93,3.76,1.87,10.19-3.44,12.8-9.87,4.85-19.54,10.1-29.45,14.86-5.46,2.63-9.41,7.2-14.51,10.26-9.59,5.73-19.69,9.93-30.87,11.26-1.28.15-2.52.27-4.23-.07Z"/>
      <path class="" d="M271.49,202.49c-3.59-.22-7.18-.68-10.31-2.71-3.7-2.39-4.67-5.09-3.2-8.66,1.6-3.91,5.79-6.47,9.43-5.31,3.75,1.2,7.4,2.79,10.62,5.15,1.46,1.07,2.64,2.45,3.34,4.14,1.17,2.81.34,5.07-2.5,6.14-2.33.87-4.73,1.83-7.37,1.25ZM270.52,198.6c1.19,0,2.1.01,3.01,0,1.16-.02,2.28-.36,2.69-1.48.5-1.36-.23-2.46-1.34-3.27-2.5-1.83-5.18-3.32-8.24-4-2.08-.46-3.59.61-4.56,2.2-1.21,1.99.1,3.5,1.58,4.64,2.08,1.62,4.47,2.38,6.87,1.91Z"/>
      <path class="" d="M365.15,157.62c-7.58,3.67-21.33-2.58-23.97-10.86,3.3-.64,6.72-2.18,9.83-.34,5.16,3.06,10.86,5.6,14.14,11.2ZM355.02,153.59c-3.19-3.63-5.29-4.66-9.11-4.9,2.22,3.17,5.44,4.42,9.11,4.9Z"/>
      <path class="" d="M334.49,153.12c4.02-.64,5.97,3.14,9,4.73,1.66.87,2.91,2.62,4.79,3.45.77.34,1.55,1.04,1.95,1.78.56,1.03,1.65,2.21.5,3.45-.88.95-2,1.51-3.41,1-5.85-2.13-11.27-4.91-15.32-9.83-.9-1.09-2.13-2.15-1.11-3.81.88-1.43,2.25-.73,3.59-.76ZM339.72,159.56c-.17-.27-.27-.65-.52-.78-.28-.15-.87-.22-.99-.07-.47.64.3.75.6.95.19.13.59-.05.9-.1Z"/>
      <path class="" d="M334.32,172.36c-6.33-1.1-11.96-3.61-15.72-9.18-1.59-2.36-.43-4.29,2.44-4.17,2.18.09,4.18.94,6.1,2.03,2.97,1.69,6.04,3.18,8.99,4.9,1.57.91,3.26,2.32,2.81,4.21-.49,2.03-2.81,1.84-4.62,2.21ZM329.6,166.58q-3.06-2.35-6.24-2.95,3.25,2.56,6.24,2.95Z"/>
      <path class="" d="M306.14,256.87c-4.93,0-7.36-2.02-9.32-6.7-1.8-4.3-4.19-8.36-6.23-12.57-1.1-2.27-2.18-4.58-2.96-6.98-1.17-3.61-.63-5.63,2.85-7.14,9.82-4.24,17.93-11.39,27.65-15.84,3.99-1.83,7.1-5.41,11.42-7.09,5.01-1.95,9.74-4.58,14.94-6.15,3.65-1.1,6.92-3.15,10-5.33,9.65-6.84,20.23-11.8,31.25-15.9,1.23-.46,2.18-1.19,3.24-1.87,2.6-1.69,4.84-1.16,6.38,1.44,3.41,5.74,6.73,11.54,10.09,17.31.45.77.79,1.68,1.42,2.26,1.86,1.73,3.7,3.21.45,5.47-1.34.93-.04,2.32.26,3.48.55,2.16-.03,3.47-2.08,4.9-7.76,5.42-16.59,8.69-24.88,13.03-9.53,5-19.42,9.23-28.82,14.59-10.35,5.91-20.34,12.46-30.91,17.96-4.61,2.4-9.43,4.59-14.75,5.12ZM402.23,198.04c-1.06-.73,1.35-2.04.12-3.57-4.1-5.11-6.13-11.34-8.86-17.19-.9-1.92-1.55-2.64-4.02-1.83-10.03,3.31-19.39,8.09-28.13,13.76-6.91,4.48-14.27,7.74-21.76,10.71-6.2,2.46-12.32,5.15-17.74,8.82-8.24,5.59-16.74,10.52-25.89,14.41-4.56,1.94-5.41,3.91-3.46,8.54,2.81,6.64,5.28,13.41,8.91,19.73,1.69,2.94,3.47,3.2,6.08,2.53,1.76-.45,3.38-1.26,4.93-2.26,1.67-1.08,3.36-2.37,5.23-2.83,4.18-1.03,7.58-3.39,11.08-5.66,4.08-2.65,8.12-5.35,12.3-7.83,11.13-6.59,22.85-12.01,34.52-17.59,7.91-3.78,15.87-7.74,23.4-12.44,2.84-1.77,4.77-3.24,3.28-7.32Z"/>
      <path class="" d="M384.03,231.34c-3.84-.04-4.95-1.93-3.34-4.86,1.27-2.31,3.46-3.14,5.82-3.51,2.03-.32,3.58,1.03,4.54,2.49,1.03,1.57-.89,2.52-1.68,3.59-1.4,1.9-3.45,2.52-5.34,2.29ZM385.46,228.03c.62-.12,1.43-.06,1.35-1.04-.02-.22-.41-.58-.63-.58-.74-.02-1.24.44-1.43,1.13-.02.09.45.32.71.49Z"/>
      <path class="" d="M401.79,220.08c-.22,2.8-4.38,6.02-6.8,5.65-1.8-.28-2.97-1.36-3.04-3.21-.07-1.84,4.22-5.5,6.15-5.16,1.77.31,3.5.93,3.69,2.73Z"/>
      <path class="" d="M412.35,215.17c.04,1.62-2.84,3.96-4.98,4.04-2.63.11-4.93-1.37-4.89-3.14.05-2.17,3.07-5.14,5.41-5.31,2.14-.16,4.4,2.07,4.46,4.41ZM408.54,214.01c-.77.11-1.28.51-1.27,1.31,0,.18.5.5.77.49.79-.02,1.22-.57,1.3-1.3.01-.14-.52-.33-.8-.49Z"/>
    </g>
  </g>
</svg>