<svg id="cooler-label" xmlns="http://www.w3.org/2000/svg" viewBox="0 0 65.81 75.09"><defs><style></style></defs><g id="cooler-label" data-name="cooler-label"><path d="M33.84 75.09c-.61 0-1.23-.05-1.84-.14l.2-1.29c1.57.24 3.17.13 4.69-.32l.37 1.24c-1.12.34-2.27.51-3.43.51Zm-6.81-1.47c-.56-.19-1.1-.41-1.61-.66-1.09-.52-2.08-1.18-2.95-1.96l.87-.97c.78.7 1.67 1.29 2.64 1.75.46.22.96.42 1.47.6l-.42 1.23Zm14.83-1.6-.86-.98.85-.75.45-.39.08-.06c.76-.69 1.39-1.42 1.9-2.19l.07-.1 1.08.72-.07.1c-.57.86-1.27 1.67-2.07 2.4-.08.07-.12.11-.17.14-.11.1-.26.23-.42.37l-.85.74ZM19 67.59l-.8-.53c-.21-.15-.5-.34-.6-.4a26.79 26.79 0 0 1-2.83-1.86l.77-1.05c.74.54 1.64 1.18 2.7 1.78.12.07.45.29.69.46l.79.52-.72 1.08Zm30.33-1.94-.67-1.12c.46-.27.91-.54 1.36-.8.04-.03.12-.07.2-.12l.19-.1.22.03c1.03.16 2.05.17 3.06.03l.17 1.29c-1.05.14-2.12.14-3.2 0-.46.26-.89.52-1.33.78Zm-39.03-2.1c-1.67-.46-3.22-1.26-4.62-2.38l.36-.55.41-.5-.41.5.44-.48c1.28 1.02 2.68 1.74 4.18 2.15l-.35 1.25Zm48.5-.53-.72-1.08c.89-.59 1.69-1.32 2.38-2.17l.11-.13c.27-.34.56-.72.87-1.12l1.03.79c-.31.41-.61.78-.89 1.15-.07.09-.11.14-.15.17-.73.91-1.63 1.72-2.63 2.39ZM2.07 57.33c-.34-.51-.65-1.04-.92-1.59-.23-.46-.41-.89-.58-1.32l-.04-.11c-.21-.56-.4-1.18-.53-1.8l1.27-.28c.12.56.29 1.12.49 1.67.17.45.34.84.54 1.26.25.49.53.98.84 1.45l-1.08.72Zm63.04-2.51-1.22-.44c.41-1.15.62-2.35.62-3.57 0-.37-.02-.73-.06-1.1l1.29-.14c.04.41.07.82.07 1.23 0 1.36-.24 2.71-.7 4.01ZM1.28 47.53l-1.27-.29c.29-1.27.8-2.47 1.51-3.58 0-.22 0-.6.02-.98l1.3.03c0 .54-.02 1.07-.02 1.14v.2l-.11.17a10.34 10.34 0 0 0-1.43 3.33Zm61.65-2.27-.16-.24v-.21c.05-.74.07-1.5.07-2.29v-.14l.06-.13c.36-.77.63-1.58.8-2.42l1.27.26c-.18.89-.46 1.75-.84 2.58 0 .76-.03 1.5-.06 2.21l-.47-.02-.69.41ZM.34 37.95c-.08-.58-.13-1.18-.13-1.77 0-1.19.17-2.37.52-3.5l1.24.38c-.31 1-.46 2.05-.46 3.12 0 .53.04 1.06.11 1.58l-1.29.19Zm63.28-2.84c-.08-.31-.16-.63-.27-.94-.27-.81-.62-1.59-1.06-2.32l-.07-.12-.02-.13-.09-.61c-.04-.24-.08-.43-.12-.62l1.27-.28c.05.21.09.43.12.64.03.22.06.4.08.57.45.78.82 1.6 1.1 2.46.11.35.21.69.3 1.04l-1.26.3ZM4.1 28.56l-1.24-.39c.14-.44.3-.87.49-1.28.05-.69.13-1.24.2-1.66l.02-.14c.09-.61.22-1.21.39-1.79l1.25.36c-.15.52-.27 1.07-.35 1.62l-.02.14c-.06.42-.15.98-.19 1.67l-.06.24c-.19.39-.35.81-.48 1.23Zm56.59-2.96c-.2-.57-.43-1.16-.7-1.74-.13-.29-.27-.58-.41-.87l-.16-.36c-.14-.39-.35-.96-.64-1.6l1.18-.54c.32.69.54 1.29.68 1.69l.11.25c.14.3.29.59.43.9.28.62.53 1.25.74 1.87l-1.23.42ZM7.35 19.42l-1.03-.79c.44-.57.93-1.11 1.47-1.62.17-.21.54-.64 1.04-1.11l.34-.32.7-.67.89.95c-.25.23-.48.45-.69.65l-.34.32c-.45.43-.79.82-.99 1.06-.54.51-.98 1.01-1.38 1.52Zm48.71-2.35c-.8-.85-1.58-1.49-2.14-1.95l-.14-.11c-.12-.1-.24-.2-.35-.3-.12-.11-.25-.23-.38-.34-.21-.18-.44-.35-.68-.52l.75-1.06c.26.19.52.38.78.59.15.13.28.25.42.37.09.09.19.17.29.25l.15.12c.59.49 1.4 1.16 2.26 2.06l-.94.9Z"/><text transform="rotate(-25.31 42.24 -26.234)"><tspan x="0" y="0">C</tspan></text><text transform="rotate(-12.86 66.077 -90.77)"><tspan x="0" y="0">o</tspan></text><text transform="rotate(-1.36 477.786 -1171.11)"><tspan x="0" y="0">o</tspan></text><text transform="rotate(6.63 -77.637 301.49)"><tspan x="0" y="0">l</tspan></text><text transform="rotate(14.03 -26.886 154.94)"><tspan x="0" y="0">e</tspan></text><text transform="rotate(22.49 -10.497 112.878)"><tspan x="0" y="0">r</tspan></text></g></svg>