<svg data-name="cpu" xmlns="http://www.w3.org/2000/svg" viewBox="0 0 84.52 49.61"><g data-name="cpu"><path d="M68.85 16.58c.61-.34.87-.49 1.09-.61.72.41 1.41.81 2.1 1.21 1.85 1.06 3.68 2.14 5.55 3.16.81.44 1.7.74 2.54 1.14.45.21.89.44 1.3.72.77.52 1.51 1.09 2.27 1.61.98.66 1.09 1.27.38 2.17-1.03 1.31-3.44 1.82-4.91 1.04-.06-.03-.11-.06-.17-.09-1.98-1.08-2.11-1-2.21 1.17-.03.68-.07 1.38-.24 2.03-.09.37-.39.8-.71.98-.86.48-1.81.78-2.67 1.25-1.75.95-3.46 1.97-5.18 2.96-.64.36-1.3.69-1.9 1.1-1.1.76-2.56.93-3.41 2.13-.19.27-.63.42-.98.52-1.89.51-3.08 2.06-4.68 3.01-2.01 1.2-3.42 3.33-5.88 3.85-.53.11-1.06.25-1.72.41.14.86-.24 1.5-1.31 1.65-.42.06-.93.14-1.21.41-1.97 1.94-4.02 1.2-6.07.26-2.21-1.01-4.44-1.99-6.59-3.11-1.93-1-3.74-2.22-5.64-3.28-1.54-.86-3.16-1.6-4.71-2.45-1.36-.75-2.67-1.59-4.01-2.38-2.42-1.43-4.85-2.85-7.27-4.29a615.29 615.29 0 0 1-6.09-3.69c-1.6-.98-3.18-1.98-4.77-2.97-.21-.13-.41-.29-.6-.45-1.53-1.33-1.51-2.02.15-3.16 2.11-1.45 4.19-2.97 6.38-4.28 2.89-1.72 5.77-3.54 8.87-4.8 1.82-.74 3.28-1.73 4.81-2.85 1.42-1.05 3.17-1.64 4.75-2.47.4-.21.73-.58 1.07-.9 1.72-1.6 4.19-1.79 6-3.27.8-.65 1.89-.51 2.87-.05.39.19.8.4 1.22.47 1.18.2 1.99-.41 2.24-1.72.2-1.06.28-2.06 1.55-2.54 1.37-.51 2.65-.78 3.94.09.66.45 1.31.92 1.96 1.37.2.14.4.38.6.38 1.91.02 2.96 1.45 4.25 2.5.56.46 1.2.87 1.86 1.17 2.86 1.3 5.7 2.61 7.89 4.96.16.17.42.24.63.36.93.5 2.03.82 2.74 1.54.7.71 1.82.53 2.39 1.6.34.63 1.8.57 1.57 2.14Zm-36.3 10.05c.5-.73.94-1.47 1.47-2.14.51-.64 1.21-.34 1.7-.01.48.32 1.06.86 1.1 1.34.03.46-.51 1.04-.94 1.43-.28.26-.79.26-1.22.39-.15.68.01 1.25.52 1.71.58.53 1.37.4 2.07.74.75.37 1.55 1.02 1.89 1.8.64 1.48 2.84 4.12 4.72 3.48 1.03-.35 1.49-1.47 2.43-1.95.38-.2.79-.31 1.2-.53.5-.26.94-.79 1.23-1.26.29-.46.45-1.04.81-1.46.52-.6 1.5-.8 2.14-1.27.16-.12 1.57-1.54 1.39-1.68-1.48-1.15-1.67-1.74-1.05-2.99.58-1.17 1.57-1.36 2.56-.47.42.38.75.85 1.19 1.19.73.57 2.15.49 2.61-.09.42-.52.24-1.45-.63-2.13-1.18-.92-2.42-1.77-3.73-2.5-1.29-.72-1.35-.62-2.26.59-.24.31-.61.65-.96.72-.7.14-1.44-.05-1.71-.78-.23-.62-.14-1.76.68-1.85.14-.02.29 0 .43-.03s.28-.16.26-.3c-.01-.12-.13-.21-.23-.27-1.04-.66-2.15-1.27-3.07-2.1-.66-.6-1.24-1.3-1.79-1.99-.62-.77-1.43-1.4-2.06-2.17-.17-.21-.32-.45-.5-.64-.24-.25-.14-.22-.45-.12-.34.11-.68.36-1.01.51-.7.32-1.42.6-2.07 1-.32.2-.61.42-.88.69-.12.12-.58.89-.68.9 1.46-.19 2.51.53 3.33 1.55.9 1.11.25 2.66-1.12 2.89-1.25.21-2.36-.48-2.68-1.71-.14-.54-.12-1.16-1.1-1.24-.21-.02-.9 1.22-1.09 1.39-.36.31-.85.4-1.18.79.76.27 1.78.33 1.98 1.21.16.72-.06 1.42-.58 1.93-.66.57-3-.54-3.21-.77-.89-.94-2.11-1.51-3.14-.48-.97.97-2.23 1.59-3.61 1.63-.28 0-.64.04-.74.3-.1.27.14.53.37.71.86.69 1.72 1.39 2.58 2.08.5.41.92 1.03 1.47 1.34.99.56 2.49.49 3.58.6ZM20.06 13.32c.35.03.52.08.55.04.09-.15.14-.33.21-.51-.19.12-.39.24-.75.46Z"/><path d="M38.87 21.51c1.21.01 1.85.72 1.82 2-.03 1.02-.65 1.52-1.92 1.53-1.41 0-2.01-.49-1.99-1.62.03-1.42.58-1.92 2.09-1.91ZM44.81 27.75c1.2-.03 1.91.47 1.87 1.31-.03.69-.9 1.44-1.69 1.47-1.07.04-2.04-.52-2.07-1.2-.04-.92.72-1.57 1.89-1.59ZM45.51 20.24c1.2-.03 1.91.47 1.87 1.31-.03.69-.9 1.44-1.69 1.47-1.07.04-2.04-.52-2.07-1.2-.04-.92.72-1.57 1.89-1.59Z"/></g></svg>