<svg id="hdd-label" xmlns="http://www.w3.org/2000/svg" viewBox="0 0 119.5 88.98"><defs></defs><g id="hdd-label" data-name="hdd-label"><path d="M57.77 87.6c-.31 0-.62-.02-.93-.05l.15-1.29c1.54.17 3.1-.17 4.42-.97l.68 1.11a8.247 8.247 0 0 1-4.31 1.21Zm-5.91-1.41c-1.55-.52-3.14-1.13-4.75-1.82l.51-1.2c1.57.67 3.14 1.27 4.65 1.78l-.42 1.23Zm14.48-2.49-.69-1.1c1.42-.89 2.85-1.78 4.29-2.65l.68 1.11c-1.43.88-2.86 1.76-4.27 2.65Zm-23.83-1.47c-1.43-.72-2.93-1.52-4.47-2.38l.64-1.13c1.52.85 3 1.65 4.41 2.36l-.58 1.16Zm32.4-3.79-.67-1.11c1.44-.87 2.88-1.73 4.32-2.59l.66 1.12-4.32 2.58Zm-41.23-1.16c-1.43-.88-2.86-1.77-4.28-2.69l.7-1.09c1.41.91 2.82 1.8 4.25 2.67l-.68 1.11Zm49.88-3.98-.66-1.12c1.45-.85 2.9-1.7 4.34-2.55l.66 1.12c-1.44.84-2.89 1.69-4.34 2.55Zm-58.38-1.46-4.19-2.79.72-1.08 4.19 2.78-.72 1.08Zm67.06-3.63-.65-1.12 4.35-2.54.66 1.12-4.35 2.54ZM16.78 66.3c-1.57-1.02-2.96-1.89-4.24-2.68l.68-1.11c1.29.79 2.69 1.67 4.27 2.7l-.71 1.09Zm84.16-3.17-.66-1.12c1.44-.85 2.89-1.7 4.34-2.55l.66 1.12c-1.45.86-2.9 1.71-4.34 2.56ZM8.18 60.95c-.37-.3-.72-.63-1.04-.99-.88-1-1.66-2.02-2.31-3.02l1.09-.71c.62.95 1.36 1.92 2.2 2.87.27.3.56.58.87.83l-.81 1.02ZM109.61 58l-.67-1.12c1.44-.86 2.88-1.73 4.31-2.6l.68 1.11c-1.44.87-2.87 1.74-4.31 2.6ZM2.62 52.23c-.37-1.27-.56-2.55-.56-3.81 0-.47.03-.95.08-1.42l1.29.14c-.05.43-.07.86-.07 1.28 0 1.14.17 2.29.5 3.45l-1.25.36Zm115.21-.36-1.08-.73c.88-1.3 1.37-2.78 1.45-4.39l1.3.07a9.774 9.774 0 0 1-1.67 5.05ZM4.88 42.63l-1.13-.64c.82-1.46 1.91-2.77 3.34-4.02l.86.98c-1.32 1.15-2.32 2.35-3.06 3.68Zm112.59-.57-.09-.42v-.29c0-1.42-.42-2.79-1.23-3.96l1.07-.73a8.283 8.283 0 0 1 1.46 4.69V41.7h-.25l-.96.36Zm-105.5-5.9-.65-1.13c1.54-.88 3.12-1.65 4.51-2.33l.57 1.17c-1.38.67-2.93 1.42-4.44 2.28Zm100.95-2.43c-1.13-1.04-2.41-2.02-3.9-3.01l.72-1.08c1.55 1.03 2.88 2.05 4.06 3.13l-.88.96Zm-91.99-2.24-.67-1.11c1.47-.86 2.92-1.69 4.36-2.51l.64 1.13c-1.43.82-2.88 1.65-4.33 2.49Zm83.81-3.3c-.64-.35-1.28-.69-1.91-1.03l-.26-.14c-.77-.41-1.54-.82-2.27-1.22l.62-1.14c.73.4 1.49.81 2.26 1.21l.26.14c.63.34 1.27.68 1.92 1.03l-.62 1.14Zm-8.79-5.09c-.6-.45-1.12-.89-1.58-1.34a6.84 6.84 0 0 0-2.32-1.51l.48-1.21c1.04.41 1.96 1.01 2.76 1.8.41.4.89.81 1.44 1.22l-.78 1.04Zm-8.37-5.43c-.66-.44-1.33-.88-1.93-1.28-.79-.53-1.53-1.02-2.27-1.51l.71-1.09 2.23 1.48c.65.43 1.3.87 1.96 1.31l-.71 1.09Z"/><text transform="rotate(-29.8 75.81 4.416)"><tspan x="0" y="0"> </tspan></text><text transform="rotate(-28.83 76.804 -2.469)"><tspan x="0" y="0"> </tspan></text><text transform="rotate(-28.2 77.043 -9.492)"><tspan x="0" y="0"> </tspan></text><text transform="rotate(-28.77 74.006 -15.219)"><tspan x="0" y="0"> </tspan></text><text transform="rotate(-29.65 70.346 -20.394)"><tspan x="0" y="0"> </tspan></text><text transform="rotate(-29.52 68.98 -26.72)"><tspan x="0" y="0"> </tspan></text><text transform="rotate(-29.19 67.993 -33.474)"><tspan x="0" y="0"> </tspan></text><text transform="rotate(-28.84 67.03 -40.418)"><tspan x="0" y="0"> </tspan></text><text transform="rotate(-28.21 66.554 -48.074)"><tspan x="0" y="0">H</tspan></text><text transform="rotate(-27.33 64.08 -66.295)"><tspan x="0" y="0">a</tspan></text><text transform="rotate(-26.64 61.912 -81.956)"><tspan x="0" y="0">r</tspan></text><text transform="rotate(-25.91 61.019 -93.044)"><tspan x="0" y="0">d</tspan></text><text transform="rotate(-25.16 58.8 -110.553)"><tspan x="0" y="0"> </tspan></text><text transform="rotate(-26.06 55.559 -113.977)"><tspan x="0" y="0">D</tspan></text><text transform="rotate(-3.62 186.915 -978.114)"><tspan x="0" y="0">r</tspan></text><text transform="rotate(8.57 -31.4 444.314)"><tspan x="0" y="0">i</tspan></text><text transform="rotate(19.48 5.397 203.345)"><tspan x="0" y="0">v</tspan></text><text transform="rotate(28.6 13.885 148.396)"><tspan x="0" y="0">e</tspan></text></g></svg>