<svg id="psu" data-name="psu" xmlns="http://www.w3.org/2000/svg" viewBox="0 0 142.29 140.03"><defs><style>.cls-1{stroke-width:0}</style></defs><g id="psu" data-name="psu"><path class="cls-1" d="M89.18 91.29c5.96.86 2.38 11.13 3.19 15.67-6.3 7.41-17.52 11.85-26.29 16.23-6.42 1.16-4.17-7.49-3.79-11.37 4.7-9.97 17.07-16.68 26.89-20.53Zm-18.36 20.07c-3.56 1.84-10.94 6.12-5.24 9.24 3.8-.36 10.57-7.26 5.24-9.24Zm-.82-6.98c-3.34 1.96-7.2 6.31-6.75 10.22 3.86-1.37 12.54-7.13 6.75-10.22Zm20.3-11.3c-.6 2.37-9.7 10.52-5.1 10.56 5.41-.9 7.7-5.75 5.1-10.56Zm-2.29.53c-2.98.97-9.98 3.61-10.37 6.86 3.68 4.18 8.75-3.3 10.37-6.86Zm-4.53 14.36c3.85 5.07 10.02-3.13 6.73-5.62-2.65 1.84-6.43 1.72-6.73 5.62Zm-5.5 3.96c-3.42.16-4.07 3.07-5.71 5.47 2.13-.67 8.17-2.48 5.71-5.47Zm7.51-1.04c-1.95-2.01-5-1.84-6.1.62.05 3.94 3.87-.07 6.1-.62Zm-9.7-10.49c-1.94 1.23-7.05 3.61-2.52 4.56 1.6-1.28 4.19-2.1 2.52-4.56ZM128.89 75.16c-.72 4.04-8.02 9.98-11.83 8.67-8.34-6.34 12.5-18.61 11.83-8.67Zm-10.23 7.22c5.05-1.02 14.03-11.81 4.12-7.74-3.45 1.11-7.54 4.03-4.12 7.74ZM123.37 84.36c.63.95 1.62.86 1.23-.45 7.26-4.29 3.82 9.71-1.47 10.25-6.61 3.61-5.6-9.31.24-9.8Zm2.95.58c-4.08 1.72-6.76 3.16-5.31 8.1 1.38-.14 2.5-2.19 3.12-.44.97-.33.16-.78.15-1.23 2.28-.54 1.67-3.18 2.73-4.08 1.8-.18-.05-1.63-.69-2.35Z"/><path class="cls-1" d="m139.17 62.92-2.66.42c.39.88.65 1.98.82 3.23 3.68 27.04-.17 24.45-18.34 34.74l-14.2 7.4-53.09 27.66c-1.26-9.41-.03-19.76.7-29.22.95-6.12-9.89-8.41-14.12-12.31-12.45-9.7-24.26-15.03-34.9-26.67l-1.17-.39C.9 71.65.23 77.31.21 86.06c-.03 14.8-1.64 24.58 4.3 27.03 11.83 5.39 34.62 25.01 45.24 26.91.9.16 1.68-.72 2.51-1.08 19.2-8.43 36.89-19.1 53.73-27.91 5.85-3.07 11.61-5.9 17.28-8.35 11.94-5.13 16.98-8.05 18.51-17.3 1.05-6.28.58-15.27-2.61-22.45Z"/><path class="cls-1" d="M132.68 54.41C119.09 44.36 95.17 19.89 83.8 22.69c-12.16 3-22.89 9.61-33.68 16.11-4.12-.62-7.85-6.25-3.87-8.28.07-.05.16-.08.25-.12.46-.2 1.01-.36 1.66-.46 4.63-.25 7.04-5.23 11.54-1.76 6.93 2.19 11.26-17.64-1.41-10.97 2.56-2.81 11.64-3.76 7.48-8.76-2.92-5.04-8.33 2.33-11.96 2.97-.02 0-.04 0-.05.02-.1.02-.19.05-.28.07h-.02c-.05.02-.1.03-.15.05-.05 0-.1.03-.15.05-5.02 1.68.03 6.75-1.78 8.89-10.51.18-31.53 14.42-18.75 20.87-14.7-14.58 33.87-25.29 14.74-16.4-.12.04-.25.07-.36.11-.04 0-.07.03-.11.04-.04 0-.07.03-.11.04-5.42 1.61-10.73 3.05-13.22 9-2.35 5.19 4.1 8.1 8.04 9.49-1.06.97-2.08 1.19-3.52.39.62.72.55 1.21.15 1.61s-3.34 1.64-3.34 1.64c-2.97.28-7.04.44-10.28-.39l-.48 1.94c1.62.44 3.55.73 5.84.85l-9.77 4.75C11.2 59.5 5.15 59.23 2.26 67.82l1.17.39c11.44 6.44 18.96 14.82 30.66 21.61 9.02 4.74 14.25 13.75 26.43 7.38 24.22-12.66 44.27-20.79 68.95-34.86 3.91-2.24 6-1.45 7.08 1.03l2.66-.42c-1.5-3.41-3.63-6.4-6.49-8.51ZM46.6 40.64c-1.2.52-9.33-2.33-8.14-5.99-2.29 2.89 1.93 5.04 4.05 6.5-15.3-2.85-4.93-11.06 4.41-14.73.18-.07.36-.15.53-.21.04-.02.08-.03.12-.05 2.14-.8 4.19-1.35 5.83-1.51.54 2.38-3.51 3.79-7.06 5.4-.08.04-.17.08-.25.12-4.26 1.96-7.58 4.25-.86 8.94 1.45.88 1.74 1.37 1.37 1.53Zm13.72 34.15c-5.02-.23-.23-10.02 2.87-7.94.28.58-.05 1.38-.54 1.82-.8 2.29 3.24 5.64-2.33 6.12Zm-.05-15c4.3-1.88 4.73 3.3 9.04 3.85 12.76 3.86 24.3-10.89 12.67-19.98 24.36 4.58-8.36 37.05-21.71 16.12Zm34.65-9.21c-.59-1.58-1.97-.57-3.1-.47-2.56-2.34 5.46-3.62 6.12-.07 4.84 6.05-8.12 5.44-3.01.55Z"/><path class="cls-1" d="M59.54 2.79c-3.45-7.05-8.66 1.07-11.3 4.61C34.82 13 3.18 43.17 24.11 48.81l.48-1.94c-3.91-.99-6.59-3.42-4.59-8.79 5.16-13.07 16.96-21.13 28.93-27.94.96 1.27 2.47 1.5 4.08 1.09h.02c.05 0 .1-.02.15-.04.05 0 .1-.03.15-.04.1-.03.2-.06.3-.1 3.71-1.28 7.57-5.63 5.91-8.27Z"/><path class="cls-1" d="M28.64 45.18c-5.37.24-9.3-5.14-5.83-9.6-1.12 5.39 1.63 7.46 5.83 9.6ZM42.9 17.04c1.69-1.26 3.79-1.71 5.76-2.39-1.57 1.23-3.97 2.6-5.76 2.39ZM42.86 17c-.42 1.49-2.32 1.5-3.5 1.94.96-1 2.35-1.61 3.5-1.94ZM36.35 21.15c.26-1.56 1.35-1.54 2.38-1.92.09.83-1.53 1.13-2.38 1.92ZM33.56 22.94c.35.94-.21 1.28-.86 1.55-.76-.38.79-1.07.86-1.55ZM30.59 26.99c.32-.53.57-.94.95-1.56q.08 1.18-.95 1.56ZM33.59 22.97c.47-.42.93-.84 1.61-1.45-.38 1.22-.58 1.15-1.61 1.45ZM29.85 45.32c-.49.6-.87.02-1.23-.1.45-.64.95.12 1.23.1ZM29.87 45.34c.31.09 1.14-.23.99.24-.32-.07-.76-.2-.99-.24Z"/></g></svg>