<svg id="ram-label" xmlns="http://www.w3.org/2000/svg" viewBox="0 0 94.03 78.74"><defs><style>.cls-1{font-family:Futura-Medium,Futura;font-size:11px;font-weight:500}</style></defs><g id="ram-label" data-name="ram-label"><path d="M40.06 78.74c-1.65-.01-3.34-.24-5.13-.48l-.81-.11.2-1.49.82.11c1.74.24 3.38.46 4.94.47v1.5Zm-11.78-1.28-.69-.08c-1.51-.19-3.08-.21-4.6-.23h-.49l.02-1.51h.49c1.56.03 3.18.05 4.76.25l.7.08-.19 1.49Zm17.81-.15-.74-1.3c1.09-.62 2.09-1.5 3.06-2.66.3-.38.61-.79.92-1.19l1.19.91c-.31.41-.62.81-.94 1.22-1.1 1.33-2.23 2.31-3.49 3.03Zm-29.55-.66c-.72-.1-1.45-.2-2.17-.28l-.99-.1c-.89-.09-1.79-.17-2.69-.3l.21-1.48c.87.12 1.75.21 2.62.29l1 .1c.74.08 1.49.18 2.23.29l-.21 1.48ZM4.89 74.06C3.18 73.1 1.74 71.4.85 69.27l1.38-.58c.76 1.82 1.96 3.26 3.39 4.06l-.73 1.31Zm49.14-5.74-1.22-.88c1-1.38 1.99-2.78 2.98-4.17l.44-.62 1.22.87-.44.62c-.99 1.39-1.98 2.79-2.98 4.18Zm-52.55-5L0 63.11c.05-.36.12-.71.21-1.05.46-1.79 1.32-3.28 2.18-4.62l1.26.81c-.8 1.23-1.59 2.59-1.99 4.18-.08.29-.14.58-.18.88Zm59.39-4.57-1.21-.88c1.14-1.56 2.15-2.92 3.11-4.16l.41-.56 1.2.9-.42.56c-.96 1.25-1.97 2.6-3.1 4.14ZM6.94 53.4l-1.23-.86c1.12-1.61 2.26-3.21 3.42-4.81l1.21.88c-1.15 1.59-2.29 3.18-3.4 4.78Zm60.96-4.08-1.21-.89c1.16-1.57 2.31-3.15 3.46-4.75l1.22.88c-1.15 1.61-2.31 3.19-3.47 4.76Zm6.83-9.61-1.23-.85c1.14-1.66 2.29-3.27 3.42-4.81l1.21.89a186.83 186.83 0 0 0-3.39 4.78Zm6.92-9.45-1.18-.93c1.22-1.56 2.48-3.1 3.72-4.59l1.15.97c-1.24 1.47-2.48 3-3.69 4.54Zm7.42-9.2-1.25-.84c1.21-1.81 1.96-3.46 2.28-5.06l1.47.29c-.36 1.8-1.18 3.63-2.5 5.6Zm-54.16-5.47-1.22-.87c1.24-1.73 2.39-3.29 3.52-4.75l1.19.91c-1.11 1.45-2.25 2.99-3.49 4.71Zm54.53-5.7-.04-.08c-.87-1.82-2-3.17-3.46-4.13l.82-1.25c1.69 1.11 3 2.66 4 4.75l-.64.4-.68.31ZM41.95 6.22l-1.17-.94c.91-1.13 2.19-2.57 4.05-3.62.21-.12.44-.24.67-.35l.65 1.35c-.19.09-.38.19-.57.3-1.64.93-2.8 2.23-3.62 3.26Zm38.78-2.28c-.87-.11-1.81-.18-2.9-.21-1-.1-1.97-.19-2.93-.28l.13-1.49c.97.09 1.94.18 2.9.28 1.08.03 2.08.1 3 .22l-.19 1.49Zm-11.67-.92c-.6-.03-1.21-.07-1.81-.09-1.4-.16-2.74-.31-4.08-.45l.16-1.49c1.35.14 2.7.29 4.05.45.55.02 1.16.05 1.77.09l-.08 1.5Zm-11.74-1.1-1.46-.12c-1.56-.23-2.96-.32-4.32-.28L51.5.02c1.44-.04 2.93.06 4.53.29l1.42.12-.13 1.49Z"/><text class="cls-1" transform="rotate(-52.94 51.76 4.97)"><tspan x="0" y="0">R</tspan></text><text class="cls-1" transform="rotate(-51.27 49.96 -2.227)"><tspan x="0" y="0">A</tspan></text><text class="cls-1" transform="rotate(-53.83 44.265 -9.5)"><tspan x="0" y="0">M</tspan></text></g></svg>