<?xml version="1.0" encoding="UTF-8"?>
<svg id="case-label" xmlns="http://www.w3.org/2000/svg" viewBox="0 0 189.9 240.17">
  <defs>
  </defs>
  <g id="case-label" data-name="case-label">
    <g>
      <path d="M111.17,240.17h-.13c-.77,0-1.56-.04-2.33-.12-.12,0-.34.01-.55.01-.73,0-1.46-.03-2.18-.1l.13-1.39c.88.08,1.77.11,2.65.09.82.08,1.56.11,2.28.11h.13v1.4ZM116.29,239.57l-.32-1.36c1.57-.36,3.1-.91,4.57-1.61l.61,1.26c-1.56.75-3.19,1.33-4.86,1.72ZM100.93,238.89c-1.6-.54-3.17-1.27-4.67-2.18l.72-1.2c1.41.85,2.89,1.54,4.39,2.05l-.45,1.33ZM125.49,235.17l-.78-1.16c.63-.43,1.48-.91,2.15-1.28.43-.24,1.32-.63,2.11-.98l.28-.12.57,1.28-.28.12c-.72.32-1.62.72-2,.92-.64.36-1.46.82-2.05,1.21ZM92.15,233.65c-.29-.25-.57-.52-.85-.79-.99-.86-1.96-1.7-2.91-2.49l.9-1.07c.96.8,1.93,1.64,2.93,2.51.32.31.59.56.86.8l-.93,1.04ZM134.38,230.72l-.66-1.23c1.2-.64,2.29-1.3,3.34-2.01.12-.07.3-.17.67-.36.15-.06.28-.11.42-.16l.48,1.32c-.13.05-.24.09-.32.12-.28.15-.44.23-.51.28-1.04.71-2.18,1.39-3.42,2.06ZM84.47,227.39c-.5-.33-.98-.61-1.42-.85-.26-.14-.51-.27-.77-.4l-.18-.09c-.62-.32-1.27-.66-1.97-1.04l.67-1.23c.69.38,1.33.71,1.91,1.01l.21.11c.26.14.52.27.78.41.48.26,1,.57,1.53.91l-.77,1.17ZM143.36,226.57l-.52-1.3c.67-.27,1.38-.57,2.1-.91l.37-.13c.61-.22,1.34-.47,2.17-.81l.53,1.3c-.85.35-1.6.61-2.21.83l-.33.12c-.69.32-1.41.63-2.11.91ZM152.58,222.39l-.75-1.18c.34-.22.69-.45,1.04-.69.76-.53,2.1-1.15,3.44-1.75l.57,1.28c-1.15.51-2.54,1.15-3.21,1.61-.37.26-.73.5-1.09.73ZM75.8,222.35l-.2-.14c-.73-.35-1.4-.7-2.04-1.08-.7-.4-1.39-.81-2.07-1.22l.72-1.2c.68.41,1.36.81,2.05,1.21.63.36,1.28.71,2,1.05l.35.23-.8,1.15ZM161.47,217.99l-.61-1.26c1.49-.72,2.96-1.5,4.36-2.33l.71,1.21c-1.44.85-2.94,1.65-4.47,2.39ZM67.21,217.27c-1.43-.91-2.83-1.82-4.22-2.72l.77-1.17c1.38.9,2.78,1.81,4.2,2.71l-.75,1.18ZM170.19,212.85l-.81-1.14c1.34-.96,2.65-1.98,3.9-3.04l.91,1.07c-1.28,1.09-2.62,2.14-4,3.12ZM58.8,211.8c-1.33-.88-2.73-1.84-4.15-2.85l.81-1.14c1.41,1,2.79,1.95,4.11,2.82l-.77,1.17ZM177.9,206.27l-1.01-.97c1.13-1.17,2.14-2.45,3.02-3.81l1.18.76c-.92,1.44-2,2.8-3.19,4.03ZM50.59,205.99c-1.39-1.04-2.73-2.05-4-3.03l.85-1.11c1.27.97,2.6,1.98,3.99,3.02l-.84,1.12ZM42.56,200.04c-.73-.51-1.45-1.03-2.15-1.55-.63-.47-1.27-.94-1.91-1.4l.82-1.13c.64.47,1.29.93,1.92,1.41.69.52,1.41,1.03,2.12,1.53l-.81,1.14ZM183.42,197.67l-1.3-.51c.59-1.5,1.04-3.08,1.33-4.68l1.38.26c-.31,1.69-.79,3.36-1.41,4.94ZM34.46,194.1c-1-.77-1.9-1.5-2.75-2.21-.4-.34-.78-.65-1.15-.96l.88-1.09c.38.31.77.63,1.17.97.83.7,1.71,1.41,2.7,2.17l-.85,1.11ZM26.58,188.04c-.52-.33-1.02-.61-1.53-.87-.92-.47-1.81-.97-2.82-1.59l.72-1.2c.98.59,1.85,1.08,2.74,1.54.54.28,1.07.58,1.63.93l-.74,1.19ZM185.44,187.68l-1.4-.1c.04-.55.07-1.06.09-1.52l.04-.6c.06-.96.13-1.94.21-2.89l1.39.11c-.08.94-.15,1.92-.21,2.86l-.03.59c-.03.46-.06.98-.1,1.54ZM17.91,183.03c-1.47-.9-2.85-1.95-4.09-3.12l.96-1.02c1.17,1.11,2.47,2.1,3.86,2.94l-.73,1.2ZM184.67,177.65c-.01-1.2-.09-2.23-.17-3.07v-.07s0-.07,0-.07c.06-.59.09-1.2.1-1.81h1.4c0,.64-.04,1.27-.1,1.88.08.86.16,1.9.17,3.12h-1.4ZM10.48,176c-.97-1.41-1.79-2.93-2.45-4.53l1.29-.53c.62,1.5,1.4,2.94,2.3,4.27l-1.15.79ZM186.2,167.69l-1.4-.08c.04-.79.07-1.58.07-2.35v-2.61s1.4,0,1.4,0v2.62c0,.8-.02,1.62-.07,2.43ZM6.57,166.55c-.24-1.25-.39-2.55-.45-3.84-.02-.43-.03-.85-.04-1.25l1.4-.02c0,.39.02.8.04,1.22.05,1.23.2,2.45.42,3.64l-1.38.26ZM186.26,157.63h-1.4v-1.02c0-1.33,0-2.66,0-3.99h1.4c0,1.34,0,2.67,0,3.99v1.02ZM7.56,156.47l-1.4-.07c.07-1.43.11-3.01.13-4.98h1.4c-.02,2-.06,3.6-.13,5.05ZM186.47,147.64l-1.4-.04c.01-.47.02-.96.02-1.48,0-1.19-.05-2.32-.15-3.44l1.39-.13c.11,1.17.16,2.33.16,3.57,0,.53,0,1.04-.03,1.52ZM7.71,146.42h-1.4c0-1.64.01-3.31.05-5.02l1.4.03c-.03,1.7-.04,3.37-.05,5ZM186.39,137.67l-1.4-.1c.1-1.44.2-3.01.2-4.77v-.19s1.4,0,1.4,0v.18c0,1.81-.1,3.48-.2,4.88ZM185.15,127.62c-.01-.99-.04-2.05-.09-3.15-.03-.58-.04-1.21-.05-1.86h1.4c0,.62.02,1.23.05,1.79.06,1.12.08,2.19.09,3.2l-1.4.02ZM185.06,117.6v-1.26c-.01-.32-.02-.7-.02-1v-.34c.11-.85.21-1.65.3-2.48l1.39.16c-.09.83-.2,1.64-.3,2.42v.24c0,.29,0,.66.01.96v1.29s-1.39,0-1.39,0ZM187.16,107.65l-1.4-.07c.06-1.09.09-2.17.09-3.2,0-.41,0-.82-.01-1.23l.07-.62,1.39.16-.06.52c.01.33.02.75.02,1.17,0,1.05-.03,2.15-.09,3.27ZM187.75,97.65l-1.4-.05c.01-.4.02-.8.02-1.23,0-1.27-.07-2.47-.22-3.66l1.39-.17c.15,1.25.23,2.51.23,3.83,0,.44,0,.87-.02,1.28ZM185.15,87.93c-.06-.19-.12-.38-.18-.58-.44-1.36-1-2.63-1.7-3.9l1.22-.68c.74,1.34,1.33,2.7,1.81,4.14.07.2.13.4.19.6l-1.34.41ZM181.14,78.89c-.67-1.38-1.42-2.83-2.28-4.42l1.23-.67c.87,1.62,1.63,3.08,2.31,4.48l-1.26.61ZM176.32,70.17l-.05-.08c-.27-.42-.6-.94-.78-1.26l-.06-.12c-.37-1.04-.82-2.06-1.34-3.03l1.23-.66c.55,1.01,1.02,2.08,1.4,3.16.18.31.48.78.72,1.16l-1.13.83ZM171.32,61.71c-1.08-1.21-2.29-2.3-3.6-3.22l.8-1.15c1.41.98,2.7,2.14,3.85,3.44l-1.05.93ZM7.48,56.48c0-.18,0-.36,0-.55s0-.37,0-.56c-.02-.57-.03-1.17-.03-1.76v-.27c-.01-.47-.02-.94-.04-1.41l-.02-.46,1.4-.04v.43c.04.48.04.97.05,1.45v.27c.01.59.02,1.18.04,1.78,0,.21,0,.39,0,.56s0,.34,0,.51l-1.4.03ZM163.7,55.48c-1.25-.93-2.58-1.88-4.06-2.89l.79-1.15c1.49,1.03,2.83,1.98,4.1,2.92l-.83,1.12ZM155.5,49.8l-4.17-2.76.77-1.17,4.18,2.77-.78,1.17ZM9.17,46.61l-1.38-.26c.32-1.7.83-3.36,1.5-4.93l1.29.55c-.64,1.47-1.11,3.03-1.41,4.63ZM147.13,44.32c-1.51-.95-2.9-1.79-4.26-2.58l.7-1.21c1.38.79,2.79,1.65,4.31,2.61l-.75,1.18ZM138.54,39.18c-.6-.37-1.23-.75-1.87-1.16l-.64-.4c-.6-.38-1.19-.74-1.75-1.1l.75-1.18c.55.35,1.14.72,1.74,1.09l.64.4c.64.4,1.26.78,1.86,1.15l-.73,1.2ZM12.99,37.78l-1.12-.83c.56-.76,1.18-1.5,1.84-2.18.2-.29.42-.6.66-.92.21-.28.42-.55.64-.82l1.09.88c-.21.26-.41.52-.61.79-.25.33-.46.64-.66.92l-.07.09c-.63.65-1.23,1.36-1.77,2.09ZM130.14,33.67c-1.55-1.06-3.05-2-4.18-2.7l.74-1.19c1.14.71,2.66,1.66,4.23,2.73l-.79,1.16ZM19.48,30.39l-.91-1.06c1.29-1.11,2.7-2.11,4.19-2.97l.7,1.21c-1.41.82-2.75,1.76-3.97,2.82ZM121.71,28.35c-1-.6-1.88-1.04-2.58-1.41l-.51-.26c-.46-.28-.87-.53-1.27-.78l.71-1.21c.42.25.84.5,1.26.77l.4.2c.73.37,1.66.85,2.7,1.47l-.71,1.2ZM27.91,25.43l-.59-1.27c1.37-.64,1.87-.97,2.05-1.11.65-.53,1.34-1.04,2.04-1.53l.8,1.15c-.68.47-1.34.96-1.96,1.47-.41.33-1.17.75-2.34,1.29ZM112.98,23.54c-.85-.42-1.66-.82-2.45-1.21l-.13-.06c-.66-.32-1.31-.64-1.91-.94l.63-1.25c.6.3,1.24.61,1.9.93l-.18.69.31-.63c.79.38,1.62.79,2.47,1.21l-.63,1.25ZM36.43,20.13l-.65-1.24c1.44-.75,2.96-1.44,4.62-2.1l.52,1.3c-1.62.64-3.09,1.31-4.49,2.04ZM104.07,18.88c-1.35-.79-2.77-1.63-4.31-2.57l.72-1.2c1.54.93,2.95,1.77,4.29,2.55l-.71,1.21ZM45.48,15.8l-.72-1.2c1.37-.83,2.83-1.62,4.47-2.41l.61,1.26c-1.59.77-3.02,1.54-4.35,2.34ZM95.5,13.61c-1.23-.83-2.59-1.73-4.19-2.62l.68-1.22c1.65.92,3.04,1.83,4.3,2.69l-.79,1.16ZM54.37,11.39l-.57-1.28c.61-.27,1.18-.53,1.67-.77.72-.35,1.43-.68,2.15-.99l.18-.08c.16-.07.32-.14.48-.22l.71,1.21-.09.05c-.18.09-.36.17-.54.24l-.17.08c-.7.31-1.4.63-2.1.97-.5.25-1.09.52-1.72.8ZM86.89,8.57c-1.4-.87-2.86-1.6-4.36-2.16l.49-1.31c1.58.59,3.13,1.36,4.6,2.28l-.74,1.19ZM63.45,7.38l-.43-1.33c1.33-.43,2.48-.7,3.31-.9.54-.19,1.01-.36,1.49-.51l.42,1.34c-.45.14-.89.3-1.33.47l-.1.03-.32-.64.16.68c-.82.2-1.93.46-3.21.87ZM77.84,5.2c-1.03-.15-2.08-.22-3.12-.22-.57.02-1.15.02-1.72.07l-.11-1.4c.61-.05,1.21-.08,1.83-.07,1.1,0,2.22.08,3.32.24l-.2,1.38Z"/>
      <text class="cls-1" transform="translate(9.92 136.57) rotate(-88.72)"><tspan x="0" y="0">C</tspan></text>
      <text class="cls-1" transform="translate(10.09 129.06) rotate(-90.23)"><tspan x="0" y="0">o</tspan></text>
      <text class="cls-1" transform="translate(10.05 122.61) rotate(-91.39)"><tspan x="0" y="0">m</tspan></text>
      <text class="cls-1" transform="translate(9.75 113.95) rotate(-90.56)"><tspan x="0" y="0">p</tspan></text>
      <text class="cls-1" transform="translate(9.88 107.56) rotate(-89.14)"><tspan x="0" y="0">u</tspan></text>
      <text class="cls-1" transform="translate(9.87 101.72) rotate(-88.35)"><tspan x="0" y="0">t</tspan></text>
      <text class="cls-1" transform="translate(10.05 98.73) rotate(-89.1)"><tspan x="0" y="0">e</tspan></text>
      <text class="cls-1" transform="translate(10.17 92.82) rotate(-89.77)"><tspan x="0" y="0">r</tspan></text>
      <text class="cls-1" transform="translate(10.12 88.86) rotate(-90.21)"><tspan x="0" y="0"> </tspan></text>
      <text class="cls-1" transform="translate(10.03 85.61) rotate(-89.74)"><tspan x="0" y="0">C</tspan></text>
      <text class="cls-1" transform="translate(10.05 78.13) rotate(-87.14)"><tspan x="0" y="0">a</tspan></text>
      <text class="cls-1" transform="translate(10.38 71.76) rotate(-83.89)"><tspan x="0" y="0">s</tspan></text>
      <text class="cls-1" transform="translate(11.04 67.39) rotate(-84.47)"><tspan x="0" y="0">e</tspan></text>
    </g>
  </g>
</svg>