<svg id="Layer_2" data-name="Layer 2" xmlns="http://www.w3.org/2000/svg" viewBox="0 0 83.88 87.81"><defs><style>.cls-1{stroke-width:0}</style></defs><g id="Layer_2-2" data-name="Layer 2"><path class="cls-1" d="M67.96 54.49c-.47.67-.32 1.16-.32 1.61 0 1.56.04 3.12.05 4.68.01.57.01 1.14.02 1.72.03.75-.07 1.11-.53 1.56l-.2.17c-.09-.24-.23-.45-.24-.66-.11-1.6-.23-3.2-.27-4.8-.04-1.23.05-2.46.04-3.69 0-.85.01-1.7 0-2.54h-.37c0 .85-.22 1.71-.64 2.52-.32 2.9-.05 5.8.22 8.69.02.2.04.41.04.61 0 .08-.06.15-.19.44-1.56-.27-3.18-.77-4.46.59-.15-.08-.28-.11-.28-.15-.16-1.55-.42-3.1-.44-4.65 0-.36 0-.72.01-1.08-.3.2-.6.39-.9.6.03 1.13.07 2.25.11 3.37.01.29.02.58.06.86.14 1.18-.19 2.02-1.16 2.88-1.77 1.58-3.35 3.39-4.91 5.19a5.793 5.793 0 0 1-1.67 1.35c-.41.21-.87.4-1.41.56.1-1.65-.38-3.09-.06-4.63.21-1.06.13-2.19-.23-3.45-.02-.1-.05-.2-.08-.3-.06.15-.12.29-.16.44-.42 1.27-.29 2.48-.42 3.64-.15 1.34-.03 2.71-.03 4.06-.09.02-.17.04-.25.06-.08-.18-.23-.35-.24-.54-.14-2.18-.29-4.37-.27-6.57-.38.19-.76.36-1.14.52 0 1.2.05 2.41.09 3.61.04 1.17.13 2.35.2 3.68-.47-.21-.81-.33-1.11-.52-.58-.35-1.16-.61-1.87-.42-.57.15-.85-.15-.9-.71-.03-.41-.07-.82-.1-1.23-.08-1.1-.18-2.2-.26-3.3-.11-1.32-.21-2.63-.26-3.96-.01-.2-.02-.4-.02-.61-.5-.02-1.01-.23-1.52-.47-.45-.21-.9-.41-1.35-.62-.05 1.78-.1 3.56-.12 5.35-.01.15-.01.31-.01.46-.02 1.02.12 2.05.16 3.08 0 .28.04.61-.09.84a.95.95 0 0 1-.63.44c-.16.01-.42-.23-.52-.42-.11-.2-.08-.48-.09-.72-.06-1.06-.1-2.13-.19-3.19-.01-.2-.22-.39-.59-.56-.03.37-.1.75-.1 1.13-.01 1.15.01 2.3 0 3.45-.01.58-.21 1.02-.84 1.21-.34.11-.65.35-.96.55-1.35.84-2.64.7-3.93-.16-.64-.43-1.33-.79-2.03-1.13-1.11-.54-1.21-.69-1.13-1.98.08-1.3.14-2.61.19-3.93.01-.21-.11-.42-.16-.64h-.26c-.05.28-.12.57-.15.85-.11 1.27-.2 2.53-.35 3.79-.02.18-.29.47-.44.46-.4 0-.33-.33-.31-.64.09-1.39.14-2.78.21-4.17.03-.57.07-1.14.12-1.71.03-.24.1-.48.11-.73.03-.77.07-1.53.1-2.3-.31-.19-.62-.38-.93-.58-.19 2.31-.36 4.62-.39 6.95-1.02-.76-1.92-1.44-2.84-2.1-1.82-1.29-3.89-1.93-6.08-2.19-.29-.03-.6-.09-.86-.01-.67.18-1.29.07-1.9-.11.74.54 1.49 1.06 2.25 1.57.17-.01.35-.02.52-.01 1.61.05 3.03.7 4.31 1.65.66.49 1.29 1.02 1.94 1.53.58.45.94 1.04 1.06 1.76.01.06.02.11.04.17.32 1.53 1.37 2.38 2.73 3.06 1.1.54 2.18 1.19 3.14 1.94 1.3 1 2.61 1.37 4.04.83.21-.07.42-.17.64-.29 1.12-.61 2.26-1.19 3.39-1.76.14-.07.31-.08.63-.15.06.49.16.91.17 1.33.03.75.05 1.49.07 2.24.05 1.35.08 2.71.13 4.06.03 1.09.55 1.7 1.4 1.67.88-.03 1.83-.92 1.85-1.82.03-1.42 0-2.85.01-4.28v-.3c0-.64.04-1.29.06-1.97 1.06-.05 1.82.38 2.5.89.15.11.3.22.46.31.67.39 1.38.53 2.19.26.74-.24 1.46-.54 2.19-.82.23-.1.42-.31.65-.35.47-.08.88-.23 1.26-.44.14-.08.28-.16.41-.25.92-.62 1.61-1.54 2.39-2.36.4-.42.79-.84 1.18-1.27 1.56-1.68 3.13-3.38 5.02-4.73.71-.52 1.4-.82 2.29-.54.1.03.19.06.29.08.67-.56 1.32-1.14 1.95-1.72.17-.16.35-.32.52-.49.48-.46.96-.92 1.44-1.39-.1-2.71-.02-5.38-.68-8.21Zm-40.8.99c-.26-.16-.52-.32-.78-.47 0 .46 0 .93-.02 1.39-.02.7-.12 1.39-.19 2.08-.07.75-.13 1.5-.2 2.25-.14 1.55-.28 3.09-.41 4.63-.03.37-.1.8.42.89.44.07.69-.21.81-.6.08-.28.15-.56.17-.85a66.936 66.936 0 0 0 .2-9.32Zm-16.29.58c-.04-3.75-.14-7.49-.22-11.24 0-.19.02-.38.03-.63-.2.12-.39.23-.59.35-.49.29-.94.61-1.35.94-.13 3.12-.27 6.25-.34 9.37-.01.75-.39 1.06-.93 1.36.21.32.43.63.65.94.66.93 1.37 1.84 2.13 2.69 0-.02 0-.04.02-.05.66-1.17.62-2.47.6-3.73Zm49.25-2c-.07-.37-.11-.75-.15-1.13-.55-.28-.63-.16-.68.53v.06c.05 2.2.12 4.4.2 6.59.3-.21.6-.4.9-.6.01-1.82.08-3.64-.27-5.45Zm-11.24 7.01c-.3.25-.59.51-.9.72-.1 1.57-.27 3.13-.33 4.69-.01.36-.02.71-.02 1.07.38-.16.76-.33 1.14-.52 0-1.06.05-2.12.15-3.18.09-.92-.02-1.85-.04-2.78Zm-12.22-.14c-.06 1.63-.19 3.26-.26 4.9-.02.42.05.86.14 1.28l.03.18c.03.16.27.4.38.38.14-.02.29-.1.4-.21h.01c.06-.05.1-.1.14-.15.11-.15.11-.39.11-.6.04-1.72.08-3.43.08-5.16-.34-.2-.68-.41-1.03-.62Zm-8.42-4.81c-.09-.05-.18-.11-.27-.16-.08 1.94-.23 3.86-.38 5.79.31.2.62.39.93.58.08-1.82.16-3.65.22-5.47.01-.15.01-.29.01-.44l-.51-.3Zm21.9 9.82c-.06.15-.12.29-.16.44.08-.04.16-.08.24-.14-.02-.1-.05-.2-.08-.3Zm17.82-11.45c-.47.67-.32 1.16-.32 1.61 0 1.56.04 3.12.05 4.68.01.57.01 1.14.02 1.72.03.75-.07 1.11-.53 1.56l.02.03c.48-.46.96-.92 1.44-1.39-.1-2.71-.02-5.38-.68-8.21Zm-2.47.57c.42-.81.64-1.67.64-2.52s-.2-1.64-.59-2.41h-.01c.06.55.18 1.1.18 1.65-.01.91-.02 1.82-.15 2.72-.03.19-.05.37-.07.56Zm2.47-.57c-.47.67-.32 1.16-.32 1.61 0 1.56.04 3.12.05 4.68.01.57.01 1.14.02 1.72.03.75-.07 1.11-.53 1.56l-.2.17c-.09-.24-.23-.45-.24-.66-.11-1.6-.23-3.2-.27-4.8-.04-1.23.05-2.46.04-3.69 0-.85.01-1.7 0-2.54h-.37c0 .85-.22 1.71-.64 2.52-.32 2.9-.05 5.8.22 8.69.02.2.04.41.04.61 0 .08-.06.15-.19.44-1.56-.27-3.18-.77-4.46.59-.15-.08-.28-.11-.28-.15-.16-1.55-.42-3.1-.44-4.65 0-.36 0-.72.01-1.08-.3.2-.6.39-.9.6.03 1.13.07 2.25.11 3.37.01.29.02.58.06.86.14 1.18-.19 2.02-1.16 2.88-1.77 1.58-3.35 3.39-4.91 5.19a5.793 5.793 0 0 1-1.67 1.35c-.41.21-.87.4-1.41.56.1-1.65-.38-3.09-.06-4.63.21-1.06.13-2.19-.23-3.45-.08.06-.16.1-.24.14-.42 1.27-.29 2.48-.42 3.64-.15 1.34-.03 2.71-.03 4.06-.09.02-.17.04-.25.06-.08-.18-.23-.35-.24-.54-.14-2.18-.29-4.37-.27-6.57-.38.19-.76.36-1.14.52 0 1.2.05 2.41.09 3.61.04 1.17.13 2.35.2 3.68-.47-.21-.81-.33-1.11-.52-.58-.35-1.16-.61-1.87-.42-.57.15-.85-.15-.9-.71-.03-.41-.07-.82-.1-1.23-.08-1.1-.18-2.2-.26-3.3-.11-1.32-.21-2.63-.26-3.96-.01-.2-.02-.4-.02-.61-.5-.02-1.01-.23-1.52-.47-.45-.21-.9-.41-1.35-.62-.05 1.78-.1 3.56-.12 5.35-.01.15-.01.31-.01.46-.02 1.02.12 2.05.16 3.08 0 .28.04.61-.09.84a.95.95 0 0 1-.63.44c-.16.01-.42-.23-.52-.42-.11-.2-.08-.48-.09-.72-.06-1.06-.1-2.13-.19-3.19-.01-.2-.22-.39-.59-.56-.03.37-.1.75-.1 1.13-.01 1.15.01 2.3 0 3.45-.01.58-.21 1.02-.84 1.21-.34.11-.65.35-.96.55-1.35.84-2.64.7-3.93-.16-.64-.43-1.33-.79-2.03-1.13-1.11-.54-1.21-.69-1.13-1.98.08-1.3.14-2.61.19-3.93.01-.21-.11-.42-.16-.64h-.26c-.05.28-.12.57-.15.85-.11 1.27-.2 2.53-.35 3.79-.02.18-.29.47-.44.46-.4 0-.33-.33-.31-.64.09-1.39.14-2.78.21-4.17.03-.57.07-1.14.12-1.71.03-.24.1-.48.11-.73.03-.77.07-1.53.1-2.3-.31-.19-.62-.38-.93-.58-.19 2.31-.36 4.62-.39 6.95-1.02-.76-1.92-1.44-2.84-2.1-1.82-1.29-3.89-1.93-6.08-2.19-.29-.03-.6-.09-.86-.01-.67.18-1.29.07-1.9-.11.74.54 1.49 1.06 2.25 1.57.17-.01.35-.02.52-.01 1.61.05 3.03.7 4.31 1.65.66.49 1.29 1.02 1.94 1.53.58.45.94 1.04 1.06 1.76.01.06.02.11.04.17.32 1.53 1.37 2.38 2.73 3.06 1.1.54 2.18 1.19 3.14 1.94 1.3 1 2.61 1.37 4.04.83.21-.07.42-.17.64-.29 1.12-.61 2.26-1.19 3.39-1.76.14-.07.31-.08.63-.15.06.49.16.91.17 1.33.03.75.05 1.49.07 2.24.05 1.35.08 2.71.13 4.06.03 1.09.55 1.7 1.4 1.67.88-.03 1.83-.92 1.85-1.82.03-1.42 0-2.85.01-4.28v-.3c0-.64.04-1.29.06-1.97 1.06-.05 1.82.38 2.5.89.15.11.3.22.46.31.67.39 1.38.53 2.19.26.74-.24 1.46-.54 2.19-.82.23-.1.42-.31.65-.35.47-.08.88-.23 1.26-.44.14-.08.28-.16.41-.25.92-.62 1.61-1.54 2.39-2.36.4-.42.79-.84 1.18-1.27 1.56-1.68 3.13-3.38 5.02-4.73.71-.52 1.4-.82 2.29-.54.1.03.19.06.29.08.67-.56 1.32-1.14 1.95-1.72.17-.16.35-.32.52-.49.48-.46.96-.92 1.44-1.39-.1-2.71-.02-5.38-.68-8.21Zm-40.8.99c-.26-.16-.52-.32-.78-.47 0 .46 0 .93-.02 1.39-.02.7-.12 1.39-.19 2.08-.07.75-.13 1.5-.2 2.25-.14 1.55-.28 3.09-.41 4.63-.03.37-.1.8.42.89.44.07.69-.21.81-.6.08-.28.15-.56.17-.85a66.936 66.936 0 0 0 .2-9.32Zm-16.29.58c-.04-3.75-.14-7.49-.22-11.24 0-.19.02-.38.03-.63-.2.12-.39.23-.59.35-.49.29-.94.61-1.35.94-.13 3.12-.27 6.25-.34 9.37-.01.75-.39 1.06-.93 1.36.21.32.43.63.65.94.66.93 1.37 1.84 2.13 2.69 0-.02 0-.04.02-.05.66-1.17.62-2.47.6-3.73Zm38.01 5.01c-.3.25-.59.51-.9.72-.1 1.57-.27 3.13-.33 4.69-.01.36-.02.71-.02 1.07.38-.16.76-.33 1.14-.52 0-1.06.05-2.12.15-3.18.09-.92-.02-1.85-.04-2.78Zm-12.22-.14c-.06 1.63-.19 3.26-.26 4.9-.02.42.05.86.14 1.28l.03.18c.03.16.27.4.38.38.14-.02.29-.1.4-.21h.01c.06-.05.1-.1.14-.15.11-.15.11-.39.11-.6.04-1.72.08-3.43.08-5.16-.34-.2-.68-.41-1.03-.62Zm-8.42-4.81c-.09-.05-.18-.11-.27-.16-.08 1.94-.23 3.86-.38 5.79.31.2.62.39.93.58.08-1.82.16-3.65.22-5.47.01-.15.01-.29.01-.44l-.51-.3Zm31.88-2.06c-.07-.37-.11-.75-.15-1.13-.55-.28-.63-.16-.68.53v.06c.05 2.2.12 4.4.2 6.59.3-.21.6-.4.9-.6.01-1.82.08-3.64-.27-5.45Zm-9.98 11.88c-.06.15-.12.29-.16.44.08-.04.16-.08.24-.14-.02-.1-.05-.2-.08-.3Zm17.82-11.45c-.47.67-.32 1.16-.32 1.61 0 1.56.04 3.12.05 4.68.01.57.01 1.14.02 1.72.03.75-.07 1.11-.53 1.56l.02.03c.48-.46.96-.92 1.44-1.39-.1-2.71-.02-5.38-.68-8.21Zm-2.47.57c.42-.81.64-1.67.64-2.52s-.2-1.64-.59-2.41h-.01c.06.55.18 1.1.18 1.65-.01.91-.02 1.82-.15 2.72-.03.19-.05.37-.07.56Zm2.47-.57c-.47.67-.32 1.16-.32 1.61 0 1.56.04 3.12.05 4.68.01.57.01 1.14.02 1.72.03.75-.07 1.11-.53 1.56l-.2.17c-.09-.24-.23-.45-.24-.66-.11-1.6-.23-3.2-.27-4.8-.04-1.23.05-2.46.04-3.69 0-.85.01-1.7 0-2.54h-.37c0 .85-.22 1.71-.64 2.52-.32 2.9-.05 5.8.22 8.69.02.2.04.41.04.61 0 .08-.06.15-.19.44-1.56-.27-3.18-.77-4.46.59-.15-.08-.28-.11-.28-.15-.16-1.55-.42-3.1-.44-4.65 0-.36 0-.72.01-1.08-.3.2-.6.39-.9.6.03 1.13.07 2.25.11 3.37.01.29.02.58.06.86.14 1.18-.19 2.02-1.16 2.88-1.77 1.58-3.35 3.39-4.91 5.19a5.793 5.793 0 0 1-1.67 1.35c-.41.21-.87.4-1.41.56.1-1.65-.38-3.09-.06-4.63.21-1.06.13-2.19-.23-3.45-.08.06-.16.1-.24.14-.42 1.27-.29 2.48-.42 3.64-.15 1.34-.03 2.71-.03 4.06-.09.02-.17.04-.25.06-.08-.18-.23-.35-.24-.54-.14-2.18-.29-4.37-.27-6.57-.38.19-.76.36-1.14.52 0 1.2.05 2.41.09 3.61.04 1.17.13 2.35.2 3.68-.47-.21-.81-.33-1.11-.52-.58-.35-1.16-.61-1.87-.42-.57.15-.85-.15-.9-.71-.03-.41-.07-.82-.1-1.23-.08-1.1-.18-2.2-.26-3.3-.11-1.32-.21-2.63-.26-3.96-.01-.2-.02-.4-.02-.61-.5-.02-1.01-.23-1.52-.47-.45-.21-.9-.41-1.35-.62-.05 1.78-.1 3.56-.12 5.35-.01.15-.01.31-.01.46-.02 1.02.12 2.05.16 3.08 0 .28.04.61-.09.84a.95.95 0 0 1-.63.44c-.16.01-.42-.23-.52-.42-.11-.2-.08-.48-.09-.72-.06-1.06-.1-2.13-.19-3.19-.01-.2-.22-.39-.59-.56-.03.37-.1.75-.1 1.13-.01 1.15.01 2.3 0 3.45-.01.58-.21 1.02-.84 1.21-.34.11-.65.35-.96.55-1.35.84-2.64.7-3.93-.16-.64-.43-1.33-.79-2.03-1.13-1.11-.54-1.21-.69-1.13-1.98.08-1.3.14-2.61.19-3.93.01-.21-.11-.42-.16-.64h-.26c-.05.28-.12.57-.15.85-.11 1.27-.2 2.53-.35 3.79-.02.18-.29.47-.44.46-.4 0-.33-.33-.31-.64.09-1.39.14-2.78.21-4.17.03-.57.07-1.14.12-1.71.03-.24.1-.48.11-.73.03-.77.07-1.53.1-2.3-.31-.19-.62-.38-.93-.58-.19 2.31-.36 4.62-.39 6.95-1.02-.76-1.92-1.44-2.84-2.1-1.82-1.29-3.89-1.93-6.08-2.19-.29-.03-.6-.09-.86-.01-.67.18-1.29.07-1.9-.11.74.54 1.49 1.06 2.25 1.57.17-.01.35-.02.52-.01 1.61.05 3.03.7 4.31 1.65.66.49 1.29 1.02 1.94 1.53.58.45.94 1.04 1.06 1.76.01.06.02.11.04.17.32 1.53 1.37 2.38 2.73 3.06 1.1.54 2.18 1.19 3.14 1.94 1.3 1 2.61 1.37 4.04.83.21-.07.42-.17.64-.29 1.12-.61 2.26-1.19 3.39-1.76.14-.07.31-.08.63-.15.06.49.16.91.17 1.33.03.75.05 1.49.07 2.24.05 1.35.08 2.71.13 4.06.03 1.09.55 1.7 1.4 1.67.88-.03 1.83-.92 1.85-1.82.03-1.42 0-2.85.01-4.28v-.3c0-.64.04-1.29.06-1.97 1.06-.05 1.82.38 2.5.89.15.11.3.22.46.31.67.39 1.38.53 2.19.26.74-.24 1.46-.54 2.19-.82.23-.1.42-.31.65-.35.47-.08.88-.23 1.26-.44.14-.08.28-.16.41-.25.92-.62 1.61-1.54 2.39-2.36.4-.42.79-.84 1.18-1.27 1.56-1.68 3.13-3.38 5.02-4.73.71-.52 1.4-.82 2.29-.54.1.03.19.06.29.08.67-.56 1.32-1.14 1.95-1.72.17-.16.35-.32.52-.49.48-.46.96-.92 1.44-1.39-.1-2.71-.02-5.38-.68-8.21Zm-40.8.99c-.26-.16-.52-.32-.78-.47 0 .46 0 .93-.02 1.39-.02.7-.12 1.39-.19 2.08-.07.75-.13 1.5-.2 2.25-.14 1.55-.28 3.09-.41 4.63-.03.37-.1.8.42.89.44.07.69-.21.81-.6.08-.28.15-.56.17-.85a66.936 66.936 0 0 0 .2-9.32Zm-16.29.58c-.04-3.75-.14-7.49-.22-11.24 0-.19.02-.38.03-.63-.2.12-.39.23-.59.35-.49.29-.94.61-1.35.94-.13 3.12-.27 6.25-.34 9.37-.01.75-.39 1.06-.93 1.36.21.32.43.63.65.94.66.93 1.37 1.84 2.13 2.69 0-.02 0-.04.02-.05.66-1.17.62-2.47.6-3.73Zm38.01 5.01c-.3.25-.59.51-.9.72-.1 1.57-.27 3.13-.33 4.69-.01.36-.02.71-.02 1.07.38-.16.76-.33 1.14-.52 0-1.06.05-2.12.15-3.18.09-.92-.02-1.85-.04-2.78Zm-12.22-.14c-.06 1.63-.19 3.26-.26 4.9-.02.42.05.86.14 1.28.26.13.54.24.81.35h.01c.06-.05.1-.1.14-.15.11-.15.11-.39.11-.6.04-1.72.08-3.43.08-5.16-.34-.2-.68-.41-1.03-.62Zm0 0c-.06 1.63-.19 3.26-.26 4.9-.02.42.05.86.14 1.28l.03.18c.03.16.27.4.38.38.14-.02.29-.1.4-.21h.01c.06-.05.1-.1.14-.15.11-.15.11-.39.11-.6.04-1.72.08-3.43.08-5.16-.34-.2-.68-.41-1.03-.62Zm-8.42-4.81c-.09-.05-.18-.11-.27-.16-.08 1.94-.23 3.86-.38 5.79.31.2.62.39.93.58.08-1.82.16-3.65.22-5.47.01-.15.01-.29.01-.44l-.51-.3Zm31.88-2.06c-.07-.37-.11-.75-.15-1.13-.55-.28-.63-.16-.68.53v.06c.05 2.2.12 4.4.2 6.59.3-.21.6-.4.9-.6.01-1.82.08-3.64-.27-5.45Zm-9.98 11.88c-.06.15-.12.29-.16.44.08-.04.16-.08.24-.14-.02-.1-.05-.2-.08-.3Zm17.82-11.45c-.47.67-.32 1.16-.32 1.61 0 1.56.04 3.12.05 4.68.01.57.01 1.14.02 1.72.03.75-.07 1.11-.53 1.56l.02.03c.48-.46.96-.92 1.44-1.39-.1-2.71-.02-5.38-.68-8.21Zm-2.47.57c.42-.81.64-1.67.64-2.52s-.2-1.64-.59-2.41h-.01c.06.55.18 1.1.18 1.65-.01.91-.02 1.82-.15 2.72-.03.19-.05.37-.07.56Zm2.47-.57c-.47.67-.32 1.16-.32 1.61 0 1.56.04 3.12.05 4.68.01.57.01 1.14.02 1.72.03.75-.07 1.11-.53 1.56l-.2.17c-.09-.24-.23-.45-.24-.66-.11-1.6-.23-3.2-.27-4.8-.04-1.23.05-2.46.04-3.69 0-.85.01-1.7 0-2.54h-.37c0 .85-.22 1.71-.64 2.52-.32 2.9-.05 5.8.22 8.69.02.2.04.41.04.61 0 .08-.06.15-.19.44-1.56-.27-3.18-.77-4.46.59-.15-.08-.28-.11-.28-.15-.16-1.55-.42-3.1-.44-4.65 0-.36 0-.72.01-1.08-.3.2-.6.39-.9.6.03 1.13.07 2.25.11 3.37.01.29.02.58.06.86.14 1.18-.19 2.02-1.16 2.88-1.77 1.58-3.35 3.39-4.91 5.19a5.793 5.793 0 0 1-1.67 1.35c-.41.21-.87.4-1.41.56.1-1.65-.38-3.09-.06-4.63.21-1.06.13-2.19-.23-3.45-.08.06-.16.1-.24.14-.42 1.27-.29 2.48-.42 3.64-.15 1.34-.03 2.71-.03 4.06-.09.02-.17.04-.25.06-.08-.18-.23-.35-.24-.54-.14-2.18-.29-4.37-.27-6.57-.38.19-.76.36-1.14.52 0 1.2.05 2.41.09 3.61.04 1.17.13 2.35.2 3.68-.47-.21-.81-.33-1.11-.52-.58-.35-1.16-.61-1.87-.42-.57.15-.85-.15-.9-.71-.03-.41-.07-.82-.1-1.23-.08-1.1-.18-2.2-.26-3.3-.11-1.32-.21-2.63-.26-3.96-.01-.2-.02-.4-.02-.61-.5-.02-1.01-.23-1.52-.47-.45-.21-.9-.41-1.35-.62-.05 1.78-.1 3.56-.12 5.35-.01.15-.01.31-.01.46-.02 1.02.12 2.05.16 3.08 0 .28.04.61-.09.84a.95.95 0 0 1-.63.44c-.16.01-.42-.23-.52-.42-.11-.2-.08-.48-.09-.72-.06-1.06-.1-2.13-.19-3.19-.01-.2-.22-.39-.59-.56-.03.37-.1.75-.1 1.13-.01 1.15.01 2.3 0 3.45-.01.58-.21 1.02-.84 1.21-.34.11-.65.35-.96.55-1.35.84-2.64.7-3.93-.16-.64-.43-1.33-.79-2.03-1.13-1.11-.54-1.21-.69-1.13-1.98.08-1.3.14-2.61.19-3.93.01-.21-.11-.42-.16-.64h-.26c-.05.28-.12.57-.15.85-.11 1.27-.2 2.53-.35 3.79-.02.18-.29.47-.44.46-.4 0-.33-.33-.31-.64.09-1.39.14-2.78.21-4.17.03-.57.07-1.14.12-1.71.03-.24.1-.48.11-.73.03-.77.07-1.53.1-2.3-.31-.19-.62-.38-.93-.58-.19 2.31-.36 4.62-.39 6.95-1.02-.76-1.92-1.44-2.84-2.1-1.82-1.29-3.89-1.93-6.08-2.19-.29-.03-.6-.09-.86-.01-.67.18-1.29.07-1.9-.11.74.54 1.49 1.06 2.25 1.57.17-.01.35-.02.52-.01 1.61.05 3.03.7 4.31 1.65.66.49 1.29 1.02 1.94 1.53.58.45.94 1.04 1.06 1.76.01.06.02.11.04.17.32 1.53 1.37 2.38 2.73 3.06 1.1.54 2.18 1.19 3.14 1.94 1.3 1 2.61 1.37 4.04.83.21-.07.42-.17.64-.29 1.12-.61 2.26-1.19 3.39-1.76.14-.07.31-.08.63-.15.06.49.16.91.17 1.33.03.75.05 1.49.07 2.24.05 1.35.08 2.71.13 4.06.03 1.09.55 1.7 1.4 1.67.88-.03 1.83-.92 1.85-1.82.03-1.42 0-2.85.01-4.28v-.3c0-.64.04-1.29.06-1.97 1.06-.05 1.82.38 2.5.89.15.11.3.22.46.31.67.39 1.38.53 2.19.26.74-.24 1.46-.54 2.19-.82.23-.1.42-.31.65-.35.47-.08.88-.23 1.26-.44.14-.08.28-.16.41-.25.92-.62 1.61-1.54 2.39-2.36.4-.42.79-.84 1.18-1.27 1.56-1.68 3.13-3.38 5.02-4.73.71-.52 1.4-.82 2.29-.54.1.03.19.06.29.08.67-.56 1.32-1.14 1.95-1.72.17-.16.35-.32.52-.49.48-.46.96-.92 1.44-1.39-.1-2.71-.02-5.38-.68-8.21Zm-40.8.99c-.26-.16-.52-.32-.78-.47 0 .46 0 .93-.02 1.39-.02.7-.12 1.39-.19 2.08-.07.75-.13 1.5-.2 2.25-.14 1.55-.28 3.09-.41 4.63-.03.37-.1.8.42.89.44.07.69-.21.81-.6.08-.28.15-.56.17-.85a66.936 66.936 0 0 0 .2-9.32Zm-16.29.58c-.04-3.75-.14-7.49-.22-11.24 0-.19.02-.38.03-.63-.2.12-.39.23-.59.35-.49.29-.94.61-1.35.94-.13 3.12-.27 6.25-.34 9.37-.01.75-.39 1.06-.93 1.36.21.32.43.63.65.94.66.93 1.37 1.84 2.13 2.69 0-.02 0-.04.02-.05.66-1.17.62-2.47.6-3.73Zm38.01 5.01c-.3.25-.59.51-.9.72-.1 1.57-.27 3.13-.33 4.69-.01.36-.02.71-.02 1.07.38-.16.76-.33 1.14-.52 0-1.06.05-2.12.15-3.18.09-.92-.02-1.85-.04-2.78Zm-12.22-.14c-.06 1.63-.19 3.26-.26 4.9-.02.42.05.86.14 1.28.26.13.54.24.81.35h.01c.06-.05.1-.1.14-.15.11-.15.11-.39.11-.6.04-1.72.08-3.43.08-5.16-.34-.2-.68-.41-1.03-.62Zm0 0c-.06 1.63-.19 3.26-.26 4.9-.02.42.05.86.14 1.28l.03.18c.03.16.27.4.38.38.14-.02.29-.1.4-.21h.01c.06-.05.1-.1.14-.15.11-.15.11-.39.11-.6.04-1.72.08-3.43.08-5.16-.34-.2-.68-.41-1.03-.62Zm-8.42-4.81c-.09-.05-.18-.11-.27-.16-.08 1.94-.23 3.86-.38 5.79.31.2.62.39.93.58.08-1.82.16-3.65.22-5.47.01-.15.01-.29.01-.44l-.51-.3Zm31.88-2.06c-.07-.37-.11-.75-.15-1.13-.55-.28-.63-.16-.68.53v.06c.05 2.2.12 4.4.2 6.59.3-.21.6-.4.9-.6.01-1.82.08-3.64-.27-5.45Zm-9.98 11.88c-.06.15-.12.29-.16.44.08-.04.16-.08.24-.14-.02-.1-.05-.2-.08-.3Zm17.82-11.45c-.47.67-.32 1.16-.32 1.61 0 1.56.04 3.12.05 4.68.01.57.01 1.14.02 1.72.03.75-.07 1.11-.53 1.56l.02.03c.48-.46.96-.92 1.44-1.39-.1-2.71-.02-5.38-.68-8.21Zm-2.47.57c.42-.81.64-1.67.64-2.52s-.2-1.64-.59-2.41h-.01c.06.55.18 1.1.18 1.65-.01.91-.02 1.82-.15 2.72-.03.19-.05.37-.07.56Zm2.47-.57c-.47.67-.32 1.16-.32 1.61 0 1.56.04 3.12.05 4.68.01.57.01 1.14.02 1.72.03.75-.07 1.11-.53 1.56l-.2.17c-.09-.24-.23-.45-.24-.66-.11-1.6-.23-3.2-.27-4.8-.04-1.23.05-2.46.04-3.69 0-.85.01-1.7 0-2.54h-.37c0 .85-.22 1.71-.64 2.52-.32 2.9-.05 5.8.22 8.69.02.2.04.41.04.61 0 .08-.06.15-.19.44-1.56-.27-3.18-.77-4.46.59-.15-.08-.28-.11-.28-.15-.16-1.55-.42-3.1-.44-4.65 0-.36 0-.72.01-1.08-.3.2-.6.39-.9.6.03 1.13.07 2.25.11 3.37.01.29.02.58.06.86.14 1.18-.19 2.02-1.16 2.88-1.77 1.58-3.35 3.39-4.91 5.19a5.793 5.793 0 0 1-1.67 1.35c-.41.21-.87.4-1.41.56.1-1.65-.38-3.09-.06-4.63.21-1.06.13-2.19-.23-3.45-.08.06-.16.1-.24.14-.42 1.27-.29 2.48-.42 3.64-.15 1.34-.03 2.71-.03 4.06-.09.02-.17.04-.25.06-.08-.18-.23-.35-.24-.54-.14-2.18-.29-4.37-.27-6.57-.38.19-.76.36-1.14.52 0 1.2.05 2.41.09 3.61.04 1.17.13 2.35.2 3.68-.47-.21-.81-.33-1.11-.52-.58-.35-1.16-.61-1.87-.42-.57.15-.85-.15-.9-.71-.03-.41-.07-.82-.1-1.23-.08-1.1-.18-2.2-.26-3.3-.11-1.32-.21-2.63-.26-3.96-.01-.2-.02-.4-.02-.61-.5-.02-1.01-.23-1.52-.47-.45-.21-.9-.41-1.35-.62-.05 1.78-.1 3.56-.12 5.35-.01.15-.01.31-.01.46-.02 1.02.12 2.05.16 3.08 0 .28.04.61-.09.84a.95.95 0 0 1-.63.44c-.16.01-.42-.23-.52-.42-.11-.2-.08-.48-.09-.72-.06-1.06-.1-2.13-.19-3.19-.01-.2-.22-.39-.59-.56-.03.37-.1.75-.1 1.13-.01 1.15.01 2.3 0 3.45-.01.58-.21 1.02-.84 1.21-.34.11-.65.35-.96.55-1.35.84-2.64.7-3.93-.16-.64-.43-1.33-.79-2.03-1.13-1.11-.54-1.21-.69-1.13-1.98.08-1.3.14-2.61.19-3.93.01-.21-.11-.42-.16-.64h-.26c-.05.28-.12.57-.15.85-.11 1.27-.2 2.53-.35 3.79-.02.18-.29.47-.44.46-.4 0-.33-.33-.31-.64.09-1.39.14-2.78.21-4.17.03-.57.07-1.14.12-1.71.03-.24.1-.48.11-.73.03-.77.07-1.53.1-2.3-.31-.19-.62-.38-.93-.58-.19 2.31-.36 4.62-.39 6.95-1.02-.76-1.92-1.44-2.84-2.1-1.82-1.29-3.89-1.93-6.08-2.19-.29-.03-.6-.09-.86-.01-.67.18-1.29.07-1.9-.11.74.54 1.49 1.06 2.25 1.57.17-.01.35-.02.52-.01 1.61.05 3.03.7 4.31 1.65.66.49 1.29 1.02 1.94 1.53.58.45.94 1.04 1.06 1.76.01.06.02.11.04.17.32 1.53 1.37 2.38 2.73 3.06 1.1.54 2.18 1.19 3.14 1.94 1.3 1 2.61 1.37 4.04.83.21-.07.42-.17.64-.29 1.12-.61 2.26-1.19 3.39-1.76.14-.07.31-.08.63-.15.06.49.16.91.17 1.33.03.75.05 1.49.07 2.24.05 1.35.08 2.71.13 4.06.03 1.09.55 1.7 1.4 1.67.88-.03 1.83-.92 1.85-1.82.03-1.42 0-2.85.01-4.28v-.3c0-.64.04-1.29.06-1.97 1.06-.05 1.82.38 2.5.89.15.11.3.22.46.31.67.39 1.38.53 2.19.26.74-.24 1.46-.54 2.19-.82.23-.1.42-.31.65-.35.47-.08.88-.23 1.26-.44.14-.08.28-.16.41-.25.92-.62 1.61-1.54 2.39-2.36.4-.42.79-.84 1.18-1.27 1.56-1.68 3.13-3.38 5.02-4.73.71-.52 1.4-.82 2.29-.54.1.03.19.06.29.08.67-.56 1.32-1.14 1.95-1.72.17-.16.35-.32.52-.49.48-.46.96-.92 1.44-1.39-.1-2.71-.02-5.38-.68-8.21Zm-40.8.99c-.26-.16-.52-.32-.78-.47 0 .46 0 .93-.02 1.39-.02.7-.12 1.39-.19 2.08-.07.75-.13 1.5-.2 2.25-.14 1.55-.28 3.09-.41 4.63-.03.37-.1.8.42.89.44.07.69-.21.81-.6.08-.28.15-.56.17-.85a66.936 66.936 0 0 0 .2-9.32Zm-16.29.58c-.04-3.75-.14-7.49-.22-11.24 0-.19.02-.38.03-.63-.2.12-.39.23-.59.35-.49.29-.94.61-1.35.94-.13 3.12-.27 6.25-.34 9.37-.01.75-.39 1.06-.93 1.36.21.32.43.63.65.94.66.93 1.37 1.84 2.13 2.69 0-.02 0-.04.02-.05.66-1.17.62-2.47.6-3.73Zm38.01 5.01c-.3.25-.59.51-.9.72-.1 1.57-.27 3.13-.33 4.69-.01.36-.02.71-.02 1.07.38-.16.76-.33 1.14-.52 0-1.06.05-2.12.15-3.18.09-.92-.02-1.85-.04-2.78Zm-12.22-.14c-.06 1.63-.19 3.26-.26 4.9-.02.42.05.86.14 1.28.26.13.54.24.81.35h.01c.06-.05.1-.1.14-.15.11-.15.11-.39.11-.6.04-1.72.08-3.43.08-5.16-.34-.2-.68-.41-1.03-.62Zm0 0c-.06 1.63-.19 3.26-.26 4.9-.02.42.05.86.14 1.28l.03.18c.03.16.27.4.38.38.14-.02.29-.1.4-.21h.01c.06-.05.1-.1.14-.15.11-.15.11-.39.11-.6.04-1.72.08-3.43.08-5.16-.34-.2-.68-.41-1.03-.62Zm-8.42-4.81c-.09-.05-.18-.11-.27-.16-.08 1.94-.23 3.86-.38 5.79.31.2.62.39.93.58.08-1.82.16-3.65.22-5.47.01-.15.01-.29.01-.44l-.51-.3Zm31.88-2.06c-.07-.37-.11-.75-.15-1.13-.55-.28-.63-.16-.68.53v.06c.05 2.2.12 4.4.2 6.59.3-.21.6-.4.9-.6.01-1.82.08-3.64-.27-5.45Zm-9.98 11.88c-.06.15-.12.29-.16.44.08-.04.16-.08.24-.14-.02-.1-.05-.2-.08-.3Zm17.82-11.45c-.47.67-.32 1.16-.32 1.61 0 1.56.04 3.12.05 4.68.01.57.01 1.14.02 1.72.03.75-.07 1.11-.53 1.56l.02.03c.48-.46.96-.92 1.44-1.39-.1-2.71-.02-5.38-.68-8.21Zm-2.47.57c.42-.81.64-1.67.64-2.52s-.2-1.64-.59-2.41h-.01c.06.55.18 1.1.18 1.65-.01.91-.02 1.82-.15 2.72-.03.19-.05.37-.07.56Zm1.69 9-.2.17c-.09-.24-.23-.45-.24-.66-.11-1.6-.23-3.2-.27-4.8-.04-1.23.05-2.46.04-3.69 0-.85.01-1.7 0-2.54h-.37c0 .85-.22 1.71-.64 2.52-.32 2.9-.05 5.8.22 8.69.02.2.04.41.04.61 0 .08-.06.15-.19.44-1.56-.27-3.18-.77-4.46.59-.15-.08-.28-.11-.28-.15-.16-1.55-.42-3.1-.44-4.65 0-.36 0-.72.01-1.08-.3.2-.6.39-.9.6.03 1.13.07 2.25.11 3.37.01.29.02.58.06.86.14 1.18-.19 2.02-1.16 2.88-1.77 1.58-3.35 3.39-4.91 5.19a5.793 5.793 0 0 1-1.67 1.35c-.41.21-.87.4-1.41.56.1-1.65-.38-3.09-.06-4.63.21-1.06.13-2.19-.23-3.45-.08.06-.16.1-.24.14-.42 1.27-.29 2.48-.42 3.64-.15 1.34-.03 2.71-.03 4.06-.09.02-.17.04-.25.06-.08-.18-.23-.35-.24-.54-.14-2.18-.29-4.37-.27-6.57-.38.19-.76.36-1.14.52 0 1.2.05 2.41.09 3.61.04 1.17.13 2.35.2 3.68-.47-.21-.81-.33-1.11-.52-.58-.35-1.16-.61-1.87-.42-.57.15-.85-.15-.9-.71-.03-.41-.07-.82-.1-1.23-.08-1.1-.18-2.2-.26-3.3-.11-1.32-.21-2.63-.26-3.96-.01-.2-.02-.4-.02-.61-.5-.02-1.01-.23-1.52-.47-.45-.21-.9-.41-1.35-.62-.05 1.78-.1 3.56-.12 5.35-.01.15-.01.31-.01.46-.02 1.02.12 2.05.16 3.08 0 .28.04.61-.09.84a.95.95 0 0 1-.63.44c-.16.01-.42-.23-.52-.42-.11-.2-.08-.48-.09-.72-.06-1.06-.1-2.13-.19-3.19-.01-.2-.22-.39-.59-.56-.03.37-.1.75-.1 1.13-.01 1.15.01 2.3 0 3.45-.01.58-.21 1.02-.84 1.21-.34.11-.65.35-.96.55-1.35.84-2.64.7-3.93-.16-.64-.43-1.33-.79-2.03-1.13-1.11-.54-1.21-.69-1.13-1.98.08-1.3.14-2.61.19-3.93.01-.21-.11-.42-.16-.64h-.26c-.05.28-.12.57-.15.85-.11 1.27-.2 2.53-.35 3.79-.02.18-.29.47-.44.46-.4 0-.33-.33-.31-.64.09-1.39.14-2.78.21-4.17.03-.57.07-1.14.12-1.71.03-.24.1-.48.11-.73.03-.77.07-1.53.1-2.3-.31-.19-.62-.38-.93-.58-.19 2.31-.36 4.62-.39 6.95-1.02-.76-1.92-1.44-2.84-2.1-1.82-1.29-3.89-1.93-6.08-2.19-.29-.03-.6-.09-.86-.01-.67.18-1.29.07-1.9-.11.74.54 1.49 1.06 2.25 1.57.17-.01.35-.02.52-.01 1.61.05 3.03.7 4.31 1.65.66.49 1.29 1.02 1.94 1.53.58.45.94 1.04 1.06 1.76.01.06.02.11.04.17.32 1.53 1.37 2.38 2.73 3.06 1.1.54 2.18 1.19 3.14 1.94 1.3 1 2.61 1.37 4.04.83.21-.07.42-.17.64-.29 1.12-.61 2.26-1.19 3.39-1.76.14-.07.31-.08.63-.15.06.49.16.91.17 1.33.03.75.05 1.49.07 2.24.05 1.35.08 2.71.13 4.06.03 1.09.55 1.7 1.4 1.67.88-.03 1.83-.92 1.85-1.82.03-1.42 0-2.85.01-4.28v-.3c0-.64.04-1.29.06-1.97 1.06-.05 1.82.38 2.5.89.15.11.3.22.46.31.67.39 1.38.53 2.19.26.74-.24 1.46-.54 2.19-.82.23-.1.42-.31.65-.35.47-.08.88-.23 1.26-.44.14-.08.28-.16.41-.25.92-.62 1.61-1.54 2.39-2.36.4-.42.79-.84 1.18-1.27 1.56-1.68 3.13-3.38 5.02-4.73.71-.52 1.4-.82 2.29-.54.1.03.19.06.29.08.67-.56 1.32-1.14 1.95-1.72.17-.16.35-.32.52-.49l-.02-.03Zm-40.02-8.58c-.26-.16-.52-.32-.78-.47 0 .46 0 .93-.02 1.39-.02.7-.12 1.39-.19 2.08-.07.75-.13 1.5-.2 2.25-.14 1.55-.28 3.09-.41 4.63-.03.37-.1.8.42.89.44.07.69-.21.81-.6.08-.28.15-.56.17-.85a66.936 66.936 0 0 0 .2-9.32Zm-16.29.58c-.04-3.75-.14-7.49-.22-11.24 0-.19.02-.38.03-.63-.2.12-.39.23-.59.35-.49.29-.94.61-1.35.94-.13 3.12-.27 6.25-.34 9.37-.01.75-.39 1.06-.93 1.36.21.32.43.63.65.94.66.93 1.37 1.84 2.13 2.69 0-.02 0-.04.02-.05.66-1.17.62-2.47.6-3.73Zm38.01 5.01c-.3.25-.59.51-.9.72-.1 1.57-.27 3.13-.33 4.69-.01.36-.02.71-.02 1.07.38-.16.76-.33 1.14-.52 0-1.06.05-2.12.15-3.18.09-.92-.02-1.85-.04-2.78ZM36.4 65.83c-.02.42.05.86.14 1.28.26.13.54.24.81.35h.01c.06-.05.1-.1.14-.15.11-.15.11-.39.11-.6.04-1.72.08-3.43.08-5.16-.34-.2-.68-.41-1.03-.62-.06 1.63-.19 3.26-.26 4.9Zm.26-4.9c-.06 1.63-.19 3.26-.26 4.9-.02.42.05.86.14 1.28l.03.18c.03.16.27.4.38.38.14-.02.29-.1.4-.21h.01c.06-.05.1-.1.14-.15.11-.15.11-.39.11-.6.04-1.72.08-3.43.08-5.16-.34-.2-.68-.41-1.03-.62Zm-8.69-4.97c-.08 1.94-.23 3.86-.38 5.79.31.2.62.39.93.58.08-1.82.16-3.65.22-5.47.01-.15.01-.29.01-.44l-.51-.3c-.09-.05-.18-.11-.27-.16Zm32.15-1.9c-.07-.37-.11-.75-.15-1.13-.55-.28-.63-.16-.68.53v.06c.05 2.2.12 4.4.2 6.59.3-.21.6-.4.9-.6.01-1.82.08-3.64-.27-5.45ZM49.98 66.38c.08-.04.16-.08.24-.14-.02-.1-.05-.2-.08-.3-.06.15-.12.29-.16.44Zm17.98-11.89c-.47.67-.32 1.16-.32 1.61 0 1.56.04 3.12.05 4.68.01.57.01 1.14.02 1.72.03.75-.07 1.11-.53 1.56l.02.03c.48-.46.96-.92 1.44-1.39-.1-2.71-.02-5.38-.68-8.21Zm-2.43-4.35c.06.54.18 1.09.18 1.64-.01.91-.02 1.82-.15 2.72-.03.19-.05.37-.07.56.42-.81.64-1.67.64-2.52s-.2-1.64-.59-2.41h-.01ZM83 61.13c-.6-.5-1.21-.99-1.87-1.41-.75-.49-.94-1.15-.89-2.01.14-2.17.16-4.36.31-6.54.24-3.49.18-6.99-.02-10.48-.03-.51.09-.88.56-1.13.26-.13.49-.3.73-.47.69-.48 1-1.04.93-1.76-.01-.19-.06-.39-.13-.6-.22-.67-.55-1.31-1.23-1.64-.84-.41-1.16-1.12-1.22-1.99-.04-.54-.07-1.07-.13-1.6-.15-1.27-.29-2.54-.49-3.8-.12-.73-.57-1.16-.99-1.04-.56.17-.51.69-.54 1.13-.05.72-.08 1.44-.12 2.34-1.09-.67-1.62-.19-2.08.56-1.19 1.98-2.86 3.5-4.68 4.86-.99.74-1.96 1.51-3.02 2.13-.92.54-2.02.77-2.91 1.34a8.1 8.1 0 0 1-.85.49c-1.47.8-3.05 1.25-4.66 1.6-1.36.3-2.73.49-4.05 1.01-.13.05-.26.1-.4.14-1.1.4-2.26.65-3.38.97-.36.1-.72.19-1.08.26-.38.08-.75.17-1.13.26-1.13.26-2.26.47-3.48.29-.98-.14-2.03.23-3.04.34-.13.02-.28.03-.42.05h-.08s-.07.01-.1.01h-.02s-.07.01-.11.01h-.01c-.06.01-.12.01-.18.02s-.13.02-.2.02H42c-.43.05-.86.07-1.3.04-1.91-.13-3.82-.51-5.72-.5h-.14c-3.3.04-6.38-.6-9.26-2.19-.03-.02-.05-.04-.08-.05-.2-.12-.47-.12-.71-.19-1.06-.31-2.13-.58-3.17-.95-.85-.3-1.57-.8-2.28-1.34-.96-.71-1.88-1.48-3.03-1.88-1.42-1.31-2.98-2.49-4.33-3.88-.51-.51-1-1.07-1.43-1.67-.86-1.19-1.93-2.25-2.74-3.48-.56-.84-1-1.76-1.17-2.85-.03-.2-.41-.52-.59-.5-.33.04-.71.24-.91.49-.17.23-.16.62-.18.95-.1 1.48-.16 2.96-.28 4.44-.06.76-.11 1.55-.5 2.16-.71.08-1.31.16-1.92.22-1.18.12-1.63 1.11-1.08 2.32.33.75.98 1.11 1.69 1.34.62.2.87.57.83 1.19-.01.32 0 .66 0 .99-.08 3.29-.17 6.59-.23 9.88-.04 2.44-.06 4.87-.04 7.31 0 1.09-.35 1.9-1.38 2.39-.41.19-.76.49-1.12.77-1.03.81-1.13 1.25-.68 2.45.08.21.16.4.26.6.67 1.34 1.75 2.35 2.9 3.26 1.33 1.06 2.66.99 4.1.07.31-.2.65-.37.96-.57.97-.63 1.83-.5 2.71.23 1.7 1.41 3.36 2.86 5.25 4.05 2.4 1.52 4.52 3.45 7.01 4.85 1.36.77 2.63 1.71 3.95 2.56.8.51 1.57 1.09 2.43 1.45 2.11.88 4.04 2.06 5.87 3.4 1.1.81 1.11.79.68 2.09-.31.94-.21 1.42.69 1.85.88.42 1.86.64 2.8.93.39.13.79.21 1.19.32l2.47.69c.71.2 1.29-.05 1.81-.52.8-.72 1.62-1.41 2.42-2.12.24-.22.47-.48.65-.75.47-.7.45-1.1-.1-1.78-.33-.41-.71-.78-1.15-1.25 1.1-1.06 2.33-1.6 3.61-2.09 1.53-.58 3.08-1.18 4.5-1.99 3.46-1.99 6.82-4.15 10.28-6.14 2.39-1.38 4.92-2.51 7.31-3.89 1.19-.69 2.19-.38 3.25.1.19.08.34.24.53.32.69.27 1.38.55 2.08.76.6.19 1.22.04 1.6-.43 1.12-1.42 2.25-2.85 3.24-4.36.6-.92.34-1.73-.55-2.47Zm-5.92-20.69c.75 3.99 1 7.9.89 11.8-.03.89-.07 1.77-.13 2.66-.05.69-.11 1.37-.18 2.06-.52-.05-.91-.1-1.21-.17-.78-.21-.94-.61-1.05-1.76-.15-1.76-.19-3.53-.24-5.29-.01-.34-.01-.69-.01-1.03 0-1.42.04-2.85-.11-4.25-.19-1.79.74-2.83 2.04-4.02Zm-4.41 5.41s.15 0 .29.01c-.02.28-.03.57-.05.85-.04.9-.07 1.8-.2 2.68-.32 2.07.11 4.11.19 6.16.04 1.19.12 2.38.14 3.57v.05c0 .26-.08.6-.26.75a59.794 59.794 0 0 1-4.12 3.33c-.01-.18-.02-.37-.02-.55-.1-2.71-.02-5.38-.68-8.21-.47.67-.32 1.16-.32 1.61 0 1.56.04 3.12.05 4.68.01.57.01 1.14.02 1.72.03.75-.07 1.11-.53 1.56l-.2.17c-.09-.24-.23-.45-.24-.66-.11-1.6-.23-3.2-.27-4.8-.04-1.23.05-2.46.04-3.69 0-.85.01-1.7 0-2.54 0-.59-.02-1.18-.07-1.77-.07-.86.14-1.36.92-1.79 1.65-.91 3.26-1.91 4.88-2.87.15-.09.29-.17.44-.26ZM59.6 63.48c.01.29.02.58.06.86.14 1.18-.19 2.02-1.16 2.88-1.77 1.58-3.35 3.39-4.91 5.19a5.793 5.793 0 0 1-1.67 1.35c-.41.21-.87.4-1.41.56.1-1.65-.38-3.09-.06-4.63.21-1.06.13-2.19-.23-3.45-.02-.1-.05-.2-.08-.3-.06.15-.12.29-.16.44-.42 1.27-.29 2.48-.42 3.64-.15 1.34-.03 2.71-.03 4.06-.09.02-.17.04-.25.06-.08-.18-.23-.35-.24-.54-.14-2.18-.29-4.37-.27-6.57 0-1.06.05-2.12.15-3.18.09-.92-.02-1.85-.04-2.78v-.04c-.03-1.57-.07-3.13-.11-4.69-.02-.55.17-.97.67-1.22.48-.23.94-.55 1.45-.66 1.68-.38 3.39-.66 5.07-1.04.76-.17 1.49-.49 2.23-.72.92-.29 1.07-.15 1.1.76v.06c.05 2.2.12 4.4.2 6.59.03 1.13.07 2.25.11 3.37ZM32.62 74.46c-.64-.43-1.33-.79-2.03-1.13-1.11-.54-1.21-.69-1.13-1.98.08-1.3.14-2.61.19-3.93.01-.21-.11-.42-.16-.64h-.26c-.05.28-.12.57-.15.85-.11 1.27-.2 2.53-.35 3.79-.02.18-.29.47-.44.46-.4 0-.33-.33-.31-.64.09-1.39.14-2.78.21-4.17.03-.57.07-1.14.12-1.71.03-.24.1-.48.11-.73.03-.77.07-1.53.1-2.3.08-1.82.16-3.65.22-5.47.01-.15.01-.29.01-.44.02-1.16 0-2.34 0-3.66.9 0 1.75-.03 2.6.03.25.01.52.24.71.43 1.38 1.36 2.75 2.72 4.09 4.11.74.76.57 1.78.55 2.7-.01.3-.02.6-.04.9-.06 1.63-.19 3.26-.26 4.9-.02.42.05.86.14 1.28l.03.18c.03.16.27.4.38.38.14-.02.29-.1.4-.21h.01c.06-.05.1-.1.14-.15.11-.15.11-.39.11-.6.04-1.72.08-3.43.08-5.16.01-.21.01-.43.01-.64 0-.63-.14-1.27-.22-1.93 1.14-.31 2.17-.57 3.26.14-.05.39-.12.78-.13 1.18-.03.9-.05 1.8-.08 2.7-.05 1.78-.1 3.56-.12 5.35-.01.15-.01.31-.01.46-.02 1.02.12 2.05.16 3.08 0 .28.04.61-.09.84a.95.95 0 0 1-.63.44c-.16.01-.42-.23-.52-.42-.11-.2-.08-.48-.09-.72-.06-1.06-.1-2.13-.19-3.19-.01-.2-.22-.39-.59-.56-.03.37-.1.75-.1 1.13-.01 1.15.01 2.3 0 3.45-.01.58-.21 1.02-.84 1.21-.34.11-.65.35-.96.55-1.35.84-2.64.7-3.93-.16Zm10.8-9.76c-.01-.2-.02-.4-.02-.61-.06-1.8 0-3.61 0-5.49 2.06.56 2.91-1.22 4.55-2.21.03 1.66.13 3.05.08 4.44-.01.32-.03.64-.05.96-.1 1.57-.27 3.13-.33 4.69-.01.36-.02.71-.02 1.07 0 1.2.05 2.41.09 3.61.04 1.17.13 2.35.2 3.68-.47-.21-.81-.33-1.11-.52-.58-.35-1.16-.61-1.87-.42-.57.15-.85-.15-.9-.71-.03-.41-.07-.82-.1-1.23-.08-1.1-.18-2.2-.26-3.3-.11-1.32-.21-2.63-.26-3.96Zm16.97-5.19c.01-1.82.08-3.64-.27-5.45-.07-.37-.11-.75-.15-1.13 0-.03-.01-.06-.01-.09-.07-.58.2-.97.73-1.14.47-.15.94-.31 1.42-.46 1.1-.35 2.22-.71 3.42-1.1.06.54.18 1.09.18 1.64-.01.91-.02 1.82-.15 2.72-.03.19-.05.37-.07.56-.32 2.9-.05 5.8.22 8.69.02.2.04.41.04.61 0 .08-.06.15-.19.44-1.56-.27-3.18-.77-4.46.59-.15-.08-.28-.11-.28-.15-.16-1.55-.42-3.1-.44-4.65 0-.36 0-.72.01-1.08ZM6.54 39.82c1.56.63 2.35 1.73 2.3 3.18-.03.83-.07 1.65-.1 2.48-.13 3.12-.27 6.25-.34 9.37-.01.75-.39 1.06-.93 1.36-.22.12-.47.23-.73.38-.08-.61-.18-1.04-.18-1.47v-.48c-.02-2.18-.04-4.37-.04-6.55-.03-2.39-.04-4.78-.05-7.17 0-.35.04-.71.07-1.1Zm3.27 23.51c-1.33-.14-2.51.26-3.61.96-.62.4-1.29.42-1.88.09-.85-.49-1.72-1-2.41-1.67-.15-.15-.26-.3-.34-.45-.37-.73.21-1.43 1.5-1.7.1.15.23.31.34.48.36.56.83.93 1.53.76.78-.19 1.55-.43 1.67-1.4.08-.6.11-1.22.13-1.83.02-.95.11-1.06 1.22-1.3.17 1.04.18 2.14.55 3.1.36.97 1.08 1.81 1.66 2.73-.17.12-.28.24-.36.23Zm3.84-.39c-.02-.11-.03-.24-.03-.37 0-1.85-.02-3.7-.04-5.54-.01-.96.1-1.94-.49-3.09-.73 2.7-.75 5.26-.9 7.83-.02.37-.04.74-.07 1.11-.71-.83-1.39-1.66-1.89-2.62-.05-.11-.04-.3.02-.42 0-.02 0-.04.02-.05.66-1.17.62-2.47.6-3.73-.04-3.75-.14-7.49-.22-11.24 0-.19.02-.38.03-.63.02-.14.03-.31.05-.5.12.1.24.2.34.27.25.21.45.37.63.54 1.11 1.04 2.22 2.09 3.34 3.12.61.57 1.25 1.09 1.91 1.57 1.46 1.08 3.05 1.94 4.76 2.56l.45.15c1.13.33 2.36.43 3.53.65.15.03.31.05.54.08.04.25.12.48.12.71l.03 1.67c0 .46 0 .93-.02 1.39-.02.7-.12 1.39-.19 2.08-.07.75-.13 1.5-.2 2.25-.14 1.55-.28 3.09-.41 4.63-.03.37-.1.8.42.89.44.07.69-.21.81-.6.08-.28.15-.56.17-.85a66.936 66.936 0 0 0 .2-9.32c-.02-.59-.06-1.19-.1-1.78-.07-.95-.06-.97.93-1.17.03 1.15.02 2.29-.02 3.43-.08 1.94-.23 3.86-.38 5.79-.19 2.31-.36 4.62-.39 6.95-1.02-.76-1.92-1.44-2.84-2.1-1.82-1.29-3.89-1.93-6.08-2.19-.29-.03-.6-.09-.86-.01-.67.18-1.29.07-1.9-.11h-.02c-.24-.07-.48-.15-.72-.23-.66-.22-1.04-.53-1.13-1.12Zm64.85 3.28c-.98-.43-1.94-.81-2.85-1.26-1.29-.64-2.45-.62-3.73.15-1.51.92-3.19 1.54-4.72 2.43-3.13 1.83-6.21 3.75-9.31 5.63-1.35.82-2.68 1.65-4.04 2.44-.14.08-.27.16-.41.24v.01c-.42.25-.84.49-1.26.73-.89.49-1.9.77-2.88 1.1-1.46.49-2.74 1.31-3.97 2.22-.91.68-.93.99-.2 1.92.28.35.57.69.85 1.05.1.13.15.29.27.52-.71 1.01-1.72 1.74-2.68 2.47-.28.22-.94.03-1.41-.07-.88-.2-1.74-.49-2.61-.69-1.12-.25-1.36-.66-.95-1.76.16-.42.37-.83.48-1.27.17-.73-.07-1.02-.77-1.31-.87-.36-1.74-.73-2.54-1.21-1.91-1.14-3.79-2.33-5.67-3.52-3.02-1.93-6.03-3.87-9.03-5.83-1.86-1.21-3.7-2.46-5.55-3.69-.17-.11-.38-.16-.57-.24.08-.06.15-.12.23-.18.86-.07 1.74-.22 2.6-.24.17-.01.35-.02.52-.01 1.61.05 3.03.7 4.31 1.65.66.49 1.29 1.02 1.94 1.53.58.45.94 1.04 1.06 1.76.01.06.02.11.04.17.32 1.53 1.37 2.38 2.73 3.06 1.1.54 2.18 1.19 3.14 1.94 1.3 1 2.61 1.37 4.04.83.21-.07.42-.17.64-.29 1.12-.61 2.26-1.19 3.39-1.76.14-.07.31-.08.63-.15.06.49.16.91.17 1.33.03.75.05 1.49.07 2.24.05 1.35.08 2.71.13 4.06.03 1.09.55 1.7 1.4 1.67.88-.03 1.83-.92 1.85-1.82.03-1.42 0-2.85.01-4.28v-.3c0-.64.04-1.29.06-1.97 1.06-.05 1.82.38 2.5.89.15.11.3.22.46.31.67.39 1.38.53 2.19.26.74-.24 1.46-.54 2.19-.82.23-.1.42-.31.65-.35.47-.08.88-.23 1.26-.44.14-.08.28-.16.41-.25.92-.62 1.61-1.54 2.39-2.36.4-.42.79-.84 1.18-1.27 1.56-1.68 3.13-3.38 5.02-4.73.71-.52 1.4-.82 2.29-.54.1.03.19.06.29.08.8.18 1.61.08 2.38-.21 2.19-.85 4.39-1.67 5.99-3.54.34-.39.88-.6 1.3-.92.8-.62 1.25-1.41 1.15-2.46-.02-.31.05-.63.07-.96 1.69.3 1.86.48 1.88 1.92 0 .78.09 1.55.49 2.22q1.55.1 2.36-.8c.32.23.65.46 1.09.77-.81 1.44-1.81 2.65-2.94 3.9ZM65.49 55.06c.42-.81.64-1.67.64-2.52s-.2-1.64-.59-2.41h-.01c.06.55.18 1.1.18 1.65-.01.91-.02 1.82-.15 2.72-.03.19-.05.37-.07.56Zm2.47-.57c-.47.67-.32 1.16-.32 1.61 0 1.56.04 3.12.05 4.68.01.57.01 1.14.02 1.72.03.75-.07 1.11-.53 1.56l.02.03c.48-.46.96-.92 1.44-1.39-.1-2.71-.02-5.38-.68-8.21ZM50.14 65.94c-.06.15-.12.29-.16.44.08-.04.16-.08.24-.14-.02-.1-.05-.2-.08-.3Zm9.98-11.88c-.07-.37-.11-.75-.15-1.13-.55-.28-.63-.16-.68.53v.06c.05 2.2.12 4.4.2 6.59.3-.21.6-.4.9-.6.01-1.82.08-3.64-.27-5.45Zm-31.88 2.06c-.09-.05-.18-.11-.27-.16-.08 1.94-.23 3.86-.38 5.79.31.2.62.39.93.58.08-1.82.16-3.65.22-5.47.01-.15.01-.29.01-.44l-.51-.3Zm8.42 4.81c-.06 1.63-.19 3.26-.26 4.9-.02.42.05.86.14 1.28l.03.18c.03.16.27.4.38.38.14-.02.29-.1.4-.21h.01c.06-.05.1-.1.14-.15.11-.15.11-.39.11-.6.04-1.72.08-3.43.08-5.16-.34-.2-.68-.41-1.03-.62Zm0 0c-.06 1.63-.19 3.26-.26 4.9-.02.42.05.86.14 1.28.26.13.54.24.81.35h.01c.06-.05.1-.1.14-.15.11-.15.11-.39.11-.6.04-1.72.08-3.43.08-5.16-.34-.2-.68-.41-1.03-.62Zm12.22.14c-.3.25-.59.51-.9.72-.1 1.57-.27 3.13-.33 4.69-.01.36-.02.71-.02 1.07.38-.16.76-.33 1.14-.52 0-1.06.05-2.12.15-3.18.09-.92-.02-1.85-.04-2.78Zm-38.01-5.01c-.04-3.75-.14-7.49-.22-11.24 0-.19.02-.38.03-.63-.2.12-.39.23-.59.35-.49.29-.94.61-1.35.94-.13 3.12-.27 6.25-.34 9.37-.01.75-.39 1.06-.93 1.36.21.32.43.63.65.94.66.93 1.37 1.84 2.13 2.69 0-.02 0-.04.02-.05.66-1.17.62-2.47.6-3.73Zm16.29-.58c-.26-.16-.52-.32-.78-.47 0 .46 0 .93-.02 1.39-.02.7-.12 1.39-.19 2.08-.07.75-.13 1.5-.2 2.25-.14 1.55-.28 3.09-.41 4.63-.03.37-.1.8.42.89.44.07.69-.21.81-.6.08-.28.15-.56.17-.85a66.936 66.936 0 0 0 .2-9.32Zm40.8-.99c-.47.67-.32 1.16-.32 1.61 0 1.56.04 3.12.05 4.68.01.57.01 1.14.02 1.72.03.75-.07 1.11-.53 1.56l-.2.17c-.09-.24-.23-.45-.24-.66-.11-1.6-.23-3.2-.27-4.8-.04-1.23.05-2.46.04-3.69 0-.85.01-1.7 0-2.54h-.37c0 .85-.22 1.71-.64 2.52-.32 2.9-.05 5.8.22 8.69.02.2.04.41.04.61 0 .08-.06.15-.19.44-1.56-.27-3.18-.77-4.46.59-.15-.08-.28-.11-.28-.15-.16-1.55-.42-3.1-.44-4.65 0-.36 0-.72.01-1.08-.3.2-.6.39-.9.6.03 1.13.07 2.25.11 3.37.01.29.02.58.06.86.14 1.18-.19 2.02-1.16 2.88-1.77 1.58-3.35 3.39-4.91 5.19a5.793 5.793 0 0 1-1.67 1.35c-.41.21-.87.4-1.41.56.1-1.65-.38-3.09-.06-4.63.21-1.06.13-2.19-.23-3.45-.08.06-.16.1-.24.14-.42 1.27-.29 2.48-.42 3.64-.15 1.34-.03 2.71-.03 4.06-.09.02-.17.04-.25.06-.08-.18-.23-.35-.24-.54-.14-2.18-.29-4.37-.27-6.57-.38.19-.76.36-1.14.52 0 1.2.05 2.41.09 3.61.04 1.17.13 2.35.2 3.68-.47-.21-.81-.33-1.11-.52-.58-.35-1.16-.61-1.87-.42-.57.15-.85-.15-.9-.71-.03-.41-.07-.82-.1-1.23-.08-1.1-.18-2.2-.26-3.3-.11-1.32-.21-2.63-.26-3.96-.01-.2-.02-.4-.02-.61-.5-.02-1.01-.23-1.52-.47-.45-.21-.9-.41-1.35-.62-.05 1.78-.1 3.56-.12 5.35-.01.15-.01.31-.01.46-.02 1.02.12 2.05.16 3.08 0 .28.04.61-.09.84a.95.95 0 0 1-.63.44c-.16.01-.42-.23-.52-.42-.11-.2-.08-.48-.09-.72-.06-1.06-.1-2.13-.19-3.19-.01-.2-.22-.39-.59-.56-.03.37-.1.75-.1 1.13-.01 1.15.01 2.3 0 3.45-.01.58-.21 1.02-.84 1.21-.34.11-.65.35-.96.55-1.35.84-2.64.7-3.93-.16-.64-.43-1.33-.79-2.03-1.13-1.11-.54-1.21-.69-1.13-1.98.08-1.3.14-2.61.19-3.93.01-.21-.11-.42-.16-.64h-.26c-.05.28-.12.57-.15.85-.11 1.27-.2 2.53-.35 3.79-.02.18-.29.47-.44.46-.4 0-.33-.33-.31-.64.09-1.39.14-2.78.21-4.17.03-.57.07-1.14.12-1.71.03-.24.1-.48.11-.73.03-.77.07-1.53.1-2.3-.31-.19-.62-.38-.93-.58-.19 2.31-.36 4.62-.39 6.95-1.02-.76-1.92-1.44-2.84-2.1-1.82-1.29-3.89-1.93-6.08-2.19-.29-.03-.6-.09-.86-.01-.67.18-1.29.07-1.9-.11.74.54 1.49 1.06 2.25 1.57.17-.01.35-.02.52-.01 1.61.05 3.03.7 4.31 1.65.66.49 1.29 1.02 1.94 1.53.58.45.94 1.04 1.06 1.76.01.06.02.11.04.17.32 1.53 1.37 2.38 2.73 3.06 1.1.54 2.18 1.19 3.14 1.94 1.3 1 2.61 1.37 4.04.83.21-.07.42-.17.64-.29 1.12-.61 2.26-1.19 3.39-1.76.14-.07.31-.08.63-.15.06.49.16.91.17 1.33.03.75.05 1.49.07 2.24.05 1.35.08 2.71.13 4.06.03 1.09.55 1.7 1.4 1.67.88-.03 1.83-.92 1.85-1.82.03-1.42 0-2.85.01-4.28v-.3c0-.64.04-1.29.06-1.97 1.06-.05 1.82.38 2.5.89.15.11.3.22.46.31.67.39 1.38.53 2.19.26.74-.24 1.46-.54 2.19-.82.23-.1.42-.31.65-.35.47-.08.88-.23 1.26-.44.14-.08.28-.16.41-.25.92-.62 1.61-1.54 2.39-2.36.4-.42.79-.84 1.18-1.27 1.56-1.68 3.13-3.38 5.02-4.73.71-.52 1.4-.82 2.29-.54.1.03.19.06.29.08.67-.56 1.32-1.14 1.95-1.72.17-.16.35-.32.52-.49.48-.46.96-.92 1.44-1.39-.1-2.71-.02-5.38-.68-8.21Zm-2.47.57c.42-.81.64-1.67.64-2.52s-.2-1.64-.59-2.41h-.01c.06.55.18 1.1.18 1.65-.01.91-.02 1.82-.15 2.72-.03.19-.05.37-.07.56Zm2.47-.57c-.47.67-.32 1.16-.32 1.61 0 1.56.04 3.12.05 4.68.01.57.01 1.14.02 1.72.03.75-.07 1.11-.53 1.56l.02.03c.48-.46.96-.92 1.44-1.39-.1-2.71-.02-5.38-.68-8.21ZM50.14 65.94c-.06.15-.12.29-.16.44.08-.04.16-.08.24-.14-.02-.1-.05-.2-.08-.3Zm9.98-11.88c-.07-.37-.11-.75-.15-1.13-.55-.28-.63-.16-.68.53v.06c.05 2.2.12 4.4.2 6.59.3-.21.6-.4.9-.6.01-1.82.08-3.64-.27-5.45Zm-31.88 2.06c-.09-.05-.18-.11-.27-.16-.08 1.94-.23 3.86-.38 5.79.31.2.62.39.93.58.08-1.82.16-3.65.22-5.47.01-.15.01-.29.01-.44l-.51-.3Zm8.42 4.81c-.06 1.63-.19 3.26-.26 4.9-.02.42.05.86.14 1.28l.03.18c.03.16.27.4.38.38.14-.02.29-.1.4-.21h.01c.06-.05.1-.1.14-.15.11-.15.11-.39.11-.6.04-1.72.08-3.43.08-5.16-.34-.2-.68-.41-1.03-.62Zm0 0c-.06 1.63-.19 3.26-.26 4.9-.02.42.05.86.14 1.28.26.13.54.24.81.35h.01c.06-.05.1-.1.14-.15.11-.15.11-.39.11-.6.04-1.72.08-3.43.08-5.16-.34-.2-.68-.41-1.03-.62Zm12.22.14c-.3.25-.59.51-.9.72-.1 1.57-.27 3.13-.33 4.69-.01.36-.02.71-.02 1.07.38-.16.76-.33 1.14-.52 0-1.06.05-2.12.15-3.18.09-.92-.02-1.85-.04-2.78Zm-38.01-5.01c-.04-3.75-.14-7.49-.22-11.24 0-.19.02-.38.03-.63-.2.12-.39.23-.59.35-.49.29-.94.61-1.35.94-.13 3.12-.27 6.25-.34 9.37-.01.75-.39 1.06-.93 1.36.21.32.43.63.65.94.66.93 1.37 1.84 2.13 2.69 0-.02 0-.04.02-.05.66-1.17.62-2.47.6-3.73Zm16.29-.58c-.26-.16-.52-.32-.78-.47 0 .46 0 .93-.02 1.39-.02.7-.12 1.39-.19 2.08-.07.75-.13 1.5-.2 2.25-.14 1.55-.28 3.09-.41 4.63-.03.37-.1.8.42.89.44.07.69-.21.81-.6.08-.28.15-.56.17-.85a66.936 66.936 0 0 0 .2-9.32Zm40.8-.99c-.47.67-.32 1.16-.32 1.61 0 1.56.04 3.12.05 4.68.01.57.01 1.14.02 1.72.03.75-.07 1.11-.53 1.56l-.2.17c-.09-.24-.23-.45-.24-.66-.11-1.6-.23-3.2-.27-4.8-.04-1.23.05-2.46.04-3.69 0-.85.01-1.7 0-2.54h-.37c0 .85-.22 1.71-.64 2.52-.32 2.9-.05 5.8.22 8.69.02.2.04.41.04.61 0 .08-.06.15-.19.44-1.56-.27-3.18-.77-4.46.59-.15-.08-.28-.11-.28-.15-.16-1.55-.42-3.1-.44-4.65 0-.36 0-.72.01-1.08-.3.2-.6.39-.9.6.03 1.13.07 2.25.11 3.37.01.29.02.58.06.86.14 1.18-.19 2.02-1.16 2.88-1.77 1.58-3.35 3.39-4.91 5.19a5.793 5.793 0 0 1-1.67 1.35c-.41.21-.87.4-1.41.56.1-1.65-.38-3.09-.06-4.63.21-1.06.13-2.19-.23-3.45-.08.06-.16.1-.24.14-.42 1.27-.29 2.48-.42 3.64-.15 1.34-.03 2.71-.03 4.06-.09.02-.17.04-.25.06-.08-.18-.23-.35-.24-.54-.14-2.18-.29-4.37-.27-6.57-.38.19-.76.36-1.14.52 0 1.2.05 2.41.09 3.61.04 1.17.13 2.35.2 3.68-.47-.21-.81-.33-1.11-.52-.58-.35-1.16-.61-1.87-.42-.57.15-.85-.15-.9-.71-.03-.41-.07-.82-.1-1.23-.08-1.1-.18-2.2-.26-3.3-.11-1.32-.21-2.63-.26-3.96-.01-.2-.02-.4-.02-.61-.5-.02-1.01-.23-1.52-.47-.45-.21-.9-.41-1.35-.62-.05 1.78-.1 3.56-.12 5.35-.01.15-.01.31-.01.46-.02 1.02.12 2.05.16 3.08 0 .28.04.61-.09.84a.95.95 0 0 1-.63.44c-.16.01-.42-.23-.52-.42-.11-.2-.08-.48-.09-.72-.06-1.06-.1-2.13-.19-3.19-.01-.2-.22-.39-.59-.56-.03.37-.1.75-.1 1.13-.01 1.15.01 2.3 0 3.45-.01.58-.21 1.02-.84 1.21-.34.11-.65.35-.96.55-1.35.84-2.64.7-3.93-.16-.64-.43-1.33-.79-2.03-1.13-1.11-.54-1.21-.69-1.13-1.98.08-1.3.14-2.61.19-3.93.01-.21-.11-.42-.16-.64h-.26c-.05.28-.12.57-.15.85-.11 1.27-.2 2.53-.35 3.79-.02.18-.29.47-.44.46-.4 0-.33-.33-.31-.64.09-1.39.14-2.78.21-4.17.03-.57.07-1.14.12-1.71.03-.24.1-.48.11-.73.03-.77.07-1.53.1-2.3-.31-.19-.62-.38-.93-.58-.19 2.31-.36 4.62-.39 6.95-1.02-.76-1.92-1.44-2.84-2.1-1.82-1.29-3.89-1.93-6.08-2.19-.29-.03-.6-.09-.86-.01-.67.18-1.29.07-1.9-.11.74.54 1.49 1.06 2.25 1.57.17-.01.35-.02.52-.01 1.61.05 3.03.7 4.31 1.65.66.49 1.29 1.02 1.94 1.53.58.45.94 1.04 1.06 1.76.01.06.02.11.04.17.32 1.53 1.37 2.38 2.73 3.06 1.1.54 2.18 1.19 3.14 1.94 1.3 1 2.61 1.37 4.04.83.21-.07.42-.17.64-.29 1.12-.61 2.26-1.19 3.39-1.76.14-.07.31-.08.63-.15.06.49.16.91.17 1.33.03.75.05 1.49.07 2.24.05 1.35.08 2.71.13 4.06.03 1.09.55 1.7 1.4 1.67.88-.03 1.83-.92 1.85-1.82.03-1.42 0-2.85.01-4.28v-.3c0-.64.04-1.29.06-1.97 1.06-.05 1.82.38 2.5.89.15.11.3.22.46.31.67.39 1.38.53 2.19.26.74-.24 1.46-.54 2.19-.82.23-.1.42-.31.65-.35.47-.08.88-.23 1.26-.44.14-.08.28-.16.41-.25.92-.62 1.61-1.54 2.39-2.36.4-.42.79-.84 1.18-1.27 1.56-1.68 3.13-3.38 5.02-4.73.71-.52 1.4-.82 2.29-.54.1.03.19.06.29.08.67-.56 1.32-1.14 1.95-1.72.17-.16.35-.32.52-.49.48-.46.96-.92 1.44-1.39-.1-2.71-.02-5.38-.68-8.21Zm-2.47.57c.42-.81.64-1.67.64-2.52s-.2-1.64-.59-2.41h-.01c.06.55.18 1.1.18 1.65-.01.91-.02 1.82-.15 2.72-.03.19-.05.37-.07.56Zm2.47-.57c-.47.67-.32 1.16-.32 1.61 0 1.56.04 3.12.05 4.68.01.57.01 1.14.02 1.72.03.75-.07 1.11-.53 1.56l.02.03c.48-.46.96-.92 1.44-1.39-.1-2.71-.02-5.38-.68-8.21ZM50.14 65.94c-.06.15-.12.29-.16.44.08-.04.16-.08.24-.14-.02-.1-.05-.2-.08-.3Zm9.98-11.88c-.07-.37-.11-.75-.15-1.13-.55-.28-.63-.16-.68.53v.06c.05 2.2.12 4.4.2 6.59.3-.21.6-.4.9-.6.01-1.82.08-3.64-.27-5.45Zm-31.88 2.06c-.09-.05-.18-.11-.27-.16-.08 1.94-.23 3.86-.38 5.79.31.2.62.39.93.58.08-1.82.16-3.65.22-5.47.01-.15.01-.29.01-.44l-.51-.3Zm8.42 4.81c-.06 1.63-.19 3.26-.26 4.9-.02.42.05.86.14 1.28l.03.18c.03.16.27.4.38.38.14-.02.29-.1.4-.21h.01c.06-.05.1-.1.14-.15.11-.15.11-.39.11-.6.04-1.72.08-3.43.08-5.16-.34-.2-.68-.41-1.03-.62Zm0 0c-.06 1.63-.19 3.26-.26 4.9-.02.42.05.86.14 1.28.26.13.54.24.81.35h.01c.06-.05.1-.1.14-.15.11-.15.11-.39.11-.6.04-1.72.08-3.43.08-5.16-.34-.2-.68-.41-1.03-.62Zm12.22.14c-.3.25-.59.51-.9.72-.1 1.57-.27 3.13-.33 4.69-.01.36-.02.71-.02 1.07.38-.16.76-.33 1.14-.52 0-1.06.05-2.12.15-3.18.09-.92-.02-1.85-.04-2.78Zm-38.01-5.01c-.04-3.75-.14-7.49-.22-11.24 0-.19.02-.38.03-.63-.2.12-.39.23-.59.35-.49.29-.94.61-1.35.94-.13 3.12-.27 6.25-.34 9.37-.01.75-.39 1.06-.93 1.36.21.32.43.63.65.94.66.93 1.37 1.84 2.13 2.69 0-.02 0-.04.02-.05.66-1.17.62-2.47.6-3.73Zm16.29-.58c-.26-.16-.52-.32-.78-.47 0 .46 0 .93-.02 1.39-.02.7-.12 1.39-.19 2.08-.07.75-.13 1.5-.2 2.25-.14 1.55-.28 3.09-.41 4.63-.03.37-.1.8.42.89.44.07.69-.21.81-.6.08-.28.15-.56.17-.85a66.936 66.936 0 0 0 .2-9.32Zm40.8-.99c-.47.67-.32 1.16-.32 1.61 0 1.56.04 3.12.05 4.68.01.57.01 1.14.02 1.72.03.75-.07 1.11-.53 1.56l-.2.17c-.09-.24-.23-.45-.24-.66-.11-1.6-.23-3.2-.27-4.8-.04-1.23.05-2.46.04-3.69 0-.85.01-1.7 0-2.54h-.37c0 .85-.22 1.71-.64 2.52-.32 2.9-.05 5.8.22 8.69.02.2.04.41.04.61 0 .08-.06.15-.19.44-1.56-.27-3.18-.77-4.46.59-.15-.08-.28-.11-.28-.15-.16-1.55-.42-3.1-.44-4.65 0-.36 0-.72.01-1.08-.3.2-.6.39-.9.6.03 1.13.07 2.25.11 3.37.01.29.02.58.06.86.14 1.18-.19 2.02-1.16 2.88-1.77 1.58-3.35 3.39-4.91 5.19a5.793 5.793 0 0 1-1.67 1.35c-.41.21-.87.4-1.41.56.1-1.65-.38-3.09-.06-4.63.21-1.06.13-2.19-.23-3.45-.08.06-.16.1-.24.14-.42 1.27-.29 2.48-.42 3.64-.15 1.34-.03 2.71-.03 4.06-.09.02-.17.04-.25.06-.08-.18-.23-.35-.24-.54-.14-2.18-.29-4.37-.27-6.57-.38.19-.76.36-1.14.52 0 1.2.05 2.41.09 3.61.04 1.17.13 2.35.2 3.68-.47-.21-.81-.33-1.11-.52-.58-.35-1.16-.61-1.87-.42-.57.15-.85-.15-.9-.71-.03-.41-.07-.82-.1-1.23-.08-1.1-.18-2.2-.26-3.3-.11-1.32-.21-2.63-.26-3.96-.01-.2-.02-.4-.02-.61-.5-.02-1.01-.23-1.52-.47-.45-.21-.9-.41-1.35-.62-.05 1.78-.1 3.56-.12 5.35-.01.15-.01.31-.01.46-.02 1.02.12 2.05.16 3.08 0 .28.04.61-.09.84a.95.95 0 0 1-.63.44c-.16.01-.42-.23-.52-.42-.11-.2-.08-.48-.09-.72-.06-1.06-.1-2.13-.19-3.19-.01-.2-.22-.39-.59-.56-.03.37-.1.75-.1 1.13-.01 1.15.01 2.3 0 3.45-.01.58-.21 1.02-.84 1.21-.34.11-.65.35-.96.55-1.35.84-2.64.7-3.93-.16-.64-.43-1.33-.79-2.03-1.13-1.11-.54-1.21-.69-1.13-1.98.08-1.3.14-2.61.19-3.93.01-.21-.11-.42-.16-.64h-.26c-.05.28-.12.57-.15.85-.11 1.27-.2 2.53-.35 3.79-.02.18-.29.47-.44.46-.4 0-.33-.33-.31-.64.09-1.39.14-2.78.21-4.17.03-.57.07-1.14.12-1.71.03-.24.1-.48.11-.73.03-.77.07-1.53.1-2.3-.31-.19-.62-.38-.93-.58-.19 2.31-.36 4.62-.39 6.95-1.02-.76-1.92-1.44-2.84-2.1-1.82-1.29-3.89-1.93-6.08-2.19-.29-.03-.6-.09-.86-.01-.67.18-1.29.07-1.9-.11.74.54 1.49 1.06 2.25 1.57.17-.01.35-.02.52-.01 1.61.05 3.03.7 4.31 1.65.66.49 1.29 1.02 1.94 1.53.58.45.94 1.04 1.06 1.76.01.06.02.11.04.17.32 1.53 1.37 2.38 2.73 3.06 1.1.54 2.18 1.19 3.14 1.94 1.3 1 2.61 1.37 4.04.83.21-.07.42-.17.64-.29 1.12-.61 2.26-1.19 3.39-1.76.14-.07.31-.08.63-.15.06.49.16.91.17 1.33.03.75.05 1.49.07 2.24.05 1.35.08 2.71.13 4.06.03 1.09.55 1.7 1.4 1.67.88-.03 1.83-.92 1.85-1.82.03-1.42 0-2.85.01-4.28v-.3c0-.64.04-1.29.06-1.97 1.06-.05 1.82.38 2.5.89.15.11.3.22.46.31.67.39 1.38.53 2.19.26.74-.24 1.46-.54 2.19-.82.23-.1.42-.31.65-.35.47-.08.88-.23 1.26-.44.14-.08.28-.16.41-.25.92-.62 1.61-1.54 2.39-2.36.4-.42.79-.84 1.18-1.27 1.56-1.68 3.13-3.38 5.02-4.73.71-.52 1.4-.82 2.29-.54.1.03.19.06.29.08.67-.56 1.32-1.14 1.95-1.72.17-.16.35-.32.52-.49.48-.46.96-.92 1.44-1.39-.1-2.71-.02-5.38-.68-8.21Zm-2.47.57c.42-.81.64-1.67.64-2.52s-.2-1.64-.59-2.41h-.01c.06.55.18 1.1.18 1.65-.01.91-.02 1.82-.15 2.72-.03.19-.05.37-.07.56Zm2.47-.57c-.47.67-.32 1.16-.32 1.61 0 1.56.04 3.12.05 4.68.01.57.01 1.14.02 1.72.03.75-.07 1.11-.53 1.56l.02.03c.48-.46.96-.92 1.44-1.39-.1-2.71-.02-5.38-.68-8.21ZM50.14 65.94c-.06.15-.12.29-.16.44.08-.04.16-.08.24-.14-.02-.1-.05-.2-.08-.3Zm9.98-11.88c-.07-.37-.11-.75-.15-1.13-.55-.28-.63-.16-.68.53v.06c.05 2.2.12 4.4.2 6.59.3-.21.6-.4.9-.6.01-1.82.08-3.64-.27-5.45Zm-31.88 2.06c-.09-.05-.18-.11-.27-.16-.08 1.94-.23 3.86-.38 5.79.31.2.62.39.93.58.08-1.82.16-3.65.22-5.47.01-.15.01-.29.01-.44l-.51-.3Zm8.42 4.81c-.06 1.63-.19 3.26-.26 4.9-.02.42.05.86.14 1.28l.03.18c.03.16.27.4.38.38.14-.02.29-.1.4-.21h.01c.06-.05.1-.1.14-.15.11-.15.11-.39.11-.6.04-1.72.08-3.43.08-5.16-.34-.2-.68-.41-1.03-.62Zm0 0c-.06 1.63-.19 3.26-.26 4.9-.02.42.05.86.14 1.28.26.13.54.24.81.35h.01c.06-.05.1-.1.14-.15.11-.15.11-.39.11-.6.04-1.72.08-3.43.08-5.16-.34-.2-.68-.41-1.03-.62Zm12.22.14c-.3.25-.59.51-.9.72-.1 1.57-.27 3.13-.33 4.69-.01.36-.02.71-.02 1.07.38-.16.76-.33 1.14-.52 0-1.06.05-2.12.15-3.18.09-.92-.02-1.85-.04-2.78Zm-38.01-5.01c-.04-3.75-.14-7.49-.22-11.24 0-.19.02-.38.03-.63-.2.12-.39.23-.59.35-.49.29-.94.61-1.35.94-.13 3.12-.27 6.25-.34 9.37-.01.75-.39 1.06-.93 1.36.21.32.43.63.65.94.66.93 1.37 1.84 2.13 2.69 0-.02 0-.04.02-.05.66-1.17.62-2.47.6-3.73Zm16.29-.58c-.26-.16-.52-.32-.78-.47 0 .46 0 .93-.02 1.39-.02.7-.12 1.39-.19 2.08-.07.75-.13 1.5-.2 2.25-.14 1.55-.28 3.09-.41 4.63-.03.37-.1.8.42.89.44.07.69-.21.81-.6.08-.28.15-.56.17-.85a66.936 66.936 0 0 0 .2-9.32Zm40.8-.99c-.47.67-.32 1.16-.32 1.61 0 1.56.04 3.12.05 4.68.01.57.01 1.14.02 1.72.03.75-.07 1.11-.53 1.56l-.2.17c-.09-.24-.23-.45-.24-.66-.11-1.6-.23-3.2-.27-4.8-.04-1.23.05-2.46.04-3.69 0-.85.01-1.7 0-2.54h-.37c0 .85-.22 1.71-.64 2.52-.32 2.9-.05 5.8.22 8.69.02.2.04.41.04.61 0 .08-.06.15-.19.44-1.56-.27-3.18-.77-4.46.59-.15-.08-.28-.11-.28-.15-.16-1.55-.42-3.1-.44-4.65 0-.36 0-.72.01-1.08-.3.2-.6.39-.9.6.03 1.13.07 2.25.11 3.37.01.29.02.58.06.86.14 1.18-.19 2.02-1.16 2.88-1.77 1.58-3.35 3.39-4.91 5.19a5.793 5.793 0 0 1-1.67 1.35c-.41.21-.87.4-1.41.56.1-1.65-.38-3.09-.06-4.63.21-1.06.13-2.19-.23-3.45-.08.06-.16.1-.24.14-.42 1.27-.29 2.48-.42 3.64-.15 1.34-.03 2.71-.03 4.06-.09.02-.17.04-.25.06-.08-.18-.23-.35-.24-.54-.14-2.18-.29-4.37-.27-6.57-.38.19-.76.36-1.14.52 0 1.2.05 2.41.09 3.61.04 1.17.13 2.35.2 3.68-.47-.21-.81-.33-1.11-.52-.58-.35-1.16-.61-1.87-.42-.57.15-.85-.15-.9-.71-.03-.41-.07-.82-.1-1.23-.08-1.1-.18-2.2-.26-3.3-.11-1.32-.21-2.63-.26-3.96-.01-.2-.02-.4-.02-.61-.5-.02-1.01-.23-1.52-.47-.45-.21-.9-.41-1.35-.62-.05 1.78-.1 3.56-.12 5.35-.01.15-.01.31-.01.46-.02 1.02.12 2.05.16 3.08 0 .28.04.61-.09.84a.95.95 0 0 1-.63.44c-.16.01-.42-.23-.52-.42-.11-.2-.08-.48-.09-.72-.06-1.06-.1-2.13-.19-3.19-.01-.2-.22-.39-.59-.56-.03.37-.1.75-.1 1.13-.01 1.15.01 2.3 0 3.45-.01.58-.21 1.02-.84 1.21-.34.11-.65.35-.96.55-1.35.84-2.64.7-3.93-.16-.64-.43-1.33-.79-2.03-1.13-1.11-.54-1.21-.69-1.13-1.98.08-1.3.14-2.61.19-3.93.01-.21-.11-.42-.16-.64h-.26c-.05.28-.12.57-.15.85-.11 1.27-.2 2.53-.35 3.79-.02.18-.29.47-.44.46-.4 0-.33-.33-.31-.64.09-1.39.14-2.78.21-4.17.03-.57.07-1.14.12-1.71.03-.24.1-.48.11-.73.03-.77.07-1.53.1-2.3-.31-.19-.62-.38-.93-.58-.19 2.31-.36 4.62-.39 6.95-1.02-.76-1.92-1.44-2.84-2.1-1.82-1.29-3.89-1.93-6.08-2.19-.29-.03-.6-.09-.86-.01-.67.18-1.29.07-1.9-.11.74.54 1.49 1.06 2.25 1.57.17-.01.35-.02.52-.01 1.61.05 3.03.7 4.31 1.65.66.49 1.29 1.02 1.94 1.53.58.45.94 1.04 1.06 1.76.01.06.02.11.04.17.32 1.53 1.37 2.38 2.73 3.06 1.1.54 2.18 1.19 3.14 1.94 1.3 1 2.61 1.37 4.04.83.21-.07.42-.17.64-.29 1.12-.61 2.26-1.19 3.39-1.76.14-.07.31-.08.63-.15.06.49.16.91.17 1.33.03.75.05 1.49.07 2.24.05 1.35.08 2.71.13 4.06.03 1.09.55 1.7 1.4 1.67.88-.03 1.83-.92 1.85-1.82.03-1.42 0-2.85.01-4.28v-.3c0-.64.04-1.29.06-1.97 1.06-.05 1.82.38 2.5.89.15.11.3.22.46.31.67.39 1.38.53 2.19.26.74-.24 1.46-.54 2.19-.82.23-.1.42-.31.65-.35.47-.08.88-.23 1.26-.44.14-.08.28-.16.41-.25.92-.62 1.61-1.54 2.39-2.36.4-.42.79-.84 1.18-1.27 1.56-1.68 3.13-3.38 5.02-4.73.71-.52 1.4-.82 2.29-.54.1.03.19.06.29.08.67-.56 1.32-1.14 1.95-1.72.17-.16.35-.32.52-.49.48-.46.96-.92 1.44-1.39-.1-2.71-.02-5.38-.68-8.21Zm-2.47.57c.42-.81.64-1.67.64-2.52s-.2-1.64-.59-2.41h-.01c.06.55.18 1.1.18 1.65-.01.91-.02 1.82-.15 2.72-.03.19-.05.37-.07.56Zm2.47-.57c-.47.67-.32 1.16-.32 1.61 0 1.56.04 3.12.05 4.68.01.57.01 1.14.02 1.72.03.75-.07 1.11-.53 1.56l.02.03c.48-.46.96-.92 1.44-1.39-.1-2.71-.02-5.38-.68-8.21ZM50.14 65.94c-.06.15-.12.29-.16.44.08-.04.16-.08.24-.14-.02-.1-.05-.2-.08-.3Zm9.98-11.88c-.07-.37-.11-.75-.15-1.13-.55-.28-.63-.16-.68.53v.06c.05 2.2.12 4.4.2 6.59.3-.21.6-.4.9-.6.01-1.82.08-3.64-.27-5.45Zm-31.88 2.06c-.09-.05-.18-.11-.27-.16-.08 1.94-.23 3.86-.38 5.79.31.2.62.39.93.58.08-1.82.16-3.65.22-5.47.01-.15.01-.29.01-.44l-.51-.3Zm8.42 4.81c-.06 1.63-.19 3.26-.26 4.9-.02.42.05.86.14 1.28l.03.18c.03.16.27.4.38.38.14-.02.29-.1.4-.21h.01c.06-.05.1-.1.14-.15.11-.15.11-.39.11-.6.04-1.72.08-3.43.08-5.16-.34-.2-.68-.41-1.03-.62Zm12.22.14c-.3.25-.59.51-.9.72-.1 1.57-.27 3.13-.33 4.69-.01.36-.02.71-.02 1.07.38-.16.76-.33 1.14-.52 0-1.06.05-2.12.15-3.18.09-.92-.02-1.85-.04-2.78Zm-38.01-5.01c-.04-3.75-.14-7.49-.22-11.24 0-.19.02-.38.03-.63-.2.12-.39.23-.59.35-.49.29-.94.61-1.35.94-.13 3.12-.27 6.25-.34 9.37-.01.75-.39 1.06-.93 1.36.21.32.43.63.65.94.66.93 1.37 1.84 2.13 2.69 0-.02 0-.04.02-.05.66-1.17.62-2.47.6-3.73Zm16.29-.58c-.26-.16-.52-.32-.78-.47 0 .46 0 .93-.02 1.39-.02.7-.12 1.39-.19 2.08-.07.75-.13 1.5-.2 2.25-.14 1.55-.28 3.09-.41 4.63-.03.37-.1.8.42.89.44.07.69-.21.81-.6.08-.28.15-.56.17-.85a66.936 66.936 0 0 0 .2-9.32Zm40.8-.99c-.47.67-.32 1.16-.32 1.61 0 1.56.04 3.12.05 4.68.01.57.01 1.14.02 1.72.03.75-.07 1.11-.53 1.56l-.2.17c-.09-.24-.23-.45-.24-.66-.11-1.6-.23-3.2-.27-4.8-.04-1.23.05-2.46.04-3.69 0-.85.01-1.7 0-2.54h-.37c0 .85-.22 1.71-.64 2.52-.32 2.9-.05 5.8.22 8.69.02.2.04.41.04.61 0 .08-.06.15-.19.44-1.56-.27-3.18-.77-4.46.59-.15-.08-.28-.11-.28-.15-.16-1.55-.42-3.1-.44-4.65 0-.36 0-.72.01-1.08-.3.2-.6.39-.9.6.03 1.13.07 2.25.11 3.37.01.29.02.58.06.86.14 1.18-.19 2.02-1.16 2.88-1.77 1.58-3.35 3.39-4.91 5.19a5.793 5.793 0 0 1-1.67 1.35c-.41.21-.87.4-1.41.56.1-1.65-.38-3.09-.06-4.63.21-1.06.13-2.19-.23-3.45-.08.06-.16.1-.24.14-.42 1.27-.29 2.48-.42 3.64-.15 1.34-.03 2.71-.03 4.06-.09.02-.17.04-.25.06-.08-.18-.23-.35-.24-.54-.14-2.18-.29-4.37-.27-6.57-.38.19-.76.36-1.14.52 0 1.2.05 2.41.09 3.61.04 1.17.13 2.35.2 3.68-.47-.21-.81-.33-1.11-.52-.58-.35-1.16-.61-1.87-.42-.57.15-.85-.15-.9-.71-.03-.41-.07-.82-.1-1.23-.08-1.1-.18-2.2-.26-3.3-.11-1.32-.21-2.63-.26-3.96-.01-.2-.02-.4-.02-.61-.5-.02-1.01-.23-1.52-.47-.45-.21-.9-.41-1.35-.62-.05 1.78-.1 3.56-.12 5.35-.01.15-.01.31-.01.46-.02 1.02.12 2.05.16 3.08 0 .28.04.61-.09.84a.95.95 0 0 1-.63.44c-.16.01-.42-.23-.52-.42-.11-.2-.08-.48-.09-.72-.06-1.06-.1-2.13-.19-3.19-.01-.2-.22-.39-.59-.56-.03.37-.1.75-.1 1.13-.01 1.15.01 2.3 0 3.45-.01.58-.21 1.02-.84 1.21-.34.11-.65.35-.96.55-1.35.84-2.64.7-3.93-.16-.64-.43-1.33-.79-2.03-1.13-1.11-.54-1.21-.69-1.13-1.98.08-1.3.14-2.61.19-3.93.01-.21-.11-.42-.16-.64h-.26c-.05.28-.12.57-.15.85-.11 1.27-.2 2.53-.35 3.79-.02.18-.29.47-.44.46-.4 0-.33-.33-.31-.64.09-1.39.14-2.78.21-4.17.03-.57.07-1.14.12-1.71.03-.24.1-.48.11-.73.03-.77.07-1.53.1-2.3-.31-.19-.62-.38-.93-.58-.19 2.31-.36 4.62-.39 6.95-1.02-.76-1.92-1.44-2.84-2.1-1.82-1.29-3.89-1.93-6.08-2.19-.29-.03-.6-.09-.86-.01-.67.18-1.29.07-1.9-.11.74.54 1.49 1.06 2.25 1.57.17-.01.35-.02.52-.01 1.61.05 3.03.7 4.31 1.65.66.49 1.29 1.02 1.94 1.53.58.45.94 1.04 1.06 1.76.01.06.02.11.04.17.32 1.53 1.37 2.38 2.73 3.06 1.1.54 2.18 1.19 3.14 1.94 1.3 1 2.61 1.37 4.04.83.21-.07.42-.17.64-.29 1.12-.61 2.26-1.19 3.39-1.76.14-.07.31-.08.63-.15.06.49.16.91.17 1.33.03.75.05 1.49.07 2.24.05 1.35.08 2.71.13 4.06.03 1.09.55 1.7 1.4 1.67.88-.03 1.83-.92 1.85-1.82.03-1.42 0-2.85.01-4.28v-.3c0-.64.04-1.29.06-1.97 1.06-.05 1.82.38 2.5.89.15.11.3.22.46.31.67.39 1.38.53 2.19.26.74-.24 1.46-.54 2.19-.82.23-.1.42-.31.65-.35.47-.08.88-.23 1.26-.44.14-.08.28-.16.41-.25.92-.62 1.61-1.54 2.39-2.36.4-.42.79-.84 1.18-1.27 1.56-1.68 3.13-3.38 5.02-4.73.71-.52 1.4-.82 2.29-.54.1.03.19.06.29.08.67-.56 1.32-1.14 1.95-1.72.17-.16.35-.32.52-.49.48-.46.96-.92 1.44-1.39-.1-2.71-.02-5.38-.68-8.21Zm-40.8.99c-.26-.16-.52-.32-.78-.47 0 .46 0 .93-.02 1.39-.02.7-.12 1.39-.19 2.08-.07.75-.13 1.5-.2 2.25-.14 1.55-.28 3.09-.41 4.63-.03.37-.1.8.42.89.44.07.69-.21.81-.6.08-.28.15-.56.17-.85a66.936 66.936 0 0 0 .2-9.32Zm1.08.64c-.09-.05-.18-.11-.27-.16-.08 1.94-.23 3.86-.38 5.79.31.2.62.39.93.58.08-1.82.16-3.65.22-5.47.01-.15.01-.29.01-.44l-.51-.3Zm8.42 4.81c-.06 1.63-.19 3.26-.26 4.9-.02.42.05.86.14 1.28l.03.18c.03.16.27.4.38.38.14-.02.29-.1.4-.21h.01c.06-.05.1-.1.14-.15.11-.15.11-.39.11-.6.04-1.72.08-3.43.08-5.16-.34-.2-.68-.41-1.03-.62Zm12.22.14c-.3.25-.59.51-.9.72-.1 1.57-.27 3.13-.33 4.69-.01.36-.02.71-.02 1.07.38-.16.76-.33 1.14-.52 0-1.06.05-2.12.15-3.18.09-.92-.02-1.85-.04-2.78Zm1.26 4.87c-.06.15-.12.29-.16.44.08-.04.16-.08.24-.14-.02-.1-.05-.2-.08-.3Zm9.98-11.88c-.07-.37-.11-.75-.15-1.13-.55-.28-.63-.16-.68.53v.06c.05 2.2.12 4.4.2 6.59.3-.21.6-.4.9-.6.01-1.82.08-3.64-.27-5.45ZM36.54 67.11l.03.18c.03.16.27.4.38.38.14-.02.29-.1.4-.21-.27-.11-.55-.22-.81-.35Zm31.42-12.62c-.47.67-.32 1.16-.32 1.61 0 1.56.04 3.12.05 4.68.01.57.01 1.14.02 1.72.03.75-.07 1.11-.53 1.56l-.2.17c-.09-.24-.23-.45-.24-.66-.11-1.6-.23-3.2-.27-4.8-.04-1.23.05-2.46.04-3.69 0-.85.01-1.7 0-2.54h-.37c0 .85-.22 1.71-.64 2.52-.32 2.9-.05 5.8.22 8.69.02.2.04.41.04.61 0 .08-.06.15-.19.44-1.56-.27-3.18-.77-4.46.59-.15-.08-.28-.11-.28-.15-.16-1.55-.42-3.1-.44-4.65 0-.36 0-.72.01-1.08.01-1.82.08-3.64-.27-5.45-.07-.37-.11-.75-.15-1.13-.55-.28-.63-.16-.68.53v.06c.05 2.2.12 4.4.2 6.59.03 1.13.07 2.25.11 3.37.01.29.02.58.06.86.14 1.18-.19 2.02-1.16 2.88-1.77 1.58-3.35 3.39-4.91 5.19a5.793 5.793 0 0 1-1.67 1.35c-.41.21-.87.4-1.41.56.1-1.65-.38-3.09-.06-4.63.21-1.06.13-2.19-.23-3.45-.02-.1-.05-.2-.08-.3-.06.15-.12.29-.16.44-.42 1.27-.29 2.48-.42 3.64-.15 1.34-.03 2.71-.03 4.06-.09.02-.17.04-.25.06-.08-.18-.23-.35-.24-.54-.14-2.18-.29-4.37-.27-6.57 0-1.06.05-2.12.15-3.18.09-.92-.02-1.85-.04-2.78-.3.25-.59.51-.9.72-.1 1.57-.27 3.13-.33 4.69-.01.36-.02.71-.02 1.07 0 1.2.05 2.41.09 3.61.04 1.17.13 2.35.2 3.68-.47-.21-.81-.33-1.11-.52-.58-.35-1.16-.61-1.87-.42-.57.15-.85-.15-.9-.71-.03-.41-.07-.82-.1-1.23-.08-1.1-.18-2.2-.26-3.3-.11-1.32-.21-2.63-.26-3.96-.01-.2-.02-.4-.02-.61-.5-.02-1.01-.23-1.52-.47-.45-.21-.9-.41-1.35-.62-.05 1.78-.1 3.56-.12 5.35-.01.15-.01.31-.01.46-.02 1.02.12 2.05.16 3.08 0 .28.04.61-.09.84a.95.95 0 0 1-.63.44c-.16.01-.42-.23-.52-.42-.11-.2-.08-.48-.09-.72-.06-1.06-.1-2.13-.19-3.19-.01-.2-.22-.39-.59-.56-.03.37-.1.75-.1 1.13-.01 1.15.01 2.3 0 3.45-.01.58-.21 1.02-.84 1.21-.34.11-.65.35-.96.55-1.35.84-2.64.7-3.93-.16-.64-.43-1.33-.79-2.03-1.13-1.11-.54-1.21-.69-1.13-1.98.08-1.3.14-2.61.19-3.93.01-.21-.11-.42-.16-.64h-.26c-.05.28-.12.57-.15.85-.11 1.27-.2 2.53-.35 3.79-.02.18-.29.47-.44.46-.4 0-.33-.33-.31-.64.09-1.39.14-2.78.21-4.17.03-.57.07-1.14.12-1.71.03-.24.1-.48.11-.73.03-.77.07-1.53.1-2.3-.31-.19-.62-.38-.93-.58-.19 2.31-.36 4.62-.39 6.95-1.02-.76-1.92-1.44-2.84-2.1-1.82-1.29-3.89-1.93-6.08-2.19-.29-.03-.6-.09-.86-.01-.67.18-1.29.07-1.9-.11.74.54 1.49 1.06 2.25 1.57.17-.01.35-.02.52-.01 1.61.05 3.03.7 4.31 1.65.66.49 1.29 1.02 1.94 1.53.58.45.94 1.04 1.06 1.76.01.06.02.11.04.17.32 1.53 1.37 2.38 2.73 3.06 1.1.54 2.18 1.19 3.14 1.94 1.3 1 2.61 1.37 4.04.83.21-.07.42-.17.64-.29 1.12-.61 2.26-1.19 3.39-1.76.14-.07.31-.08.63-.15.06.49.16.91.17 1.33.03.75.05 1.49.07 2.24.05 1.35.08 2.71.13 4.06.03 1.09.55 1.7 1.4 1.67.88-.03 1.83-.92 1.85-1.82.03-1.42 0-2.85.01-4.28v-.3c0-.64.04-1.29.06-1.97 1.06-.05 1.82.38 2.5.89.15.11.3.22.46.31.67.39 1.38.53 2.19.26.74-.24 1.46-.54 2.19-.82.23-.1.42-.31.65-.35.47-.08.88-.23 1.26-.44.14-.08.28-.16.41-.25.92-.62 1.61-1.54 2.39-2.36.4-.42.79-.84 1.18-1.27 1.56-1.68 3.13-3.38 5.02-4.73.71-.52 1.4-.82 2.29-.54.1.03.19.06.29.08.67-.56 1.32-1.14 1.95-1.72.17-.16.35-.32.52-.49.48-.46.96-.92 1.44-1.39-.1-2.71-.02-5.38-.68-8.21Zm7.44.54c-.15-1.76-.19-3.53-.24-5.29-.01-.34-.01-.69-.01-1.03-.74-.67-1.49-1.34-2.24-2-.04.9-.07 1.8-.2 2.68-.32 2.07.11 4.11.19 6.16.04 1.19.12 2.38.14 3.57v.04c.98-.68 1.97-1.33 2.95-2.01.16-.11.32-.23.46-.36-.78-.21-.94-.61-1.05-1.76Zm-9.91.03c.42-.81.64-1.67.64-2.52s-.2-1.64-.59-2.41h-.01c.06.55.18 1.1.18 1.65-.01.91-.02 1.82-.15 2.72-.03.19-.05.37-.07.56Zm-54.62 1c-.04-3.75-.14-7.49-.22-11.24 0-.19.02-.38.03-.63-.2.12-.39.23-.59.35-.49.29-.94.61-1.35.94-.13 3.12-.27 6.25-.34 9.37-.01.75-.39 1.06-.93 1.36.21.32.43.63.65.94.66.93 1.37 1.84 2.13 2.69 0-.02 0-.04.02-.05.66-1.17.62-2.47.6-3.73Z"/><path class="cls-1" d="M56.04 11.81c-1.47.86-2.86 1.84-4.06 3.09-.42.45-.86.89-1.24 1.38-.52.68-.49 1.09.02 1.78.55.73 1.22 1.12 1.96 1.12.42 0 .86-.12 1.31-.37.98-.53 1.89-1.18 2.83-1.77 1.26-.78 2.54-1.52 3.55-2.65.13-.15.26-.29.4-.43-1.56-.79-3.14-1.52-4.77-2.15ZM46.91 11c-.55-1.28-1.19-2.52-1.4-3.94-.03-.18-.04-.34-.05-.49-.96-.57-1.93-1.13-2.89-1.67.03.81-.08 1.59-.34 2.41-.67 2.19-1.36 4.4-1.33 6.75.01.66.26 1.12.8 1.41.15.09.31.18.45.27.16.09.3.18.46.26.11.06.21.11.32.15.14.06.29.11.44.13.29.04.6.02.95-.12 1.33-.53 2.15-1.51 2.66-2.77.32-.78.29-1.57-.07-2.39Zm-3.6 24.43c-.1-1.63-.01-3.28-.11-4.92a3.98 3.98 0 0 0-.15-.85c-.19-.66-.56-1.25-1.14-1.73-.32-.27-.65-.45-1-.53l-.17-.03c-.29-.03-.59.02-.89.15-1.88.84-2.94 1.71-3.12 3.6-.02.14-.03.28-.03.42-.06 1.25.19 2.41.67 3.56.15.35.24.71.38 1.16 1.8-.63 3.59-1.26 5.57-.69v-.14Zm12.73-23.62c-1.47.86-2.86 1.84-4.06 3.09-.42.45-.86.89-1.24 1.38-.52.68-.49 1.09.02 1.78.55.73 1.22 1.12 1.96 1.12.42 0 .86-.12 1.31-.37.98-.53 1.89-1.18 2.83-1.77 1.26-.78 2.54-1.52 3.55-2.65.13-.15.26-.29.4-.43-1.56-.79-3.14-1.52-4.77-2.15ZM43.31 35.43c-.1-1.63-.01-3.28-.11-4.92a3.98 3.98 0 0 0-.15-.85c-.19-.66-.56-1.25-1.14-1.73-.32-.27-.65-.45-1-.53l-.17-.03c-.29-.03-.59.02-.89.15-1.88.84-2.94 1.71-3.12 3.6-.02.14-.03.28-.03.42-.06 1.25.19 2.41.67 3.56.15.35.24.71.38 1.16 1.8-.63 3.59-1.26 5.57-.69v-.14ZM46.91 11c-.55-1.28-1.19-2.52-1.4-3.94-.03-.18-.04-.34-.05-.49-.96-.57-1.93-1.13-2.89-1.67.03.81-.08 1.59-.34 2.41-.67 2.19-1.36 4.4-1.33 6.75.01.66.26 1.12.8 1.41.15.09.31.18.45.27.16.09.3.18.46.26.11.06.21.11.32.15.14.06.29.11.44.13.29.04.6.02.95-.12 1.33-.53 2.15-1.51 2.66-2.77.32-.78.29-1.57-.07-2.39Zm9.13.81c-1.47.86-2.86 1.84-4.06 3.09-.42.45-.86.89-1.24 1.38-.52.68-.49 1.09.02 1.78.55.73 1.22 1.12 1.96 1.12.42 0 .86-.12 1.31-.37.98-.53 1.89-1.18 2.83-1.77 1.26-.78 2.54-1.52 3.55-2.65.13-.15.26-.29.4-.43-1.56-.79-3.14-1.52-4.77-2.15ZM43.31 35.43c-.1-1.63-.01-3.28-.11-4.92a3.98 3.98 0 0 0-.15-.85c-.19-.66-.56-1.25-1.14-1.73-.32-.27-.65-.45-1-.53l-.17-.03c-.29-.03-.59.02-.89.15-1.88.84-2.94 1.71-3.12 3.6-.02.14-.03.28-.03.42-.06 1.25.19 2.41.67 3.56.15.35.24.71.38 1.16 1.8-.63 3.59-1.26 5.57-.69v-.14ZM46.91 11c-.55-1.28-1.19-2.52-1.4-3.94-.03-.18-.04-.34-.05-.49-.96-.57-1.93-1.13-2.89-1.67.03.81-.08 1.59-.34 2.41-.67 2.19-1.36 4.4-1.33 6.75.01.66.26 1.12.8 1.41.15.09.31.18.45.27.16.09.3.18.46.26.11.06.21.11.32.15.14.06.29.11.44.13.29.04.6.02.95-.12 1.33-.53 2.15-1.51 2.66-2.77.32-.78.29-1.57-.07-2.39Zm9.13.81c-1.47.86-2.86 1.84-4.06 3.09-.42.45-.86.89-1.24 1.38-.52.68-.49 1.09.02 1.78.55.73 1.22 1.12 1.96 1.12.42 0 .86-.12 1.31-.37.98-.53 1.89-1.18 2.83-1.77 1.26-.78 2.54-1.52 3.55-2.65.13-.15.26-.29.4-.43-1.56-.79-3.14-1.52-4.77-2.15ZM43.31 35.43c-.1-1.63-.01-3.28-.11-4.92a3.98 3.98 0 0 0-.15-.85c-.19-.66-.56-1.25-1.14-1.73-.32-.27-.65-.45-1-.53l-.17-.03c-.29-.03-.59.02-.89.15-1.88.84-2.94 1.71-3.12 3.6-.02.14-.03.28-.03.42-.06 1.25.19 2.41.67 3.56.15.35.24.71.38 1.16 1.8-.63 3.59-1.26 5.57-.69v-.14ZM46.91 11c-.55-1.28-1.19-2.52-1.4-3.94-.03-.18-.04-.34-.05-.49-.96-.57-1.93-1.13-2.89-1.67.03.81-.08 1.59-.34 2.41-.67 2.19-1.36 4.4-1.33 6.75.01.66.26 1.12.8 1.41.15.09.31.18.45.27.16.09.3.18.46.26.11.06.21.11.32.15.14.06.29.11.44.13.29.04.6.02.95-.12 1.33-.53 2.15-1.51 2.66-2.77.32-.78.29-1.57-.07-2.39Zm9.13.81c-1.47.86-2.86 1.84-4.06 3.09-.42.45-.86.89-1.24 1.38-.52.68-.49 1.09.02 1.78.55.73 1.22 1.12 1.96 1.12.42 0 .86-.12 1.31-.37.98-.53 1.89-1.18 2.83-1.77 1.26-.78 2.54-1.52 3.55-2.65.13-.15.26-.29.4-.43-1.56-.79-3.14-1.52-4.77-2.15ZM43.31 35.43c-.1-1.63-.01-3.28-.11-4.92a3.98 3.98 0 0 0-.15-.85c-.19-.66-.56-1.25-1.14-1.73-.32-.27-.65-.45-1-.53l-.17-.03c-.29-.03-.59.02-.89.15-1.88.84-2.94 1.71-3.12 3.6-.02.14-.03.28-.03.42-.06 1.25.19 2.41.67 3.56.15.35.24.71.38 1.16 1.8-.63 3.59-1.26 5.57-.69v-.14ZM46.91 11c-.55-1.28-1.19-2.52-1.4-3.94-.03-.18-.04-.34-.05-.49-.96-.57-1.93-1.13-2.89-1.67.03.81-.08 1.59-.34 2.41-.67 2.19-1.36 4.4-1.33 6.75.01.66.26 1.12.8 1.41.15.09.31.18.45.27.16.09.3.18.46.26.11.06.21.11.32.15.14.06.29.11.44.13.29.04.6.02.95-.12 1.33-.53 2.15-1.51 2.66-2.77.32-.78.29-1.57-.07-2.39Zm9.13.81c-1.47.86-2.86 1.84-4.06 3.09-.42.45-.86.89-1.24 1.38-.52.68-.49 1.09.02 1.78.55.73 1.22 1.12 1.96 1.12.42 0 .86-.12 1.31-.37.98-.53 1.89-1.18 2.83-1.77 1.26-.78 2.54-1.52 3.55-2.65.13-.15.26-.29.4-.43-1.56-.79-3.14-1.52-4.77-2.15ZM43.2 30.51a3.98 3.98 0 0 0-.15-.85c-.19-.66-.56-1.25-1.14-1.73-.32-.27-.65-.45-1-.53l-.17-.03c-.29-.03-.59.02-.89.15-1.88.84-2.94 1.71-3.12 3.6-.02.14-.03.28-.03.42-.06 1.25.19 2.41.67 3.56.15.35.24.71.38 1.16 1.8-.63 3.59-1.26 5.57-.69v-.14c-.1-1.63-.01-3.28-.11-4.92Zm2.31-23.45c-.03-.18-.04-.34-.05-.49-.96-.57-1.93-1.13-2.89-1.67.03.81-.08 1.59-.34 2.41-.67 2.19-1.36 4.4-1.33 6.75.01.66.26 1.12.8 1.41.15.09.31.18.45.27.16.09.3.18.46.26.11.06.21.11.32.15.14.06.29.11.44.13.29.04.6.02.95-.12 1.33-.53 2.15-1.51 2.66-2.77.32-.78.29-1.57-.07-2.39-.55-1.28-1.19-2.52-1.4-3.94Zm31.42 11.8c-.37-.83-.8-1.62-1.16-2.45-.52-1.21-.85-2.53-1.53-3.63-1.38-2.25-3.64-3.66-5.54-5.42-.12-.1-.3-.14-.45-.21-1.45-.68-2.94-1.3-4.35-2.06-2.76-1.49-5.7-2.35-8.79-2.81-.89-.13-1.75-.42-2.63-.64-.92-.23-1.82-.56-2.75-.69-2.64-.38-5.3-.68-7.5-.95-2.04.14-3.62.14-5.15.38-.98.15-1.96.3-2.93.46-2.11.35-4.22.74-6.31 1.19-2.41.51-4.82 1.1-7 2.37-.92.53-1.92.94-2.86 1.45-1.12.61-2.3 1.17-3.29 1.95-.34.26-.67.54-1 .82-.98.84-1.91 1.76-2.84 2.65-.63.6-1.1 1.36-1.75 1.91-1.15.96-1.76 2.19-1.98 3.6-.32 2.03-.49 4.01.45 6.03.42.91.81 1.82 1.23 2.72.61 1.34 1.29 2.64 2.17 3.83.32.43.78.76 1.05 1.21.48.82 1.03 1.57 1.67 2.26 1.31 1.5 2.9 2.73 4.49 3.92a29.7 29.7 0 0 0 2.67 1.8c1.85 1.12 3.84 2 5.98 2.51.25.07.5.12.75.17 2.7.54 5.4 1.14 8.12 1.57.36.06.73.09 1.09.11h.01c.98.05 1.97.01 2.96.02 1.27.02 2.55.09 3.81 0 1.32-.08 2.65-.16 3.97-.26 2.08-.17 4.16-.42 6.22-.87.19-.04.39-.09.58-.14 1.97-.45 3.9-1.03 5.74-1.92.99-.48 2.01-.97 3.06-1.2.09-.03.18-.04.27-.06 1.11-.21 1.99-.75 2.9-1.29.54-.31 1.03-.71 1.58-.98 2.42-1.21 4.48-2.94 6.51-4.68 1.11-.94 2.14-2.13 2.81-3.41.69-1.33 1-2.67 1.01-4.01.01-1.76-.49-3.53-1.29-5.26ZM64.26 6.93c2.11.91 4.16 1.83 5.76 3.52.5.53 1.1.97 1.62 1.49.55.55 1.07 1.13 1.56 1.73.14.16.13.43.26.92-3.52-1.57-6.57-3.66-10.22-4.37.33-1.07.66-2.14 1.02-3.29Zm-21.2-5.65c2.78-.06 5.44.52 8.42.98-.49.16-.72.25-.96.3-.24.06-.48.1-.73.1-2.02.02-4.02.15-5.75 1.34-.91-.7-1.08-1.57-.98-2.72ZM22.91 4.83c1.92-.6 3.83-1.28 5.78-1.72 2.44-.56 4.9-1.02 7.37-1.48.6-.12 1.21-.23 1.81-.35.31-.05.64 0 1.09 0-.22.1-.31.17-.42.2-.57.16-1.15.31-1.72.46-1.25.33-2.5.66-3.73 1.03-2.34.7-4.54 1.73-6.54 3.14-.59.42-1.09.98-1.77 1.6-.51-.35-1.02-.7-1.54-1.06-.47-.32-.95-.65-1.45-.99.2-.52.68-.69 1.12-.83Zm48.88 16.6c-2.09.18-4.19.21-6.29.3-.29.01-.59.01-.86-.06-2.69-.76-5.44-.92-8.21-.93-.61 0-1.23-.13-1.84-.13-.49.01-1 .05-1.45.22-.76.29-1.15.83-1.15 1.43 0 .4.17.83.53 1.22.79.86 1.75 1.39 2.95 1.32 1.48-.1 2.95-.22 4.43-.38 2.8-.3 5.59-.43 8.33.42 1.22.39 1.62.95 1.5 2.2-.21 2.05-1.06 3.81-2.61 5.18-.83.74-1.86.88-2.9.47-1.14-.47-2.26-.99-3.38-1.5-2.1-.97-4.12-2.04-6.02-3.37-1.06-.75-2.35-1.2-3.6-1.62-.62-.21-1.4-.15-2.05.01-.76.19-1.51.64-1.58 1.54-.07.81.34 1.5 1 1.97.01.01.02.01.03.02.58.4 1.16.81 1.79 1.11 1.74.82 3.42 1.82 5.34 2.14.21.04.43.07.65.09.65.06 1.32.04 1.97.09.94.07 1.12.35.93 1.29-.07.33-.18.63-.36.87-.17.23-.4.42-.7.56-1.6.76-3.18 1.56-4.81 2.25-.96.41-1.94.76-2.92 1.09-.42.15-.83.29-1.25.43-.55.18-1.12.27-1.69.37-1.64.29-2.91-.46-3.67-1.75-.45-.75-.52-1.78-.58-2.71v-.14c-.1-1.63-.01-3.28-.11-4.92a3.98 3.98 0 0 0-.15-.85c-.19-.66-.56-1.25-1.14-1.73-.32-.27-.65-.45-1-.53l-.17-.03c-.29-.03-.59.02-.89.15-1.88.84-2.94 1.71-3.12 3.6-.02.14-.03.28-.03.42-.06 1.25.19 2.41.67 3.56.15.35.24.71.38 1.16l.06.21c-.65.15-1.16.37-1.67.37h-.18c-3.4-.02-6.8-.07-10.21-.15-.21 0-.49-.06-.8-.15-.97-.3-2.26-.96-2.88-1.48.33-.34.6-.77.98-1.01 2.07-1.28 4.15-2.52 6.25-3.74 1.5-.87 3.06-1.62 4.19-3.01.46-.56.91-1.08.55-1.87-.39-.86-1.04-1.4-1.98-1.46-1.1-.06-2.17.19-3.06.83-1.73 1.26-3.41 2.59-5.09 3.91-1.89 1.48-4.29 1.79-6.42.84a5.99 5.99 0 0 1-.51-.25c-1.83-1-3.48-2.2-4.76-3.86-.35-.46-.69-.93-.97-1.42-.02-.04-.04-.07-.06-.11-.51-.98-.25-1.76.8-2.18.64-.26 1.36-.44 2.04-.44 1.4-.01 2.79.12 4.19.18.74.03 1.49.09 2.23.07 2.59-.08 5.18-.13 7.77-.31.87-.06 1.74-.41 2.57-.74.43-.18.93-.53.81-1.12-.14-.64-.59-1.09-1.24-1.25a3.79 3.79 0 0 0-1.11-.09c-2.75.19-5.52-.11-8.25.44-.85.16-1.72.2-2.59.24-.44.03-.91-.01-1.34-.13-1.54-.45-2.2-1.45-2.06-3.33.08-.97.27-1.99.68-2.86.69-1.44 1.5-2.85 2.44-4.14 1.01-1.38 3.09-1.62 4.51-.72.19.11.36.25.52.41.7.69 1.35 1.46 1.86 2.29.77 1.24 1.64 2.4 2.79 3.28 1.17.9 2.4 1.74 3.69 2.46 1.3.73 2.79.7 4.23.55.95-.09 1.22-.6.82-1.46-.14-.29-.36-.57-.62-.76-1.56-1.14-3.13-2.27-4.98-2.95-.92-.34-1.86-.63-2.79-.95-.19-.06-.38-.15-.56-.24-1.59-.83-1.65-1.59-.21-2.71 1.85-1.44 4.01-2.26 6.19-3.02.78-.27 1.55-.59 2.35-.75 1.12-.22 2.24-.43 3.36-.6.54-.08 1.09-.16 1.63-.23.81-.1 1.52.61 1.62 1.55.01.17.03.33.03.5.03.81-.08 1.59-.34 2.41-.67 2.19-1.36 4.4-1.33 6.75.01.66.26 1.12.8 1.41.15.09.31.18.45.27.16.09.3.18.46.26.11.06.21.11.32.15.14.06.29.11.44.13.29.04.6.02.95-.12 1.33-.53 2.15-1.51 2.66-2.77.32-.78.29-1.57-.07-2.39-.55-1.28-1.19-2.52-1.4-3.94-.03-.18-.04-.34-.05-.49-.08-1.09.28-1.59 1.54-1.77 2.5-.35 5.01-.56 7.53-.27 1.67.2 3.32.55 4.97.91.54.12 1.06.45 1.53.77 1.42.98 1.1 2.01-.04 2.88-.68.52-1.49.88-2.26 1.27-.91.47-1.81.94-2.69 1.45-1.47.86-2.86 1.84-4.06 3.09-.42.45-.86.89-1.24 1.38-.52.68-.49 1.09.02 1.78.55.73 1.22 1.12 1.96 1.12.42 0 .86-.12 1.31-.37.98-.53 1.89-1.18 2.83-1.77 1.26-.78 2.54-1.52 3.55-2.65.13-.15.26-.29.4-.43.28-.31.57-.61.86-.92.78-.83 1.64-1.06 2.79-.73 2.14.62 3.93 1.9 5.89 2.85 1.15.56 2.21 1.2 3.15 2.11.77.74.97 1.59.84 2.56-.03.29-.26.65-.51.78-.21.11-.43.23-.65.34-.45.23-.92.43-1.39.48ZM46.91 11c-.55-1.28-1.19-2.52-1.4-3.94-.03-.18-.04-.34-.05-.49-.96-.57-1.93-1.13-2.89-1.67.03.81-.08 1.59-.34 2.41-.67 2.19-1.36 4.4-1.33 6.75.01.66.26 1.12.8 1.41.15.09.31.18.45.27.16.09.3.18.46.26.11.06.21.11.32.15.14.06.29.11.44.13.29.04.6.02.95-.12 1.33-.53 2.15-1.51 2.66-2.77.32-.78.29-1.57-.07-2.39Zm-3.6 24.43c-.1-1.63-.01-3.28-.11-4.92a3.98 3.98 0 0 0-.15-.85c-.19-.66-.56-1.25-1.14-1.73-.32-.27-.65-.45-1-.53l-.17-.03c-.29-.03-.59.02-.89.15-1.88.84-2.94 1.71-3.12 3.6-.02.14-.03.28-.03.42-.06 1.25.19 2.41.67 3.56.15.35.24.71.38 1.16 1.8-.63 3.59-1.26 5.57-.69v-.14Zm12.73-23.62c-1.47.86-2.86 1.84-4.06 3.09-.42.45-.86.89-1.24 1.38-.52.68-.49 1.09.02 1.78.55.73 1.22 1.12 1.96 1.12.42 0 .86-.12 1.31-.37.98-.53 1.89-1.18 2.83-1.77 1.26-.78 2.54-1.52 3.55-2.65.13-.15.26-.29.4-.43-1.56-.79-3.14-1.52-4.77-2.15ZM46.91 11c-.55-1.28-1.19-2.52-1.4-3.94-.03-.18-.04-.34-.05-.49-.96-.57-1.93-1.13-2.89-1.67.03.81-.08 1.59-.34 2.41-.67 2.19-1.36 4.4-1.33 6.75.01.66.26 1.12.8 1.41.15.09.31.18.45.27.16.09.3.18.46.26.11.06.21.11.32.15.14.06.29.11.44.13.29.04.6.02.95-.12 1.33-.53 2.15-1.51 2.66-2.77.32-.78.29-1.57-.07-2.39Zm-3.6 24.43c-.1-1.63-.01-3.28-.11-4.92a3.98 3.98 0 0 0-.15-.85c-.19-.66-.56-1.25-1.14-1.73-.32-.27-.65-.45-1-.53l-.17-.03c-.29-.03-.59.02-.89.15-1.88.84-2.94 1.71-3.12 3.6-.02.14-.03.28-.03.42-.06 1.25.19 2.41.67 3.56.15.35.24.71.38 1.16 1.8-.63 3.59-1.26 5.57-.69v-.14Zm12.73-23.62c-1.47.86-2.86 1.84-4.06 3.09-.42.45-.86.89-1.24 1.38-.52.68-.49 1.09.02 1.78.55.73 1.22 1.12 1.96 1.12.42 0 .86-.12 1.31-.37.98-.53 1.89-1.18 2.83-1.77 1.26-.78 2.54-1.52 3.55-2.65.13-.15.26-.29.4-.43-1.56-.79-3.14-1.52-4.77-2.15ZM46.91 11c-.55-1.28-1.19-2.52-1.4-3.94-.03-.18-.04-.34-.05-.49-.96-.57-1.93-1.13-2.89-1.67.03.81-.08 1.59-.34 2.41-.67 2.19-1.36 4.4-1.33 6.75.01.66.26 1.12.8 1.41.15.09.31.18.45.27.16.09.3.18.46.26.11.06.21.11.32.15.14.06.29.11.44.13.29.04.6.02.95-.12 1.33-.53 2.15-1.51 2.66-2.77.32-.78.29-1.57-.07-2.39Zm-3.6 24.43c-.1-1.63-.01-3.28-.11-4.92a3.98 3.98 0 0 0-.15-.85c-.19-.66-.56-1.25-1.14-1.73-.32-.27-.65-.45-1-.53l-.17-.03c-.29-.03-.59.02-.89.15-1.88.84-2.94 1.71-3.12 3.6-.02.14-.03.28-.03.42-.06 1.25.19 2.41.67 3.56.15.35.24.71.38 1.16 1.8-.63 3.59-1.26 5.57-.69v-.14Zm12.73-23.62c-1.47.86-2.86 1.84-4.06 3.09-.42.45-.86.89-1.24 1.38-.52.68-.49 1.09.02 1.78.55.73 1.22 1.12 1.96 1.12.42 0 .86-.12 1.31-.37.98-.53 1.89-1.18 2.83-1.77 1.26-.78 2.54-1.52 3.55-2.65.13-.15.26-.29.4-.43-1.56-.79-3.14-1.52-4.77-2.15ZM46.91 11c-.55-1.28-1.19-2.52-1.4-3.94-.03-.18-.04-.34-.05-.49-.96-.57-1.93-1.13-2.89-1.67.03.81-.08 1.59-.34 2.41-.67 2.19-1.36 4.4-1.33 6.75.01.66.26 1.12.8 1.41.15.09.31.18.45.27.16.09.3.18.46.26.11.06.21.11.32.15.14.06.29.11.44.13.29.04.6.02.95-.12 1.33-.53 2.15-1.51 2.66-2.77.32-.78.29-1.57-.07-2.39Zm-3.6 24.43c-.1-1.63-.01-3.28-.11-4.92a3.98 3.98 0 0 0-.15-.85c-.19-.66-.56-1.25-1.14-1.73-.32-.27-.65-.45-1-.53l-.17-.03c-.29-.03-.59.02-.89.15-1.88.84-2.94 1.71-3.12 3.6-.02.14-.03.28-.03.42-.06 1.25.19 2.41.67 3.56.15.35.24.71.38 1.16 1.8-.63 3.59-1.26 5.57-.69v-.14Zm12.73-23.62c-1.47.86-2.86 1.84-4.06 3.09-.42.45-.86.89-1.24 1.38-.52.68-.49 1.09.02 1.78.55.73 1.22 1.12 1.96 1.12.42 0 .86-.12 1.31-.37.98-.53 1.89-1.18 2.83-1.77 1.26-.78 2.54-1.52 3.55-2.65.13-.15.26-.29.4-.43-1.56-.79-3.14-1.52-4.77-2.15ZM46.91 11c-.55-1.28-1.19-2.52-1.4-3.94-.03-.18-.04-.34-.05-.49-.96-.57-1.93-1.13-2.89-1.67.03.81-.08 1.59-.34 2.41-.67 2.19-1.36 4.4-1.33 6.75.01.66.26 1.12.8 1.41.15.09.31.18.45.27.16.09.3.18.46.26.11.06.21.11.32.15.14.06.29.11.44.13.29.04.6.02.95-.12 1.33-.53 2.15-1.51 2.66-2.77.32-.78.29-1.57-.07-2.39Zm-3.6 24.43c-.1-1.63-.01-3.28-.11-4.92a3.98 3.98 0 0 0-.15-.85c-.19-.66-.56-1.25-1.14-1.73-.32-.27-.65-.45-1-.53l-.17-.03c-.29-.03-.59.02-.89.15-1.88.84-2.94 1.71-3.12 3.6-.02.14-.03.28-.03.42-.06 1.25.19 2.41.67 3.56.15.35.24.71.38 1.16 1.8-.63 3.59-1.26 5.57-.69v-.14Zm12.73-23.62c-1.47.86-2.86 1.84-4.06 3.09-.42.45-.86.89-1.24 1.38-.52.68-.49 1.09.02 1.78.55.73 1.22 1.12 1.96 1.12.42 0 .86-.12 1.31-.37.98-.53 1.89-1.18 2.83-1.77 1.26-.78 2.54-1.52 3.55-2.65.13-.15.26-.29.4-.43-1.56-.79-3.14-1.52-4.77-2.15Z"/><path class="cls-1" d="M45.31 19.14c-.29-.28-.67-.5-1.05-.61-.43-.13-.86-.24-1.3-.32l-.35-.06c-.09-.01-.17-.03-.26-.03a7.711 7.711 0 0 0-.88-.06c-.57 0-1.14.08-1.7.24-.62.18-1.23.5-1.73.9-1.19.95-1.07 2.18.22 3 1.06.67 2.12 1.27 3.39.98.67.12 1.28.12 1.82-.02.86-.23 1.55-.79 2.08-1.72.47-.82.46-1.65-.24-2.3Zm-.91 2.28c-.65.87-1.54 1.17-2.61 1.08-.69-.09-1.39-.12-2.06-.29-.3-.07-.71-.37-.75-.62-.05-.28.25-.64.46-.91.11-.14.36-.23.55-.24 1.35-.04 2.7-.1 4.04-.05.65.03.79.48.37 1.03Z"/><path class="cls-1" d="M49.82 22.33c-.04.38-.26.73-.64 1-1.4 1.02-2.83 2-4.57 2.38-1.11.24-2.16.87-3.37.55-.02 0-.03-.01-.05-.01-.05 0-.11-.03-.16-.04-1.24-.31-2.5-.59-3.73-.94-1.76-.49-2.75-1.9-3.74-3.26-.4-.54-.13-1.62.71-2.48-.03.35-.07.69-.11 1.03-.08.77.1 1.44.64 2.05.89 1.01 1.85 1.87 3.26 2.05.33.04.65.13.96.22 1.7.51 3.32.53 4.85.15 1.28-.31 2.51-.9 3.7-1.71.1-.07.2-.14.31-.19.89-.39 1.59-.92 1.39-2.18.43.45.61.94.55 1.38ZM66.74 15.93c-.27-.18-.59-.29-.89-.4-.75-.26-1.46-.21-2.14-.03-.65.17-1.28.45-1.89.69-1.07.41-1.11 2.02-.11 2.64.67.41 1.51.56 1.98.72 1.33-.15 2.31-.23 3.13-.89.38-.3.62-.65.72-1 .18-.62-.08-1.27-.8-1.73Zm-1.19 1.94c-.41.24-.89.36-1.39.54-.48-.18-.98-.27-1.37-.53-.47-.31-.35-.9.2-1.01.72-.14 1.47-.21 2.21-.21.25.01.59.28.71.52.07.15-.16.57-.36.69ZM33.97 32.61c-.41-.54-.93-.99-1.36-1.09-.6-.14-1.22-.2-1.76.27-.27.25-.61.42-.9.64-.72.55-1.03 1.34-.82 2.17 0 .02.01.04.02.05.21.81.92 1.16 1.76 1.2.28.02.57.04.86.05.89.06 1.74-.07 2.39-.74.23-.25.46-.61.48-.93.04-.44-.26-1.07-.67-1.62Zm-.96 1.58c-.2.36-.74.54-1.12.79-.63-.12-1.11-.24-1.33-.76-.02-.05-.04-.1-.05-.15-.12-.47.13-.86.51-1.14.44-.33.92-.3 1.34.09.06.06.13.12.2.17.33.27.69.56.45 1ZM22.35 11.83c-.23-.08-.48-.19-.71-.17-.6.07-1.26.09-1.77.36-.3.15-.38.75-.56 1.14-.05.11-.11.22-.15.34-.5 1.52.03 2.38 1.58 2.6.25.04.49.07.74.1 1.19.03 2.26-.89 2.48-2.14.19-1.1-.31-1.8-1.61-2.23Zm-1.31 3.21c-.61-.02-.95-.34-.93-.9.02-.61.7-1.26 1.3-1.25.54.01 1.03.41 1.03.86 0 .67-.69 1.3-1.4 1.29ZM64.73 27.71c-.97-1.68-3.48-1.96-4.78-.54-.58.63-.58 1.53-.05 2.24.65.89 1.59 1.08 2.42 1.14.89.01 1.69-.31 2.16-.81.56-.59.65-1.35.25-2.03Zm-2.27 1.68c-.84-.01-1.57-.63-1.52-1.27.05-.48.48-.8 1.07-.78.75.03 1.45.62 1.45 1.23 0 .51-.39.83-1 .82ZM18.57 26.06v.07c-.44-.07-.9-.08-1.32-.22-.33-.11-.68-.33-.89-.6-.17-.23-.27-.66-.16-.9.1-.21.56-.43.78-.37.54.14 1.08.32 1.61.52-.05-.47-.18-.84-.39-1.12-.25-.02-.5-.04-.75-.07-.32-.04-.65-.13-.97-.13-1.29.02-1.95 1.06-1.35 2.2.21.41.6.83 1.01 1 .74.31 1.54.48 2.31.69.08-.35.13-.71.16-1.07h-.03Zm2.14-1.99c-.46-.27-1.05-.38-1.59-.5-.3-.06-.62-.1-.93-.13-.25-.02-.5-.04-.75-.07-.32-.04-.65-.13-.97-.13-1.29.02-1.95 1.06-1.35 2.2.21.41.6.83 1.01 1 .74.31 1.54.48 2.31.69l.24.06c.02-.06.04-.12.05-.18.41 0 .82.02 1.23-.01.8-.04 1.22-.5 1.45-1.26.23-.79-.11-1.32-.7-1.67Zm-1.41 1.98c-.22.06-.46.01-.7.01h-.03v.07c-.44-.07-.9-.08-1.32-.22-.33-.11-.68-.33-.89-.6-.17-.23-.27-.66-.16-.9.1-.21.56-.43.78-.37.54.14 1.08.32 1.61.52.35.13.69.27 1.03.42.16.07.27.48.24.72-.01.14-.34.29-.55.35ZM50.15 34.07c-.13-.09-.26-.19-.41-.27-.84-.47-1.74-.46-2.62-.21-.91.25-.86 1.07-.96 1.8-.06.44-.05.81.04 1.13h.01c.2.77.84 1.19 1.92 1.21h.02s.06.01.09.01c.3-.03.67-.05 1.04-.1.83-.12 1.7-.83 1.83-1.59.15-.86-.28-1.49-.96-1.98Zm-1.73 2.53c-.73.02-1.07-.26-1.08-.86 0-.65.35-1.14.85-1.17.64-.04 1.47.58 1.45 1.07-.02.55-.53.95-1.22.96ZM36.8 6.14c-1.1-.12-2.36.67-2.83 1.75-.3.7-.24 1.18.44 1.59.62.37 1.35.53 2.03.78 1.3-.12 2.26-.98 2.38-2.21.09-.94-.8-1.78-2.02-1.91Zm-.2 2.62c-.34.11-.78-.03-1.16-.12-.08-.02-.21-.34-.16-.41.21-.27.43-.62.73-.72.3-.11.69.02 1.03.08.07.02.1.2.21.42-.2.25-.38.66-.65.75ZM53.14 6.6c-1.25.03-2.17.7-3.04 1.43-.3.25-.41.63-.36 1 .03.37.23.72.56.94.57.36 1.26.53 1.89.79.22-.02.43-.05.62-.11.81-.2 1.4-.68 1.84-1.43.78-1.32-.36-2.65-1.51-2.62Zm.09 1.88c-.17.53-.53.9-1.24 1.05-.18-.14-.51-.29-.62-.53-.07-.18.15-.49.26-.73.03-.07.12-.11.19-.15.38-.25.78-.54 1.23-.25.14.09.23.44.18.61Z"/></g></svg>