<?xml version="1.0" encoding="UTF-8"?>
<svg id="Layer_2" xmlns="http://www.w3.org/2000/svg" viewBox="0 0 58.54 47.63">
  <defs>
    <style>
      .cls-1 {
        font-family: Futura-Medium, Futura;
        font-size: 11px;
        font-weight: 500;
      }
    </style>
  </defs>
  <g id="Layer_2-2" data-name="Layer_2">
    <g>
      <path d="M28.62,47.63c-2.27,0-4.03-.67-5.16-1.17l.53-1.19c1.11.49,2.63,1.06,4.61,1.06l.05.95-.02.35h0ZM33.81,46.31l-.62-1.14.18-.1c.91-.35,1.67-.79,2.35-1.32l.11-.07c.56-.28,1.09-.6,1.63-.99l.76,1.05c-.57.41-1.16.77-1.75,1.07-.77.6-1.63,1.08-2.55,1.43l-.11.07ZM18.87,44.2c-.3-.18-.59-.35-.85-.51l-.13-.08c-.22-.13-.43-.26-.65-.38-.18-.1-.37-.19-.55-.29l-.16-.08c-.43-.22-.87-.44-1.3-.67-.27-.15-.53-.3-.77-.44l.66-1.12c.23.13.47.28.73.42.41.23.83.44,1.25.65l.16.08c.2.1.4.2.6.31.23.13.46.27.69.41l.11.07c.28.17.55.33.85.51l-.65,1.12ZM42.33,40.92l-.34-.55-.4-.52.13-.09c.25-.13.54-.3.84-.49l.47-.26.8-.46c.38-.22.75-.44,1.13-.64.31-.14.7-.3,1.14-.53l.6,1.15c-.48.25-.9.43-1.17.55-.32.18-.68.39-1.05.6l-1.2.68c-.36.23-.68.41-.96.56ZM10.13,39.18l-.1-.06c-.93-.55-1.85-1.11-2.76-1.67-.49-.3-.97-.6-1.46-.91l.69-1.1c.48.3.96.6,1.44.9.91.56,1.83,1.11,2.74,1.66l.1.06-.66,1.12ZM51.08,35.91l-.74-1.07c.78-.54,1.47-1.18,2.04-1.91.4-.5.74-1.04,1.02-1.6l1.16.58c-.32.64-.71,1.25-1.16,1.83-.66.83-1.44,1.57-2.33,2.18ZM1.87,33.08c-1.08-1.5-1.71-3.17-1.87-4.98l1.29-.11c.14,1.57.69,3.03,1.63,4.34l-1.05.76ZM54.29,26.79c-.02-.2-.04-.4-.07-.6-.21-1.36-.73-2.62-1.55-3.73l1.05-.77c.94,1.29,1.54,2.73,1.79,4.3.04.23.06.46.08.69l-1.29.11ZM2.17,23.44l-1.16-.58c.78-1.55,1.96-2.89,3.52-3.97l.74,1.07c-1.37.96-2.42,2.13-3.1,3.49ZM49.05,19.35c-.42-.26-.85-.5-1.32-.71-.25-.12-.5-.22-.75-.33-.5-.27-.92-.51-1.33-.75l-1.02-.59.65-1.13,1.02.59c.4.23.81.47,1.22.69.23.09.49.2.76.33.51.24.99.5,1.46.79l-.69,1.11ZM40.32,14.24c-1.27-.97-2.54-1.61-3.51-2.07l-.15-.1c-.17-.15-.37-.31-.6-.49l.79-1.03c.23.17.43.34.6.49,1.01.48,2.33,1.15,3.66,2.17l-.79,1.03ZM31.8,9.23c-1.46-.61-3.03-.83-4.62-.67l-.13-1.29c1.8-.18,3.6.08,5.25.76l-.5,1.2Z"/>
      <text class="cls-1" transform="translate(7.7 19.72) rotate(-36.83)"><tspan x="0" y="0">C</tspan></text>
      <text class="cls-1" transform="translate(13.85 15.55) rotate(-30.03)"><tspan x="0" y="0">P</tspan></text>
      <text class="cls-1" transform="translate(18.81 12.47) rotate(-26.97)"><tspan x="0" y="0">U</tspan></text>
    </g>
  </g>
</svg>