<?xml version="1.0" encoding="UTF-8"?>
<svg id="Layer_2" xmlns="http://www.w3.org/2000/svg" viewBox="0 0 122.92 91.06">
  <defs>
    <style>
      .cls-1 {
        font-family: Futura-Medium, Futura;
        font-size: 11px;
        font-weight: 500;
      }
    </style>
  </defs>
  <g id="Layer_2-2" data-name="Layer_2">
    <g>
      <path d="M65.51,89.92c-1.82-.32-3.43-.98-4.81-1.96l.76-1.06c1.21.87,2.65,1.45,4.28,1.73l-.22,1.28ZM70.66,89.87l-.24-1.28c.27-.05.54-.11.8-.18,1.16-.28,2.32-.73,3.65-1.43l.61,1.15c-1.41.75-2.7,1.25-3.95,1.55-.28.07-.57.13-.87.19ZM79.74,85.53l-.69-1.1c.62-.39,1.24-.77,1.86-1.12.81-.47,1.64-.92,2.48-1.35l.6,1.15c-.82.43-1.63.86-2.43,1.33-.61.35-1.21.72-1.81,1.09ZM57.3,84.04c-.4-.72-.74-1.5-1.02-2.31-.3-.85-.48-1.68-.66-2.52l1.27-.26c.16.8.33,1.58.61,2.35.26.75.57,1.46.94,2.12l-1.14.63ZM88.37,80.79l-.63-1.14c1.34-.74,2.74-1.54,4.27-2.45l.66,1.12c-1.54.92-2.95,1.72-4.3,2.47ZM96.91,75.76l-.68-1.11.88-.54c.43-.26.86-.53,1.29-.8.68-.43,1.37-.85,2.06-1.25l.65,1.13c-.68.39-1.35.81-2.02,1.23-.43.27-.87.54-1.3.8l-.88.54ZM54.01,74.95l-.13-.15c-.77-.83-1.96-1.37-2.91-1.74l-.94-.36.46-1.21.94.36c1.09.43,2.45,1.05,3.4,2.07l.16.18-.98.86ZM110.26,71.59l-.93-.07c-1.34-.1-2.79-.18-3.88-.03l-.17-1.29c.5-.07,1.04-.1,1.64-.1.84,0,1.68.06,2.5.12l.92.07-.08,1.3ZM115.39,71.11l-.4-1.24c1.44-.47,2.72-1.32,3.78-2.52l.97.86c-1.22,1.38-2.69,2.35-4.35,2.89ZM45.41,70.85c-.54-.23-1.07-.46-1.6-.69l-2.94-1.31.53-1.19,2.93,1.31c.52.23,1.05.45,1.58.68l-.51,1.2ZM36.35,66.93l-.55-.22c-1.4-.51-2.76-1.12-4.04-1.78l.6-1.15c1.23.64,2.54,1.22,3.9,1.72l.57.22-.47,1.21ZM122.26,63.7l-1.24-.39c.4-1.25.6-2.55.6-3.87v-.17c0-.21,0-.42-.01-.63l1.3-.04c0,.22.01.43.01.65v.18c0,1.45-.22,2.89-.66,4.26ZM27.49,62.25c-1.16-.86-2.27-1.71-3.37-2.55l-.58-.44.79-1.03.58.44c1.1.84,2.2,1.69,3.33,2.53l-.75,1.06ZM19.61,56.3c-1.47-1.06-2.79-1.96-4.05-2.76l.69-1.1c1.28.81,2.63,1.72,4.12,2.8l-.76,1.05ZM121.16,53.77v-.09s-.13-1.06-.13-1.06c-.14-1.25-.29-2.54-.57-3.76l1.27-.29c.3,1.29.45,2.62.59,3.91l.14,1.21-1.29.09ZM11.39,50.82c-1.64-1.15-2.86-2.2-3.87-3.29l.96-.88c.94,1.02,2.1,2.01,3.66,3.1l-.75,1.06ZM118.6,44.53c-.83-1.34-1.83-2.61-2.96-3.78l.94-.9c1.19,1.24,2.24,2.58,3.13,3.99l-1.1.69ZM4.79,43.15c-.51-1.4-.79-3-.89-5.04l1.3-.06c.09,1.9.35,3.38.81,4.66l-1.22.44ZM111.96,37.68c-.75-.49-1.52-.91-2.27-1.25-.6-.26-1.25-.47-2.03-.68l.33-1.26c.83.22,1.56.46,2.22.75.82.37,1.65.82,2.46,1.35l-.71,1.09ZM102.83,34.62c-.41-.12-.82-.26-1.23-.42-1.11-.41-2.27-.92-3.45-1.53l.6-1.16c1.13.58,2.24,1.08,3.31,1.47.39.15.76.28,1.13.39l-.37,1.25ZM3.85,33.14v-1.42c0-1.07.01-2.33.14-3.59l1.29.13c-.12,1.2-.14,2.42-.14,3.46v1.41s-1.29,0-1.29,0ZM93.84,30.15c-1.15-.75-2.28-1.53-3.4-2.31l-.7-.48.74-1.07.7.48c1.11.77,2.24,1.54,3.37,2.29l-.71,1.09ZM6.5,23.75l-1.16-.58c.72-1.44,1.75-2.83,3.06-4.12l.91.92c-1.22,1.21-2.14,2.45-2.81,3.78ZM13.08,16.97l-.72-1.08c1.21-.8,2.58-1.61,4.32-2.54l.61,1.15c-1.7.91-3.04,1.7-4.21,2.47ZM21.59,11.93l-.74-1.07c.85-.58,1.69-1.19,2.53-1.8.49-.36.99-.72,1.48-1.07l.75,1.06c-.49.35-.98.71-1.47,1.06-.85.62-1.69,1.23-2.55,1.82ZM60.89,8.8c-1.37-.6-2.97-1.3-4.53-2.04l.56-1.18c1.54.73,3.13,1.43,4.49,2.02l-.52,1.19ZM29.75,6.39l-.69-1.1c1.67-1.05,3.05-1.85,4.32-2.51l.6,1.16c-1.24.64-2.58,1.42-4.23,2.45ZM51.94,4.44l-.37-.22c-1.27-.75-2.59-1.52-3.91-2.07l.5-1.2c1.4.58,2.75,1.38,4.07,2.15l.37.22-.66,1.12ZM38.42,2.08l-.38-1.24c1.75-.53,3.4-.81,5.04-.83l.02,1.3c-1.52.02-3.05.28-4.68.78Z"/>
      <text class="cls-1" transform="translate(64.01 12.87) rotate(31.35)"><tspan x="0" y="0">G</tspan></text>
      <text class="cls-1" transform="translate(71.44 17.64) rotate(39.67)"><tspan x="0" y="0">P</tspan></text>
      <text class="cls-1" transform="translate(76.01 21.71) rotate(36.53)"><tspan x="0" y="0">U</tspan></text>
    </g>
  </g>
</svg>