<svg id="Layer_2" data-name="Layer 2" xmlns="http://www.w3.org/2000/svg" viewBox="0 0 249.45 178.33"><defs><style>.cls-1{stroke-width:0}</style></defs><g id="Layer_2-2" data-name="Layer 2"><path class="cls-1" d="M244.08 116.19c-1.04-.4-2.17-.59-3.25-.9-2.4-.69-2.98-1.42-3.09-3.88-.02-.31-.01-.62.03-.92.14-1.09-.46-2.51.49-3.21 1.09-.79 1.98.61 2.98.99 2.69 1.03 4.89-.04 5.69-2.81.77-2.63-.01-5.01-1.67-6.86-2.93-3.28-5.41-6.91-8.46-10.09-3.82-3.98-8.18-5.58-13.53-4.07-2.75.78-5.18.82-7.18-1.71-.84-1.06-2.33-1.25-3.61-1.58-2.21-.55-4.12-1.6-6.05-2.83-2.82-1.81-5.79-3.53-8.91-4.73-4.66-1.79-8.89-4.3-12.48-7.61-3.81-3.52-8.13-6.23-12.52-8.73-9.06-5.16-17.09-11.59-24.44-18.83-5.81-5.73-12.52-9.76-19.84-13.05-5.96-2.68-11.82-5.6-17.88-8.04-7.58-3.06-15.05-6.31-22.23-10.26-2.99-1.65-5.61-3.73-8.29-5.75C78.2.09 76.81-.44 74.82.4c-1.58.66-3.33 1.05-5.04 1.25-4.2.5-7.82 2.15-11.03 4.89-2.03 1.73-4.37 3.03-6.78 4.15-4.09 1.9-7.45 5.02-11.62 6.8-.94.4-1.58 1.34-1.79 2.39-.29 1.46-1.32 2.11-2.46 2.9-5.07 3.54-10.9 5.57-16.3 8.45-3.51 1.87-7.03 3.74-10.41 5.84-3.05 1.9-5.51 4.53-7.8 7.3C.54 45.64.23 47.1.18 48.65c-.05 1.53-.01 3.06-.01 4.6-.04 2.35.12 4.7.44 7.03.55 4-.05 8-.53 11.9-.6 4.9 1.4 8.35 5.09 10.64 6.08 3.77 11.68 8.27 18.06 11.55 5.6 2.88 10.02 7.37 14.99 11.1 1.8 1.34 3.49 2.85 5.38 4.06 3.02 1.94 5.88 4.01 8.42 6.59 2.43 2.47 5.78 3.44 8.97 4.48 5.45 1.77 10.77 3.82 15.86 6.46.45.24.87.57 1.35.71 5.1 1.54 9.55 4.7 14.52 6.33 6.42 2.1 12.53 4.96 19 6.9 4.29 1.29 8.49 2.91 12.6 4.73 1.78.79 2.5 1.9 2.29 3.79-.1.9-.02 1.84.08 2.75.28 2.44 1.06 3.11 3.57 3.26 1.56.09 3.04-.27 4.51-.73.81-.26 1.69-.47 2.07.57.39 1.06.22 2.18-.96 2.55-2.6.81-4.47 2.87-6.94 3.86-2.33.93-3.26 2.81-3.06 5.13.28 3.07 1.25 5.97 2.68 8.72.84 1.61 2.27 2.32 3.96 2.53 4.75.59 9.21-.25 13.03-3.23 4.2-3.26 8.38-6.53 13.17-8.89 4.75-2.34 9.58-4.55 14.25-7.04 4.22-2.26 8.28-4.84 12.42-7.27 3.17-1.86 6.38-3.64 9.51-5.57 5.37-3.32 10.64-6.81 16.04-10.08 2.76-1.68 5.71-3.09 8.87-3.91 2.96-.77 5.95-1.41 8.91-2.19 1.65-.43 3.17-.33 4.78.32a96.23 96.23 0 0 0 7.8 2.77c4.05 1.24 6.6-.34 7.36-4.44.2-1.1.39-2.21.57-3.32.77-4.5-.89-7.48-5.19-9.12Zm-78.04-33.06c.1-.61.17-1.22.24-1.82.57-5.28 1.49-10.51 1.58-15.84.03-2.09.41-4.19.66-6.64 5.26 3.19 10.26 6.09 14.65 9.94 2.46 2.16 5.06 4.22 8.07 5.53 4.97 2.15 9.93 4.27 14.58 7.1 1.81 1.1 3.79 2.01 5.94 2.41 1.22.22 2.3.79 3.52 1.86-1.16 1.35-2.35 2.26-3.8 2.84-.75.3-1.54.59-2.22 1.02-6.12 3.88-12.22 7.79-18.33 11.7-2.24 1.44-2.88 1.37-4.78-.48-.73-.71-1.52-1.36-2.27-2.04-2.8-2.58-6.49-3.83-9.35-6.35a24.977 24.977 0 0 0-5.59-3.75c-2.31-1.12-3.29-2.93-2.89-5.47ZM5.88 46.04c2.9-2.84 5.31-6.22 9.31-7.77 1.32-.51 2.48-1.42 3.74-2.09 2.6-1.4 4.84-3.43 7.68-4.42 3.86-1.34 7.6-2.85 10.6-5.87 1.86-1.87 3.74-1.67 5.57.2 1.95 1.98 4.14 3.62 6.39 5.23 3.73 2.67 7.34 5.54 10.95 8.36 1.92 1.5 1.9 1.68.1 3.53-1.14 1.17-2.67 2.07-3.3 3.59-2.13 5.17-4.71 10.22-4.48 16.07.1 2.73.69 5.32 2.41 7.45 2.49 3.08 4.74 6.36 7.76 9.02 5.54 4.87 11.46 8.8 19.03 9.75 2.91.37 5.8 1.1 8.6 2.13 3.38 1.25 6.85 2.11 8.73 1.92 7-.25 12.18-.73 17.19-2.27 3.23-.99 6.73-.96 9.8-2.27 5.06-2.14 10.03-4.55 14.06-8.49 1.45-1.42 3.21-2.53 4.72-3.9 5.31-4.8 7.77-10.58 6.21-17.83-.81-3.75-2.57-7.09-4.09-10.54-.93-2.1-2.3-3.85-4.01-5.35-2.55-2.23-5.29-4.28-8.33-5.7-9.24-4.32-18.91-7.01-29.24-7.09-3.9-.03-7.77.19-11.61.7-5.25.7-10.56 1.01-15.71 2.41-2.69.74-5.27 1.73-7.67 3.05-3.55 1.95-6.37 1.5-9.37-1.22-3.09-2.81-6.45-5.38-10.18-7.32-2.21-1.14-4.15-2.59-6.01-4.2-2.06-1.79-1.79-2.85.53-4.39 4.76-3.16 9.96-5.65 14.49-9.09 3.71-2.82 7.34-5.43 12.04-6.13.1-.01.19-.07.28-.12 1.45-.73 2.64-.37 3.97.51 4.42 2.91 8.6 6.17 13.38 8.54 3.84 1.91 7.57 4.08 11.59 5.56 9.12 3.35 17.9 7.49 26.78 11.41 5.15 2.27 10.25 4.66 14.3 8.72 2.53 2.53 5.14 4.98 7.93 7.21 4.06 3.24 7.54 7.23 12.15 9.75 2.15 1.18 2.76 2.8 2.45 5.06-.53 4.04-1 8.11-1.51 12.16-.47 3.75-.91 7.5-1.43 11.24-.53 3.79.71 6.67 4.21 8.32 3.08 1.46 5.64 3.67 8.35 5.65 2.64 1.93 5.55 3.49 7.92 5.77 1.19 1.14 1.2 1.55-.07 2.32-2.44 1.49-4.84 3.11-7.43 4.27-4.58 2.04-8.71 4.87-13.14 7.17-6.06 3.15-12.34 5.97-17.74 10.28-.68.55-1.27.61-1.75-.24-1.26-2.19-3.4-3.17-5.61-4.02-1.54-.59-2.96-1.41-4.26-2.4a660.4 660.4 0 0 1-9.37-7.39c-.88-.71-1.72-1.43-2.75-1.92-5.73-2.68-11.55-5.16-17.33-7.75-8-3.59-16.25-6.65-24.37-9.96-.95-.39-1.87-.84-2.77-1.3-3.29-1.67-6.69-3.02-10.3-3.88-3.39-.81-6.75-2.05-9.42-4.28-6.61-5.54-13.97-10-21.19-14.58C24.61 63.24 15.5 55.73 6.11 48.53c-1.06-.82-1.18-1.63-.25-2.54Zm71.61 11.4c-.54-.29-1.09-.59-1.67-.75-2.25-.65-4.51-1.29-6.79-1.87-1.49-.38-2.94-.88-4.29-1.6-2.03-1.09-2.51-2.04-2-4.24.43-1.88 1.02-3.74 1.63-5.59.42-1.25 1.41-2.05 2.69-2.27 3.44-.58 6.75-.53 9.31 2.4.53.62 1.12 1.2 1.74 1.72.73.62 1.54.48 2.26-.05.79-.58.42-1.25.08-1.9-.28-.55-.52-1.12-.83-1.64-.91-1.5-.6-2.77.27-4.26 1.54-2.66 3.94-3.31 6.69-3.54 1.94-.16 2.6.2 3.07 2.11.52 2.11.12 4.28.32 6.42.08.97-.69 1.39-1.41 1.83-1.57.95-3.28 1.65-4.74 2.8-3.37 2.64-4.51 5.6-3.26 9.7.95 3.12 2.35 6.09 2.68 9.39.14 1.36 1.18 1.87 2.49 1.52.69-.18 1.32-.54 1.98-.82 3.09-1.28 5.79.16 6.4 3.44.13.7.05 1.43.15 2.14.27 1.97 1.07 2.34 2.55 1.09 1.41-1.18 2.7-2.5 4.06-3.74 2.14-1.96 5.37-1.4 6.62 1.21.39.82.59 1.74.81 2.63.33 1.33 1.05 2.44 1.83 3.51.45.61 1.02 1.06 1.82.71.84-.38 1.26-1.09 1.02-2-.28-1.08-.64-2.15-1.02-3.2-.57-1.6-.76-3.19-.03-4.78.62-1.36 1.94-2.12 2.92-1.37 1.51 1.15 3.25 1.57 4.92 2.27 1.79.75 3.55 2.03 4.21 3.85.88 2.44 2.41 4.47 3.56 6.73.51 1.01.83 2.08 1 3.2.34 2.31.06 2.91-2.18 3.59-1.65.51-3.36.88-5.07 1.2-3.29.62-3.35.59-5.03-2.39-1.05-1.86-1.82-3.89-3.74-5.65-1.59 3.28-2.89 6.37-4.66 9.24-.78 1.26-1.7 1.88-3.16 2.03-3.97.4-7.86-.34-11.39-1.79-2.13-.88-4.94-2.3-4.29-5.87.2-1.14-1.16-1.64-2.22-.97-.9.57-1.3 1.55-1.86 2.4-.63.96-1.34 1.84-2.69 1.65-6.6-.92-11.81-4.22-15.9-9.39-.19-.23-.28-.54-.41-.82-.83-1.74-.73-2.1 1.07-2.57 1.78-.45 3.64-.54 5.32-1.37.93-.46 2.63-.51 2.02-2.05-.47-1.2-1.8-.44-2.73-.19-2.57.69-5.16 1.32-7.84 1.28-3.53-.05-6.81-3.26-7.05-6.78-.09-1.32-.26-2.64-.31-3.97-.1-2.1.71-3.02 2.78-3.22.51-.06 1.02-.07 1.53-.05 4.49.19 8.97.52 13.36 1.56.99.24 2 .43 3 .6.41.07.84-.08.96-.55.11-.46-.21-.77-.57-.96Zm26.12-19.05c1.54-.35 2.08-1.43 2.87-2.17 1.06-1.01 2.29-1.61 3.61-2.21 3.43-1.59 6.77-.85 10.14.07 2.9.79 3.29 1.9 1.26 4.2-1.75 1.97-3.72 3.76-5.59 5.64-.87.88-1.56.64-2.26-.26-2.67-3.47-6.09-3.89-10.12-2.77-2.93.82-5.99 1.16-9 1.63-.98.15-2.1.25-2.61-.99-.59-1.41 1.31-7.34 2.61-8.19.17-.11.36-.22.55-.25 2.72-.37 5.42-1.07 8.19-.78 1.67.17 2.08.96 1.45 2.54-.43 1.08-1.47 1.96-1.11 3.55Zm26.45 15.24c4.93-1.01 9.73-.2 14.57.68 1.94.35 3.14 1.22 3.62 3.17.27 1.1.48 2.18.51 3.31.05 2.93-.58 3.71-3.45 3.8-2.24.07-4.49-.06-6.73-.1-.6 0-1.37-.18-1.49.63-.1.69.53 1.07 1.13 1.25 1.68.5 3.27 1.17 4.61 2.32 3.09 2.63 2.99 3.2-.26 5.55-1.79 1.29-3.5 1.71-5.34.47-3.09-2.09-6.74-2.73-10.11-4.11-2.81-1.15-5.2-2.82-7.38-4.8-1.52-1.38-1.05-3.08.74-3.88.81-.36 1.36.16 2.02.35 1.16.34 2.3.94 3.56.59.25-.07.52-.32.65-.55.16-.28.02-.61-.26-.79-.34-.22-.69-.48-1.07-.56-2.5-.56-3.17-2.21-2.94-4.56.22-2.24-.51-4.21-1.97-5.94-.79-.93-1.4-2.04-2.27-2.88-1.22-1.16-.93-2.14.08-3.12 1.16-1.14 2.28-2.39 3.62-3.29 3.62-2.42 7.76-2.66 11.76-1.57 2.49.68 4.6 2.6 6.67 4.25 1.18.93.97 2.12.14 3.25-1.11 1.49-2.76 2.22-4.4 2.61-2.87.68-5.38 2.48-8.42 2.57-.39.01-.77.26-.96.95 1.16.74 2.35.61 3.39.4Zm-37.14-7.38c3.41-.57 6.83-1.07 10.19-2.01 2.94-.82 5.85-.39 8.49 1.38 2.76 1.83 4.98 4.23 6.96 6.81 2.06 2.67 1.53 6.36-1.1 8.46-3.61 2.9-7.77 4.39-11.85 4.47-4.67-.21-8.71-.83-12.62-2.02-3.44-1.05-6.12-3.21-7.85-6.42-1.47-2.72-1.04-5.34 1.31-7.41 1.85-1.63 3.93-2.84 6.45-3.26Zm34.69 96.35c-5.32.87-21.68-7.74-47.38-18.48-14.73-6.15-13.72-3.34-23.8-9.21-14-8.14-14.43-13.47-29.14-22.56-13.46-8.31-23.53-9.51-24.57-16.73-.49-3.4 1.49-4.83 1.69-12.28.21-7.74-1.82-10.19-.64-11.44 3.44-3.63 20.63 20.37 48.92 34.82 26.07 13.32 47.45 18.24 63.97 25.75 8.31 3.78 8.98 7.95 15.34 10.8 4.47 2 5.47 3.14 6.41 5.5 1.21 3.07-3.07 7.01-5.33 9.49-2.36 2.58-3.18 3.95-5.47 4.33Zm100.29-38.99c-.23 6.62.23 13.26-.99 19.86-.65 3.53-.66 4.01-4.22 4.49-7.35 1-13.69 4.49-20.17 7.7-1.09.53-2.19 1.23-2.97 2.13-2.04 2.38-4.67 3.93-7.29 5.49-5.61 3.35-11.21 6.73-16.93 9.86-3.76 2.05-7.25 4.57-11.18 6.32-7.97 3.54-15.45 7.88-22.12 13.54-2.04 1.74-4.6 2.06-7.21 2.09-1.54.01-2.5-.7-2.96-2.14-.53-1.65-1.09-3.3-1.65-4.94-.53-1.57-.15-2.78 1.32-3.65 1.84-1.09 3.56-2.37 5.59-3.17 2.88-1.13 3.7-2.44 3.71-5.59.02-2.78-.83-3.67-3.58-3.82-1.56-.08-3.03.39-4.55.56-1.34.15-2.2-.34-2.15-1.84.02-.51.05-1.02.08-1.79-.47-3.32.73-5.88 4.28-7.26 1.65-.64 2.7-2.15 3.53-3.71.57-1.08 1-2.25 1.63-3.3 1.07-1.76 2.24-3.6 4.44-3.9 1.71-.23 3.05-.98 4.47-1.83 3.32-2 6.68-3.93 10.06-5.82 2.58-1.44 5.27-2.69 7.81-4.2 6.93-4.11 14.01-7.94 21.14-11.68 2.08-1.09 4.25-2.08 6.13-3.45 5.6-4.11 11.7-7.45 17.37-11.45 1.89-1.33 3.88-2.87 6.02-3.5 2.98-.88 6.06-1.76 9.27-1.85 1.54-.05 1.87.42 1.88 1.89.02 5.01-.57 9.99-.74 14.99Zm17.54 21.59c-.3 1.29-.53 2.6-.89 3.88-.37 1.35-1.12 1.58-2.55 1.14-3.62-1.11-6.87-3.15-10.56-4.04-1.38-.33-1.8-1.36-1.55-2.58.84-4.14.89-8.31.61-12.51.06-3.16.26-6.31.45-9.47.19-3.16.04-6.33.05-9.5 0-.71-.02-1.44.11-2.13.14-.82.75-.92 1.38-.55.43.25.78.65 1.16.98 3.04 2.62 5.24 5.99 8 8.85a7.183 7.183 0 0 1 2.04 4.7c.06 1.29-.59 1.72-1.71 1.09-1.15-.65-2.08-1.67-3.39-2.06-1.76-.55-3.33-.03-3.71 1.65-.74 3.28-1.32 6.62-.47 10 .42 1.65 1.45 2.58 3.17 2.9 1.4.26 2.8.66 4.1 1.22 3.61 1.54 4.41 3.61 3.75 6.41Z"/><path class="cls-1" d="M204 106.91c-.68-1.18-1.55-1.51-2.81-1.15-.8.23-1.61.45-2.22 1-2.24 2.03-4.93 3.24-7.7 4.31-2.61 1.01-4.81 2.69-7.04 4.31-2.01 1.46-3.17 3.45-3 6.05.06.71 0 1.46.22 2.13 1.37 4.29 2.55 5.2 6.59 3.53 1.9-.78 3.72-1.61 5.36-2.91 2.65-2.1 5.55-3.82 8.57-5.33 2.3-1.14 3.21-3 3.3-5.43.09-2.28-.08-4.48-1.27-6.52Zm-3.97 9.51c-3.35 2.15-6.67 4.35-10.06 6.44-2.69 1.65-3.35 1.33-4.47-1.59-.43-1.13-.24-2.01.52-2.81.7-.74 1.43-1.45 2.23-2.09 3.65-2.89 8.16-4.19 12.08-6.58.64-.39 1.22-.11 1.43.61.17.58.22 1.2.27 1.49 0 2.05-.48 3.54-2.02 4.53ZM207.01 107.91c0 1.73.19 3.24.83 4.66.41.91 1.05 1.47 2.13 1.37 1.04-.09 1.79-.65 1.98-1.62.74-3.72 1-7.46-.32-11.13-.38-1.07-1.18-1.64-2.38-1.44-1.11.19-1.43 1.01-1.54 1.98-.24 2.12-.48 4.24-.7 6.17ZM170.21 130.06v3.97c0 1.16.43 2.19 1.01 3.16.54.9 1.35 1.21 2.34 1.02.92-.18 1.45-.83 1.49-1.71.16-3.55.51-7.13-.74-10.59-.14-.38-.29-.77-.51-1.11-.5-.75-.93-1.69-2.09-1.4-1.04.26-1.44 1.05-1.45 2.07v4.58h-.05ZM219.4 104.22v-4.28c0-.82-.04-1.64-.44-2.38-.3-.55-.66-1.05-1.39-.99-.59.05-.92.51-1.06.98-1.2 4.15-1.86 8.35-.81 12.65.23.93.79 1.4 1.77 1.26 1.02-.14 1.76-.65 1.8-1.74.06-1.83.02-3.67.02-5.5h.11ZM155.41 138.61c.07 1.52.07 3.05.24 4.57.15 1.34.87 2.34 2.36 2.31 1.47-.03 1.83-1.18 1.86-2.34.07-3.14.33-6.32-.64-9.39-.27-.85-.52-1.88-1.76-1.73-1.15.14-1.88.83-1.92 2.01-.06 1.52-.01 3.05-.01 4.57h-.11ZM223.42 97.57c-.1.96-.3 2.26-.36 3.57-.07 1.41-.07 2.84-.01 4.25.05 1.15.69 1.94 1.86 2.03 1.34.1 1.7-.9 1.78-1.98.15-2.12.29-4.24.33-6.36.01-.9-.15-1.83-.41-2.69-.37-1.21-.62-3.03-2.22-2.76-1.73.28-1.18 2.02-1.05 3.3.01.1.02.2.08.66ZM163.03 130.05c.64 2.52.4 5.18.44 7.83.02 1.1.28 2.14 1.6 2.19 1.35.05 2-.83 2.15-2.11.3-2.65.11-5.3-.19-7.94-.04-.39-.23-.79-.44-1.13-.52-.87-1.33-1.32-2.32-1.12-1.15.24-1.2 1.23-1.24 2.27ZM111.52 51.58c-2-3.02-5.09-3.65-8.28-3.78-3.67-.15-7.07.82-9.64 3.7-1.6 1.8-1.68 3.3-.1 5.16 1.63 1.93 3.65 3.25 6.31 3.23.82-.01 1.63 0 2.67 0 1.72.08 3.64.03 5.51-.64 1.37-.5 2.59-1.21 3.49-2.37 1.35-1.74 1.25-3.47.04-5.3Zm-4.38 3.8c-.5 1.21-1.99.6-3.28.82-1.7-.24-3.62-.48-5.52-.77-.84-.12-1.51-.58-2.04-1.24-.53-.68-.48-1.29.23-1.83 2.5-1.91 6.33-1.88 8.82.19.88.74 2.36 1.45 1.79 2.84Z"/></g></svg>