<?xml version="1.0" encoding="UTF-8"?>
<svg id="Layer_2" data-name="Layer 2" xmlns="http://www.w3.org/2000/svg" viewBox="0 0 264.12 167.68">
  <defs>
    <style>
      .cls-1 {
        fill: #000;
        stroke-width: 0px;
      }
    </style>
  </defs>
  <g id="Layer_2-2" data-name="Layer 2">
    <g>
      <path class="cls-1" d="M261.87,68.3c-12.09-17.14-38.91-22.64-54.75-38.23-16-5.74-53.14-41.14-65.09-26.59-35.19,15.89-71.3,35.16-105.15,54.84-18.6,11.63-52.19,18.04-29,44.36,36.28,20.48,75.99,54.55,116.24,65,45.28-29.01,91.87-54.4,137.72-82.36,5.7-4.87-1.23-10.57.04-17.02ZM121.05,164.34c-11.12-1.27-26.56-13.45-64.85-33.83,0,0-11.32-7.88-36.18-22.6-2.88-1.7-13.43-9.91-15.23-13.46-1.67-3.29-4.32-8.76-.94-10.09,3.74-1.46,10.76,6.19,21.32,12.14,28.68,16.17,57.22,34.83,59.4,36.27,14.12,9.26,26.64,12.84,33.91,17.21,3.67,2.2,4.77,4.56,4.77,8.82,0,1.84-.28,5.76-2.2,5.54ZM247.57,69.99c-5.14-4.03-12.56,1.03-13.43,6.85-30.49,22.49-68.43,41.29-101.66,62.43-4.22,4.61-6.82-5.25-12.24-3.43-4.89-2.92-8.3-.46-11.38,3.62,25.38-6.01,18.83,13.62,5.7,6.03-8.81-7.22-27.85-8.19-26.12-21.13-2.53-1.06-3.35,3.26-5.62,3.13-5.15-2.39-9.68-5.46-14.88-8-19.77-11.83-40.22-21.81-58.2-36.08-4.47-8.37,13.97-10.27,18.61-15.64,23.09-15.91,49.22-26.37,73.41-40.31,45.05-22.06,39.21-37.91,87.56-3.73,16.76,7.36,30.23,20.77,46.3,29.68,8.14,3.69,36.86,18.61,11.97,16.6Z"/>
      <path class="cls-1" d="M169.57,35.19c-34.93-22.36-30.21-15.58-64.14,2.02-18.63,11.53-84.12,29.08-40.01,51.71,12.36,5.76,26.12,17.2,39.51,16.47,17-8.69,36.46-19.17,50.97-30.28,21.44-15.88,59.18-22.32,13.67-39.92Z"/>
      <path class="cls-1" d="M191.76,76.61c-6.52,11.94-12.43,26.45-26.99,30.17-16.92,8.94-31.37,6.05-44.73,20.07-29.58-10.1-58.97-22.39-83.8-41.35-2.55-3.1,1.47-7.44-.19-10.62-2.66-2.19,2.26-2.79,1.28-5.32-2.32-5.68-4.9,9.54-5.33,12.48,8.14,21.54,56.94,34.35,77.92,45.96,10.47,6.21,16-.2,23.17-7.37,13.07-3.52,26.29-5.74,38.28-12.83,11.33-5.04,17.4-16.54,21.84-27.45,2.87-3.1,8.38,1.43,12.33.72,8.2,1.31,21.12-9.73,24.93-16.29-21.02,10.46-12.93,13.75-38.71,11.84Z"/>
      <path class="cls-1" d="M182.97,77.54c-.48,35.56-56.75,33.74-82.14,36.71-20.25-7.1-46.62-17.16-60.93-32.86,26.83,15.59,53.02,34.34,85.08,29.57,22.22-4.3,51.85-7.88,58-33.42Z"/>
      <path class="cls-1" d="M173.55,21.99c-6.1-3.27-12.16-10.77-20.14-10.69-6.26-.4-19.41,1.76-6.03-1.69,37.83.47,27.41,29.31,26.17,12.38Z"/>
      <path class="cls-1" d="M197.74,44.14c9.16-12.45,27.31,24.21,8.27,20.67,13.3-3.2,1.18-23.47-8.27-20.67Z"/>
      <path class="cls-1" d="M95.85,35.69c-5.76-.43.64-3.29,3.11-2.95,4.9-.94,8.33-5.64,12.49-7.51,0,4.3-10.48,10.02-15.6,10.46Z"/>
      <path class="cls-1" d="M201.22,91.33c-3.12.46-5.82-3.27-4.03-5.95,3.31-2.88,12.48,5.98,4.03,5.95Z"/>
      <path class="cls-1" d="M119.67,144.84c-1.38-1.27-4.51,1.79-4.49-1.06.65-5.44,11-.56,4.49,1.06Z"/>
      <path class="cls-1" d="M183.03,77.59c-.98-3.9.17-8.06-.83-12.51,2.3,2.99,3.84,11.51.83,12.51Z"/>
      <path class="cls-1" d="M245.96,62.43c2.78.07,2.33,3.87-.18,3.94-2.67.23-2.58-4.27.18-3.94Z"/>
      <path class="cls-1" d="M200.39,52.85c.88,3.13-2.85,5.85-5.1,3.34,1.19-2.03,3.08-1.54,5.1-3.34Z"/>
    </g>
  </g>
</svg>