<?xml version="1.0" encoding="UTF-8"?>
<svg id="Layer_2" xmlns="http://www.w3.org/2000/svg" viewBox="0 0 119.5 88.98">
  <defs>
    <style>
      .cls-1 {
        font-family: Futura-Medium, Futura;
        font-size: 11px;
        font-weight: 500;
      }
    </style>
  </defs>
  <g id="Layer_2-2" data-name="Layer_2">
    <g>
      <path d="M57.77,87.6c-.31,0-.62-.02-.93-.05l.15-1.29c1.54.17,3.1-.17,4.42-.97l.68,1.11c-1.29.79-2.78,1.21-4.31,1.21ZM51.86,86.19c-1.55-.52-3.14-1.13-4.75-1.82l.51-1.2c1.57.67,3.14,1.27,4.65,1.78l-.42,1.23ZM66.34,83.7l-.69-1.1c1.42-.89,2.85-1.78,4.29-2.65l.68,1.11c-1.43.88-2.86,1.76-4.27,2.65ZM42.51,82.23c-1.43-.72-2.93-1.52-4.47-2.38l.64-1.13c1.52.85,3,1.65,4.41,2.36l-.58,1.16ZM74.91,78.44l-.67-1.11c1.44-.87,2.88-1.73,4.32-2.59l.66,1.12c-1.44.86-2.88,1.72-4.32,2.58ZM33.68,77.28c-1.43-.88-2.86-1.77-4.28-2.69l.7-1.09c1.41.91,2.82,1.8,4.25,2.67l-.68,1.11ZM83.56,73.3l-.66-1.12c1.45-.85,2.9-1.7,4.34-2.55l.66,1.12c-1.44.84-2.89,1.69-4.34,2.55ZM25.18,71.84l-4.19-2.79.72-1.08,4.19,2.78-.72,1.08ZM92.24,68.21l-.65-1.12,4.35-2.54.66,1.12-4.35,2.54ZM16.78,66.3c-1.57-1.02-2.96-1.89-4.24-2.68l.68-1.11c1.29.79,2.69,1.67,4.27,2.7l-.71,1.09ZM100.94,63.13l-.66-1.12c1.44-.85,2.89-1.7,4.34-2.55l.66,1.12c-1.45.86-2.9,1.71-4.34,2.56ZM8.18,60.95c-.37-.3-.72-.63-1.04-.99-.88-1-1.66-2.02-2.31-3.02l1.09-.71c.62.95,1.36,1.92,2.2,2.87.27.3.56.58.87.83l-.81,1.02ZM109.61,58l-.67-1.12c1.44-.86,2.88-1.73,4.31-2.6l.68,1.11c-1.44.87-2.87,1.74-4.31,2.6ZM2.62,52.23c-.37-1.27-.56-2.55-.56-3.81,0-.47.03-.95.08-1.42l1.29.14c-.05.43-.07.86-.07,1.28,0,1.14.17,2.29.5,3.45l-1.25.36ZM117.83,51.87l-1.08-.73c.88-1.3,1.37-2.78,1.45-4.39l1.3.07c-.09,1.85-.66,3.55-1.67,5.05ZM4.88,42.63l-1.13-.64c.82-1.46,1.91-2.77,3.34-4.02l.86.98c-1.32,1.15-2.32,2.35-3.06,3.68ZM117.47,42.06l-.09-.42c0-.1,0-.19,0-.29,0-1.42-.42-2.79-1.23-3.96l1.07-.73c.95,1.39,1.46,3.01,1.46,4.69,0,.08,0,.15,0,.23h0s0,.01,0,.01c0,.04,0,.07,0,.11h-.25s-.96.36-.96.36ZM11.97,36.16l-.65-1.13c1.54-.88,3.12-1.65,4.51-2.33l.57,1.17c-1.38.67-2.93,1.42-4.44,2.28ZM112.92,33.73c-1.13-1.04-2.41-2.02-3.9-3.01l.72-1.08c1.55,1.03,2.88,2.05,4.06,3.13l-.88.96ZM20.93,31.49l-.67-1.11c1.47-.86,2.92-1.69,4.36-2.51l.64,1.13c-1.43.82-2.88,1.65-4.33,2.49ZM104.74,28.19c-.64-.35-1.28-.69-1.91-1.03l-.26-.14c-.77-.41-1.54-.82-2.27-1.22l.62-1.14c.73.4,1.49.81,2.26,1.21l.26.14c.63.34,1.27.68,1.92,1.03l-.62,1.14ZM95.95,23.1c-.6-.45-1.12-.89-1.58-1.34-.67-.66-1.45-1.17-2.32-1.51l.48-1.21c1.04.41,1.96,1.01,2.76,1.8.41.4.89.81,1.44,1.22l-.78,1.04ZM87.58,17.67c-.66-.44-1.33-.88-1.93-1.28-.79-.53-1.53-1.02-2.27-1.51l.71-1.09c.74.49,1.49.99,2.23,1.48.65.43,1.3.87,1.96,1.31l-.71,1.09Z"/>
      <text class="cls-1" transform="translate(7.83 38.26) rotate(-29.8)"><tspan x="0" y="0"> </tspan></text>
      <text class="cls-1" transform="translate(10.71 36.73) rotate(-28.83)"><tspan x="0" y="0"> </tspan></text>
      <text class="cls-1" transform="translate(13.63 35.28) rotate(-28.2)"><tspan x="0" y="0"> </tspan></text>
      <text class="cls-1" transform="translate(16.46 33.74) rotate(-28.77)"><tspan x="0" y="0"> </tspan></text>
      <text class="cls-1" transform="translate(19.3 32.13) rotate(-29.65)"><tspan x="0" y="0"> </tspan></text>
      <text class="cls-1" transform="translate(22.12 30.52) rotate(-29.52)"><tspan x="0" y="0"> </tspan></text>
      <text class="cls-1" transform="translate(24.96 28.91) rotate(-29.19)"><tspan x="0" y="0"> </tspan></text>
      <text class="cls-1" transform="translate(27.81 27.32) rotate(-28.84)"><tspan x="0" y="0"> </tspan></text>
      <text class="cls-1" transform="translate(30.63 25.75) rotate(-28.21)"><tspan x="0" y="0">H</tspan></text>
      <text class="cls-1" transform="translate(37.59 22.02) rotate(-27.33)"><tspan x="0" y="0">a</tspan></text>
      <text class="cls-1" transform="translate(43.32 19.06) rotate(-26.64)"><tspan x="0" y="0">r</tspan></text>
      <text class="cls-1" transform="translate(46.79 17.31) rotate(-25.91)"><tspan x="0" y="0">d</tspan></text>
      <text class="cls-1" transform="translate(52.58 14.51) rotate(-25.16)"><tspan x="0" y="0"> </tspan></text>
      <text class="cls-1" transform="translate(55.72 12.82) rotate(-26.06)"><tspan x="0" y="0">D</tspan></text>
      <text class="cls-1" transform="translate(62.13 9.85) rotate(-3.62)"><tspan x="0" y="0">r</tspan></text>
      <text class="cls-1" transform="translate(65.86 9.64) rotate(8.57)"><tspan x="0" y="0">i</tspan></text>
      <text class="cls-1" transform="translate(68.12 9.84) rotate(19.48)"><tspan x="0" y="0">v</tspan></text>
      <text class="cls-1" transform="translate(72.73 11.46) rotate(28.6)"><tspan x="0" y="0">e</tspan></text>
    </g>
  </g>
</svg>