<svg id="monitor-off" data-name="monitor-off" xmlns="http://www.w3.org/2000/svg" viewBox="0 0 392.2 496.88"><defs><style>.cls-1{stroke-width:0}</style></defs><g id="monitor-off" data-name="monitor-off"><path class="cls-1" d="M168.18 392.66c-32 7.54-46.6 32.2-39.02 65.16 4.77 10.48 4.56 49.05-12.62 36.64 16.75-19.87-6.47-44.67 4.32-68.14 6.35-18.29-24.29 8.11-30.83 10.31C2.9 482.5-3.45 489.05 1.07 384.89c3.92-58.29 3.02-116.75 4.17-175.21 8.48-25.24 46.8-28.16 66.02-44.65 80.05-41.29 157.35-88.62 236.83-131.9 111.64-72.33 77.94-16.51 83.25 73.91 1.45 242.33 14.27 125.12-152.41 251.94 1.62 12.1-4.51 27.52 13.06 27.25 54.48 16.66 44.76 88.25-13.51 91.28-53.8 17.78-127.85-34.94-70.29-84.87ZM389.01 60.01c2.73-84.77-13.07-50.86-66.29-24.68-72.84 38.02-140.76 83.8-215.17 118.64-85.93 59.17-98.54 16.73-92.81 124.98 6.82 25.44-21.62 201.24 11.56 184.91 118.73-57.8 230.75-129.98 348.82-190.32 26.57-17.07 6.38-174.53 13.89-213.53ZM183.8 397.03c-41.43 79.44 146.74 103.89 90.62 10.89-7.85-10.64-22.26-17.27-34.87-16-3.66 4.46 1.81 13.22-5.82 15.52-28.51 11.32-50.75 39.5-49.92-10.41Zm49.88-39.89c-45.35 21.12-41.41 14.81-37.88 64.76 40.7-20.72 43.65-17.01 37.88-64.76Z"/><path class="cls-1" d="M22.23 386.01c-.92-33.36 6.44-66.14 6.5-99.38 2.21-23.46-12.34-64.46 8.01-79.05C151.81 153.73 257.12 78.32 371.45 22.5c5.1-2.27 7.8-.14 7.21 5.39-1.17 68.88 2.95 137.88-2.89 206.75-1.58 12.61-14.21 16.96-24.01 22.11-38.06 19.23-75.03 40.62-113.62 58.58C180.03 351 121 386.55 59.7 416.14c-41.6 24.37-38.73 9.63-37.46-30.13Zm4.14-1.59c-6.27 74.62 16.67 26.9 72.56 6.64 70.96-42.22 142.36-83.5 215.48-121.79 83.15-36.35 46.56-45.14 57.81-122.57 2.24-38.49-2.04-76.95 1.76-115.36.54-9.07-15.18 2.13-19.68 3.57C248.5 95.23 144.85 159.96 35.23 213.13c-10.57 19.33-2.42 46.15-3.14 68.03 1.7 34.56-5.49 68.7-5.71 103.26Z"/></g></svg>