<?xml version="1.0" encoding="UTF-8"?>
<svg id="Layer_2" data-name="Layer 2" xmlns="http://www.w3.org/2000/svg" viewBox="0 0 392.2 496.88">
  <defs>
    <style>
      .cls-1 {
        fill: #000;
        stroke-width: 0px;
      }
    </style>
  </defs>
  <g id="Layer_2-2" data-name="Layer 2">
    <g>
      <g>
        <path class="cls-1" d="M168.18,392.66c-32,7.54-46.6,32.2-39.02,65.16,4.77,10.48,4.56,49.05-12.62,36.64,16.75-19.87-6.47-44.67,4.32-68.14,6.35-18.29-24.29,8.11-30.83,10.31C2.9,482.5-3.45,489.05,1.07,384.89c3.92-58.29,3.02-116.75,4.17-175.21,8.48-25.24,46.8-28.16,66.02-44.65,80.05-41.29,157.35-88.62,236.83-131.9,111.64-72.33,77.94-16.51,83.25,73.91,1.45,242.33,14.27,125.12-152.41,251.94,1.62,12.1-4.51,27.52,13.06,27.25,54.48,16.66,44.76,88.25-13.51,91.28-53.8,17.78-127.85-34.94-70.29-84.87ZM389.01,60.01c2.73-84.77-13.07-50.86-66.29-24.68-72.84,38.02-140.76,83.8-215.17,118.64C21.62,213.14,9.01,170.7,14.74,278.95c6.82,25.44-21.62,201.24,11.56,184.91,118.73-57.8,230.75-129.98,348.82-190.32,26.57-17.07,6.38-174.53,13.89-213.53ZM183.8,397.03c-41.43,79.44,146.74,103.89,90.62,10.89-7.85-10.64-22.26-17.27-34.87-16-3.66,4.46,1.81,13.22-5.82,15.52-28.51,11.32-50.75,39.5-49.92-10.41ZM233.68,357.14c-45.35,21.12-41.41,14.81-37.88,64.76,40.7-20.72,43.65-17.01,37.88-64.76Z"/>
        <path class="cls-1" d="M22.23,386.01c-.92-33.36,6.44-66.14,6.5-99.38,2.21-23.46-12.34-64.46,8.01-79.05,115.07-53.85,220.38-129.26,334.71-185.08,5.1-2.27,7.8-.14,7.21,5.39-1.17,68.88,2.95,137.88-2.89,206.75-1.58,12.61-14.21,16.96-24.01,22.11-38.06,19.23-75.03,40.62-113.62,58.58-58.11,35.67-117.14,71.22-178.44,100.81-41.6,24.37-38.73,9.63-37.46-30.13ZM26.37,384.42c-6.27,74.62,16.67,26.9,72.56,6.64,70.96-42.22,142.36-83.5,215.48-121.79,83.15-36.35,46.56-45.14,57.81-122.57,2.24-38.49-2.04-76.95,1.76-115.36.54-9.07-15.18,2.13-19.68,3.57-105.8,60.32-209.45,125.05-319.07,178.22-10.57,19.33-2.42,46.15-3.14,68.03,1.7,34.56-5.49,68.7-5.71,103.26Z"/>
      </g>
      <path class="cls-1" d="M210.22,279.28c3.3-.79,10.91-7.58,8.53.24-3.1,3.58,6.32,8.27-5.24,9.63-8.19-4.19-6.62-17.52-9.27-25.95-.5-6.09-10.58-4.94-12.19-11.23-24.18-60.35,47.87-72.98,22.63,6.38,2.36,10.26,1.36,13.5-4.46,20.94ZM216.67,226.97c-11.16-52.95-43.69,11.33-10.05,34.01,5.12,30.68,7.99-27.22,10.05-34.01Z"/>
      <path class="cls-1" d="M172.06,232.58c-8.13-1.46,1.19-6.68,5.25-5.65,6.38,2-1.67,6.21-5.25,5.65Z"/>
      <path class="cls-1" d="M172.55,221.11c-8.93-.63.51-8.32,4.79-4.39,3.06,2.89-2.27,4.5-4.79,4.39Z"/>
      <path class="cls-1" d="M191.07,192.35c-3.95-.65-5.47-8.94-.39-8.18,2.7,1.01,3.84,7.33.39,8.18Z"/>
      <path class="cls-1" d="M206,188.21c-3.48-2.03-1.94-10.3,2.56-7.76,2.18,1.91.99,8.22-2.56,7.76Z"/>
      <path class="cls-1" d="M231.03,196.39c.08,2.7-4.35,7.7-6.48,4.6-2.33-3.46,4.45-8.66,6.48-4.6Z"/>
      <path class="cls-1" d="M175.32,201.7c.6-4.3,8.32-2.11,7.7,1-.94,3.25-7.54,2.52-7.7-1Z"/>
      <path class="cls-1" d="M222.02,183.02c-.47,2.61-.91,6.92-3.82,6.98-2.97-1.95.18-7.01,3.82-6.98Z"/>
      <path class="cls-1" d="M229.3,208.31c3.6-.17,3.05,5.13-.05,5.3-3.45.35-2.96-5.02.05-5.3Z"/>
    </g>
  </g>
</svg>