<?xml version="1.0" encoding="UTF-8"?>
<svg id="Layer_2" xmlns="http://www.w3.org/2000/svg" viewBox="0 0 163.29 117.07">
  <defs>
    <style>
      .cls-1 {
        font-family: Futura-Medium, Futura;
        font-size: 11px;
        font-weight: 500;
      }
    </style>
  </defs>
  <g id="Layer_2-2" data-name="Layer_2">
    <g>
      <path d="M89.55,116.83h-.14c-1.66,0-3.29-.24-4.99-.73l.35-1.2c1.59.46,3.11.68,4.65.68h.15s-.01,1.25-.01,1.25ZM94.53,116.77l-.04-1.25c1.8-.06,3.4-.19,4.88-.37l.16,1.24c-1.52.19-3.16.32-5,.38ZM104.47,115.42l-.33-1.21c1.62-.45,3.14-1.03,4.5-1.73l.57,1.12c-1.44.74-3.03,1.35-4.74,1.82ZM79.72,114.18c-1.32-.68-2.69-1.5-4.31-2.57l.69-1.05c1.59,1.05,2.92,1.84,4.2,2.5l-.58,1.11ZM113.52,111.14l-.6-1.1c1.36-.74,2.82-1.48,4.46-2.25l.53,1.13c-1.61.76-3.05,1.48-4.39,2.21ZM71.31,108.8c-.75-.52-1.49-1.03-2.23-1.53-.58-.4-1.19-.8-1.86-1.22l.67-1.06c.69.43,1.31.84,1.89,1.25.74.49,1.49,1.01,2.24,1.53l-.72,1.03ZM122.41,106.78l-.58-1.11c1.25-.66,2.6-1.38,4.35-2.35l.6,1.1c-1.76.97-3.11,1.7-4.37,2.36ZM62.98,103.55l-.43-.25c-1.09-.62-2.21-1.26-3.29-1.9l-.58-.37.67-1.06.57.36c1.05.63,2.17,1.26,3.25,1.88l.43.25-.62,1.09ZM131.12,102.02l-.61-1.1c1.73-.96,3.05-1.67,4.28-2.32l.08-.04.59,1.1-.1.05c-1.22.64-2.53,1.35-4.25,2.3ZM54.48,98.41c-1.46-.9-2.84-1.73-4.23-2.55l.64-1.08c1.4.82,2.79,1.66,4.25,2.56l-.66,1.07ZM139.77,97.12l-.68-1.06c.95-.61,1.88-1.23,2.82-1.84.44-.29.88-.58,1.32-.87l.69,1.05c-.44.29-.88.58-1.31.87-.94.62-1.88,1.25-2.84,1.86ZM45.96,93.38c-1.32-.77-2.71-1.6-4.26-2.56l.66-1.07c1.54.95,2.93,1.78,4.23,2.54l-.63,1.08ZM148.11,91.81l-.64-1.07.06-.04c1.37-.82,2.79-1.67,4.14-2.54l.68,1.05c-1.36.89-2.79,1.74-4.18,2.57l-.06.04ZM37.49,88.19l-2-1.27c-.73-.46-1.46-.92-2.18-1.38l.67-1.06c.73.46,1.46.92,2.19,1.38l2,1.27-.67,1.06ZM156.46,86.32l-.78-.98c1.4-1.11,2.52-2.21,3.42-3.35l.99.77c-.96,1.23-2.15,2.39-3.63,3.56ZM29.11,82.92c-1.53-.94-2.92-1.77-4.24-2.53l.63-1.08c1.33.77,2.73,1.61,4.27,2.55l-.65,1.07ZM162.52,78.22l-1.19-.38c.44-1.39.67-2.93.71-4.7l1.25.03c-.04,1.9-.29,3.55-.77,5.06ZM20.56,77.95c-1.35-.78-2.74-1.62-4.26-2.56l.66-1.06c1.51.94,2.9,1.77,4.23,2.54l-.63,1.08ZM12.1,72.72c-.83-.54-1.66-1.08-2.48-1.61-.61-.4-1.16-.78-1.68-1.17l.76-1c.5.37,1.02.74,1.61,1.12.82.53,1.64,1.07,2.47,1.61l-.68,1.05ZM161.76,68.28c-.11-1.04-.27-2.19-.48-3.63-.06-.39-.15-.78-.25-1.17l1.21-.32c.11.43.2.86.27,1.3.22,1.47.37,2.64.49,3.69l-1.25.14ZM4.3,66.34c-.34-.46-.64-.94-.91-1.43-.56-1-1.01-2.08-1.33-3.2l1.2-.35c.3,1.03.71,2.02,1.22,2.94.25.45.52.88.83,1.3l-1.01.74ZM159.03,59.22c-.85-1.22-1.9-2.37-3.23-3.54l.83-.94c1.4,1.23,2.52,2.47,3.43,3.77l-1.03.72ZM2.71,56.66l-1.25-.05c.07-1.7.39-3.4.97-5.03l1.18.41c-.53,1.52-.83,3.09-.9,4.67ZM151.91,52.74c-1.41-.94-2.84-1.8-4.18-2.6l.64-1.08c1.36.81,2.8,1.67,4.24,2.63l-.69,1.04ZM5.82,47.79l-1.01-.74c.79-1.08,1.7-2.05,2.71-2.89.3-.25.6-.48.91-.72l.77.99c-.3.23-.59.46-.88.7-.92.77-1.76,1.67-2.5,2.66ZM143.53,47.35c-.67-.55-1.32-1.14-1.95-1.7-.58-.52-1.18-1.06-1.78-1.56l.8-.96c.62.52,1.23,1.06,1.82,1.59.62.56,1.26,1.13,1.91,1.67l-.8.96ZM13.18,41.57l-.69-1.04c1.26-.84,2.65-1.7,4.23-2.64l.64,1.08c-1.56.93-2.93,1.78-4.18,2.6ZM21.64,36.5l-.62-1.09,1.13-.64c.96-.54,1.93-1.09,2.89-1.64.09-.05.18-.1.27-.16l.65,1.07c-.1.06-.2.12-.31.18-.96.55-1.93,1.09-2.89,1.64l-1.13.64ZM29.67,30.44l-1.02-.72c.44-.62.87-1.32,1.37-2.2.39-.69.85-1.36,1.36-1.98l.97.79c-.47.57-.88,1.18-1.24,1.81-.52.91-.97,1.64-1.43,2.3ZM35.87,23.11l-.72-1.02c1.19-.84,2.52-1.64,4.32-2.58l.58,1.11c-1.75.92-3.04,1.69-4.18,2.49ZM44.47,18.38l-.58-1.11.18-.09c1.57-.77,3.11-1.34,4.59-1.71l.3,1.22c-1.39.35-2.84.89-4.33,1.61l-.16.09ZM53.74,16.17l-.04-1.25c1.57-.05,3.08-.17,4.26-1.15l.43.46.4.49-.04.03c-1.47,1.22-3.28,1.37-5,1.42ZM62.44,11.42l-.74-1.01c1.33-.99,2.83-1.82,4.46-2.48l.47,1.16c-1.53.62-2.94,1.4-4.18,2.32ZM71.26,7.82l-.19-1.24c1.72-.27,3.46-.33,5.1-.17l-.12,1.25c-1.54-.15-3.16-.09-4.78.16Z"/>
      <text class="cls-1" transform="translate(79.15 8.36) rotate(33.48)"><tspan x="0" y="0">M</tspan></text>
      <text class="cls-1" transform="translate(87.94 15.09) rotate(30.99)"><tspan x="0" y="0">o</tspan></text>
      <text class="cls-1" transform="translate(94.05 18.5) rotate(26.73)"><tspan x="0" y="0">t</tspan></text>
      <text class="cls-1" transform="translate(96.92 19.93) rotate(26.6)"><tspan x="0" y="0">h</tspan></text>
      <text class="cls-1" transform="translate(102.28 22.54) rotate(28.9)"><tspan x="0" y="0">e</tspan></text>
      <text class="cls-1" transform="translate(107.46 25.42) rotate(33.8)"><tspan x="0" y="0">r</tspan></text>
      <text class="cls-1" transform="translate(110.75 27.69) rotate(37.08)"><tspan x="0" y="0">b</tspan></text>
      <text class="cls-1" transform="translate(116.69 32.15) rotate(27.74)"><tspan x="0" y="0">o</tspan></text>
      <text class="cls-1" transform="translate(122.52 35.04) rotate(30.97)"><tspan x="0" y="0">a</tspan></text>
      <text class="cls-1" transform="translate(128.13 38.61) rotate(30.15)"><tspan x="0" y="0">r</tspan></text>
      <text class="cls-1" transform="translate(131.68 40.37) rotate(31.9)"><tspan x="0" y="0">d</tspan></text>
    </g>
  </g>
</svg>