<svg xmlns="http://www.w3.org/2000/svg" viewBox="0 0 327.51 204.62"><g data-name="motherboard"><path d="M182.18 99.11c-2.11 0-4.14-.54-6.14-1.63-2.93-1.6-5.56-3.07-8.19-4.74-.81-.52-1.62-1.03-2.44-1.55-3.91-2.48-7.95-5.04-11.71-7.89-.31-.23-.63-.49-.94-.76-1.87-1.6-3.7-3.75-5.43-6.38-1.58-2.42-2.13-4.95-1.59-7.32.56-2.45 2.25-4.58 4.89-6.16 6.76-4.06 12.94-7.27 18.89-9.83l1.3-.56c3.42-1.47 6.95-2.98 10.65-4.08 5.76-1.72 11.18-.8 16.11 2.74 3.77 2.7 7.43 5.5 10.88 8.32 3.25 2.65 6.64 5.6 10.38 9 1.47 1.35 2.22 3.09 2.09 4.9s-1.14 3.5-2.78 4.64c-.49.34-.98.67-1.47 1-1.27.86-2.57 1.74-3.76 2.68-.87.69-1.67 1.47-2.52 2.29-.46.45-.92.89-1.39 1.33-3.75 3.44-7.14 5.85-10.36 7.37-.61.29-1.23.55-1.86.8-.57.23-1.13.47-1.69.73-.55.26-1.07.6-1.62.96-.43.28-.87.57-1.32.82-1.46.82-3.41 1.85-5.52 2.55-1.54.51-3.03.76-4.47.76Zm4.84-48.74c-1.52 0-3.07.24-4.68.72-3.53 1.05-6.83 2.47-10.33 3.96l-1.3.56c-5.82 2.5-11.88 5.66-18.53 9.65-1.92 1.15-3.14 2.63-3.51 4.26-.36 1.55.05 3.28 1.18 5 1.57 2.39 3.21 4.32 4.87 5.74.25.22.51.43.79.63 3.68 2.78 7.67 5.31 11.52 7.76.82.52 1.63 1.04 2.44 1.55 2.54 1.62 5.13 3.06 8.01 4.64 2.58 1.41 5.28 1.63 8.23.65 1.87-.62 3.66-1.56 5-2.32.4-.22.77-.47 1.15-.71.61-.4 1.25-.82 1.99-1.17.6-.28 1.21-.53 1.82-.78.58-.24 1.16-.48 1.72-.74 2.94-1.39 6.08-3.63 9.61-6.87.45-.41.89-.84 1.33-1.27.87-.84 1.76-1.71 2.75-2.49 1.27-1.01 2.63-1.93 3.94-2.81.48-.33.97-.65 1.44-.98.9-.62 1.43-1.47 1.5-2.38.06-.88-.34-1.76-1.12-2.48-3.69-3.37-7.04-6.28-10.25-8.89-3.41-2.78-7.02-5.54-10.74-8.2-2.81-2.02-5.73-3.02-8.82-3.02Z"/><path d="M181.95 204.62h-1.75c-2.51-.02-5.36-.03-7.66-2.34a.608.608 0 0 0-.16-.09c-2.69-.74-4.74-2.3-6.72-3.82-.76-.58-1.47-1.12-2.22-1.62-2.5-1.67-5.02-3.4-7.45-5.08-1.8-1.25-3.61-2.49-5.42-3.72-4.15-2.8-8.22-5.54-12.39-8.22-.84-.54-1.78-.98-2.77-1.45-.58-.27-1.17-.55-1.74-.84-7.89-4.11-14.17-8-19.75-12.25-1.06-.8-2.31-1.42-3.63-2.06-.79-.39-1.61-.79-2.4-1.24-1.01-.58-2-1.19-2.99-1.81-.85-.53-1.7-1.06-2.57-1.56-2.01-1.17-4.03-2.32-6.06-3.47-3.84-2.18-7.81-4.44-11.65-6.8-4.84-2.96-9.69-6.09-14.39-9.11-2.14-1.38-4.27-2.75-6.42-4.12-.35-.22-.72-.41-1.09-.6-.49-.26-.99-.52-1.49-.85-1.1-.74-2.18-1.51-3.26-2.28-.5-.36-1-.72-1.5-1.07-.17-.12-.36-.26-.54-.4-.38-.28-.74-.55-1.05-.68-3.67-1.55-6.95-3.73-10.11-5.84-1.99-1.32-4.04-2.69-6.13-3.86-.56-.32-1.21-.55-1.89-.81-.82-.3-1.68-.62-2.49-1.11-1.41-.84-2.81-1.68-4.22-2.51-5.31-3.15-10.79-6.42-16.01-9.94l-1.24-.84c-3.29-2.24-6.4-4.36-9.84-6.11-1.33-.67-2.53-2.3-2.78-3.79-.88-5.28 1.65-10.2 6.61-12.85 1.39-.75 2.7-1.64 4.09-2.58l1.2-.81c.65-.43 1.28-.87 1.91-1.31.96-.67 1.95-1.36 2.98-1.99l1.51-.93c3.69-2.26 7.51-4.61 11.36-6.76 7.54-4.22 15.11-8.3 22.85-12.45 2.39-1.28 4.89-2.42 7.3-3.52l.4-.18c.47-.22.64-.39.75-1.08.67-4.25 1.29-7.71 1.94-10.9.64-3.13 2.69-5.69 5.92-7.41 1.95-1.05 3.99-1.97 5.96-2.87 1.06-.48 2.12-.96 3.17-1.46.35-.17.72-.41 1.1-.66a13 13 0 0 1 1.01-.62c.69-.39 1.37-.79 2.06-1.19 1.75-1.02 3.56-2.07 5.45-2.95 3.99-1.85 8.11-1.77 12.25.24 2.11 1.02 3.2 2.6 3.43 4.97.11 1.17.31 2.39.54 3.78.33-.27.62-.51.9-.75 6.35-5.64 12.71-9.41 19.42-11.54 1.99-.64 2.76-1.64 2.96-3.84.25-2.88.8-5.2 1.71-7.08 1.36-2.84 4.01-4.95 7.87-6.27 4.72-1.63 9.69-1.74 14.36-.32 6.12 1.85 9.13 5.33 9.18 10.64.08.19.38.54.55.62 3.54 1.62 7.2 3.21 10.73 4.74l3.78 1.65c.63.27 1.27.53 1.9.79 1.37.55 2.79 1.13 4.14 1.86 2.33 1.26 4.65 2.61 6.9 3.91 1.37.8 2.74 1.59 4.13 2.38.98.55 1.97 1.11 2.94 1.42 4.89 1.54 9.32 4.05 13.59 6.49l1.26.71c3.85 2.18 7.6 4.48 11.16 6.83 2.51 1.66 4.03 4.27 4.28 7.36.09 1.15.14 2.3.17 3.42.03.92.06 1.84.13 2.76.08 1.16.28 1.35.29 1.36 0 0 .19.16 1.12.09 2.28-.17 4.46-.51 6.48-1.02 3.64-.92 6.85-.45 10.1 1.47 1.74 1.03 3.63 1.95 5.45 2.83 1.92.93 3.9 1.88 5.77 3.01 3.97 2.38 7.78 5.11 11.65 7.94 1.38 1 2.34 2.5 3.03 3.7 1.12 1.97 2.21 2.25 3.5 2.09.28-.04.58-.04.85-.04h.7c7.56 0 11.39 3.29 12.81 10.92.15.78.41 1.03 1.56 1.49.96.38 1.93.75 2.91 1.12 3.38 1.29 6.88 2.62 10.08 4.45 6.67 3.79 14.41 8.43 21.32 14.07 1.59 1.3 2.48 2.96 2.63 4.94.38 5.52.78 11.03 1.19 16.54.13 1.75-.51 3.14-1.9 4.13-1.43 1.02-2.88 2.1-4.27 3.14-2.98 2.23-6.06 4.54-9.35 6.45l-2.69 1.55c-7.65 4.41-15.56 8.98-22.73 14.41-2.5 1.89-5.3 3.38-8.02 4.81-.84.44-1.67.88-2.5 1.34-2.96 1.63-5.94 3.23-8.93 4.84-5.5 2.96-11.19 6.01-16.65 9.21-6.35 3.71-11.82 6.31-17.2 8.18-2.83.98-5.65 2.26-8.38 3.49l-1.32.6c-.6.27-1.27.78-1.82 1.4-3.94 4.38-9.31 6.38-14.52 7.89-3.61 1.05-7.46 1.16-11.19 1.27-1.23.04-2.45.07-3.66.14-3.15.18-6.57.27-10.43.27ZM93.59 23.48c-1.53 0-3.04.35-4.56 1.05-1.76.82-3.51 1.83-5.2 2.82-.7.41-1.4.81-2.1 1.21-.29.16-.56.34-.84.52-.45.29-.92.6-1.45.85-1.07.51-2.15 1-3.23 1.49-1.93.87-3.92 1.78-5.79 2.78-2.46 1.31-3.94 3.11-4.4 5.37-.65 3.14-1.26 6.56-1.92 10.77-.27 1.65-1.03 2.67-2.46 3.33l-.41.19c-2.37 1.08-4.82 2.2-7.13 3.43-7.73 4.15-15.29 8.22-22.81 12.43-3.8 2.13-7.59 4.45-11.26 6.7l-1.52.93c-.96.58-1.87 1.22-2.83 1.89-.65.45-1.3.91-1.97 1.35-.38.26-.77.52-1.17.79-1.39.95-2.83 1.93-4.36 2.75-3.85 2.06-5.74 5.69-5.07 9.71.09.54.7 1.37 1.18 1.61 3.61 1.84 6.95 4.11 10.17 6.31l1.23.84c5.14 3.48 10.59 6.72 15.86 9.85 1.41.84 2.82 1.67 4.22 2.52.57.34 1.26.6 1.99.87.76.28 1.55.57 2.31 1 2.19 1.22 4.3 2.62 6.33 3.98 3.19 2.13 6.2 4.13 9.6 5.57.66.27 1.21.68 1.7 1.05.16.12.31.23.47.34.52.37 1.02.73 1.53 1.09 1.05.75 2.1 1.51 3.17 2.23.36.24.78.46 1.22.69.44.23.88.46 1.3.73 2.15 1.37 4.29 2.75 6.43 4.13 4.68 3.01 9.51 6.13 14.33 9.07 3.8 2.33 7.75 4.58 11.57 6.75 2.03 1.16 4.06 2.31 6.08 3.48.89.52 1.77 1.06 2.64 1.6.96.6 1.92 1.19 2.9 1.75.71.4 1.45.77 2.23 1.15 1.39.68 2.83 1.39 4.13 2.37 5.45 4.14 11.59 7.94 19.33 11.97.53.28 1.08.53 1.63.79 1.04.49 2.11.99 3.12 1.64 4.19 2.7 8.28 5.45 12.45 8.26 1.83 1.23 3.64 2.49 5.45 3.74 2.42 1.67 4.92 3.4 7.41 5.06.83.55 1.61 1.16 2.37 1.74 1.83 1.4 3.57 2.73 5.68 3.31.55.15 1.1.46 1.5.87 1.43 1.44 3.34 1.45 5.55 1.46h.41c4.35.02 8.14-.06 11.58-.25 1.24-.07 2.49-.11 3.74-.15 3.54-.11 7.2-.21 10.44-1.16 4.78-1.39 9.68-3.2 13.12-7.01.83-.92 1.83-1.68 2.81-2.12l1.31-.59c2.79-1.26 5.67-2.57 8.63-3.6 5.19-1.8 10.48-4.32 16.66-7.94 5.51-3.23 11.22-6.3 16.74-9.26 2.97-1.6 5.95-3.2 8.9-4.82.84-.46 1.69-.91 2.54-1.36 2.61-1.38 5.3-2.8 7.61-4.55 7.32-5.54 15.31-10.15 23.04-14.61l2.68-1.55c3.13-1.83 6.15-4.08 9.06-6.26 1.41-1.06 2.87-2.15 4.34-3.19.53-.37.69-.75.64-1.45-.41-5.52-.81-11.03-1.19-16.55-.09-1.15-.57-2.05-1.53-2.83-6.72-5.49-14.02-9.87-20.9-13.79-3.01-1.71-6.39-3-9.67-4.25-.99-.38-1.97-.75-2.95-1.14-1.42-.57-2.96-1.37-3.4-3.73-1.18-6.35-3.87-8.54-10.21-8.47h-.35c-.15 0-.31 0-.46.01-2.79.36-4.91-.81-6.49-3.58-.49-.86-1.25-2.08-2.19-2.76-3.96-2.89-7.56-5.47-11.43-7.79-1.76-1.06-3.68-1.98-5.54-2.88-1.88-.91-3.83-1.85-5.68-2.95-2.56-1.51-4.98-1.87-7.84-1.14-2.19.55-4.54.92-6.98 1.1-.94.07-2.3.06-3.31-.82-1.02-.89-1.24-2.22-1.32-3.42-.06-.95-.1-1.9-.13-2.85-.04-1.08-.08-2.2-.17-3.28-.17-2.18-1.19-3.95-2.94-5.1-3.5-2.32-7.2-4.58-10.98-6.73l-1.26-.72c-4.14-2.36-8.43-4.79-13.02-6.24-1.27-.4-2.39-1.04-3.47-1.64-1.43-.81-2.81-1.61-4.19-2.41-2.23-1.29-4.53-2.63-6.82-3.86-1.2-.65-2.48-1.17-3.84-1.71-.66-.27-1.32-.54-1.98-.82l-3.78-1.64c-3.55-1.54-7.21-3.13-10.79-4.77-1.11-.51-2.3-1.95-2.3-3.27-.02-3.96-2.2-6.38-7.05-7.84-4.07-1.24-8.4-1.14-12.52.28-3.07 1.05-5.14 2.64-6.14 4.73-.75 1.55-1.21 3.52-1.43 6.04-.3 3.39-1.9 5.44-5.04 6.44-6.3 2-12.3 5.57-18.34 10.93-.49.43-1 .84-1.71 1.41-.37.29-.79.63-1.3 1.04l-2.03 1.64-.4-2.58c-.13-.83-.25-1.58-.37-2.29-.25-1.54-.47-2.88-.6-4.22-.13-1.32-.58-1.99-1.75-2.55-1.75-.85-3.45-1.27-5.13-1.27Zm66.8-11.79Z"/><path d="M48.07 98.26c-1.58 0-3.44-.58-5.58-2.07l-1.41-.98 1.15-1.27c.29-.32.58-.65.86-.97 1.84-2.1 3.92-4.48 7.55-4.48h.03c1.24 0 3.3.74 3.96 2.16.68 1.49-.17 3.49-.87 4.41-1.26 1.66-3.12 3.2-5.7 3.2Zm-2.41-3.66c2.95 1.48 4.5.26 5.72-1.35.29-.38.49-1.02.51-1.32-.24-.19-.83-.43-1.22-.43-2.05 0-3.29 1.17-5 3.11ZM55.13 106.34h-.03c-2.24-.01-3.8-1.12-4.4-3.12-.77-2.52 1.45-3.79 2.29-4.27.34-.19.67-.4 1.01-.6 1.61-.98 3.41-2.08 5.95-2.05h.38l.33.19c.2.11.42.21.64.3.75.33 1.68.74 2.18 1.64.76 1.43-.33 3.32-.81 3.94-2.09 2.63-4.62 3.96-7.52 3.96Zm4.43-7.04c-1.49.07-2.71.82-4 1.61-.37.22-.73.45-1.1.65-.23.13-.84.48-.92.67 0 0 0 .04.03.12.15.5.39.98 1.55.99 2.01 0 3.65-.89 5.19-2.82.15-.19.29-.48.36-.71-.17-.09-.41-.19-.58-.27-.18-.08-.36-.16-.53-.24ZM58.33 89.66c-.58 0-1.17-.08-1.74-.24-1.34-.38-2.19-1.01-2.6-1.91-.4-.87-.33-1.85.21-3.01 1.97-4.32 5.86-5.77 10.39-3.87l.87.36.05.94c.12 2.33-.93 4.63-2.83 6.14-1.3 1.04-2.82 1.58-4.34 1.58Zm-.93-3.13c1.12.32 2.36.03 3.4-.8.87-.7 1.45-1.66 1.64-2.68-2.52-.71-4.37.19-5.52 2.71-.12.26-.16.42-.18.5.08.06.28.16.66.27ZM96.82 117.87c-.71 0-1.4-.08-2.06-.23-3.76-.9-4.77-2.43-4.13-6.31.09-.57.25-1.1.45-1.77.1-.32.21-.68.33-1.11l.46-1.67 1.58.7c4.04 1.77 7.2.12 11.2-1.97l1.44-.75 2.12-1.08.06 2.38c.01.51.06.98.1 1.42.09 1 .18 1.94-.11 2.89-1.29 4.14-6.71 7.51-11.44 7.51Zm-2.98-7.07c-.12.39-.2.71-.25.99-.39 2.39-.31 2.41 1.86 2.93 3.55.85 8.93-1.99 9.94-5.25.08-.24.08-.59.05-1-3.55 1.84-7.23 3.57-11.61 2.32Z"/><path d="M96.34 109.66c-.4 0-.79-.04-1.14-.08l-.25-.02c-3.07-.31-4.12-1.45-4.16-4.53 0-.71.07-1.38.14-2.09.04-.36.08-.74.11-1.15l.12-1.48 1.48.1c.98.07 1.88.26 2.68.43 1.65.35 2.63.52 3.64 0 1.38-.72 2.82-1.33 4.21-1.91.57-.24 1.14-.47 1.7-.72l1.52-.66.51 1.57c1.03 3.18.42 5.47-1.81 6.82-2.18 1.3-4.52 2.31-6.78 3.28l-.38.16c-.52.22-1.06.29-1.58.29Zm-2.46-6.06c-.05.51-.09.97-.09 1.4.01 1.04.14 1.27.16 1.3.03.02.24.16 1.29.27l.26.03c.39.04 1.03.11 1.24.01l.37-.16c2.17-.93 4.42-1.9 6.42-3.1.36-.22.9-.55.84-1.69-.02 0-.04.01-.05.02-1.39.58-2.71 1.13-3.97 1.79-2.01 1.06-3.94.65-5.65.29-.27-.06-.55-.12-.83-.17Z"/><path d="M96.05 102.58c-.32 0-.65-.02-.97-.05-4.35-.46-4.73-3.41-4.57-5.93l.09-1.41h1.41c.76 0 1.52.03 2.28.06 1.67.07 3.25.13 4.72-.14 1.45-.26 2.92-.89 4.34-1.5.67-.29 1.33-.58 1.99-.82l3.08-1.17-1.14 3.09c-1.66 4.51-6.55 7.87-11.22 7.87Zm-.65-3.04c2.02.2 4.26-.59 6.05-1.96-.62.2-1.25.37-1.91.48-1.79.33-3.61.25-5.38.18-.21 0-.43-.02-.64-.03.16 1.07.73 1.2 1.87 1.32ZM96.63 88.91h-.39c-.45-.04-.77-.06-1.08-.09l-.52-.03c-1.21-.06-3.22-.15-4.05-2.42-.69-1.93-.22-3.83 1.4-5.66 2.3-2.59 5.44-4.03 9.61-4.41.98-.09 3.58-.33 4.85 2.19 1 1.98.79 5.53-.95 6.96-2.79 2.29-5.77 3.46-8.86 3.46Zm5.86-9.65c-.18 0-.39.01-.63.03-3.42.31-5.84 1.4-7.63 3.41-1.11 1.25-1.05 2.01-.82 2.65.11.29.14.38 1.37.44.22.01.44.02.65.04.3.03.58.05 1 .07 2.44.07 4.87-.88 7.16-2.77.41-.35.66-2.32.17-3.3-.17-.33-.38-.58-1.26-.58ZM70.56 41.68c-1.71 0-3.03-.83-3.83-2.45-.59-1.18-.81-2.95 1.54-4.62 1.51-1.09 2.8-1.89 4.04-2.51 4.97-2.47 9.85-4.89 14.87-7.22 1.46-.67 2.98-1.12 4.46-1.55.42-.12.84-.24 1.25-.37.82-.25 1.98-.43 2.84.15.95.63 2.26 1.49 2.96 2.79.89 1.54-1.23 3.67-2.02 4.13-3.59 2.09-6.63 3.79-9.82 5.28-3.25 1.52-6.62 2.92-9.87 4.27-1.09.45-2.18.9-3.26 1.36-.59.25-1.19.4-1.67.52-.18.04-.34.08-.49.13l-.21.05c-.27.04-.54.06-.79.06Zm23.71-15.95c-.11 0-.28.04-.48.1-.43.13-.86.26-1.29.38-1.43.42-2.79.81-4.04 1.39-4.99 2.31-9.84 4.72-14.79 7.18-1.1.55-2.25 1.27-3.63 2.26h-.01c-.62.44-.66.63-.67.64 0 .01 0 .08.07.2.29.58.59.86 1.43.77.15-.04.31-.08.47-.12.42-.11.86-.22 1.24-.38 1.09-.46 2.18-.91 3.28-1.36 3.22-1.34 6.56-2.72 9.75-4.21 3.08-1.44 6.06-3.1 9.58-5.16.14-.08.36-.33.54-.57-.4-.42-.96-.81-1.45-1.14Zm1.79 1.59s.01.02.02.03c0-.01-.01-.02-.02-.03Zm-1.98-1.71ZM68.93 83.33c-.95 0-1.94-.08-2.97-.24l-1.79-.27.6-1.71c.13-.37.22-.75.31-1.11.25-1.02.53-2.18 1.47-2.87 1.74-1.3 3.71-2.2 5.91-3.16 1.12-.47 2.42-.1 3.31.22 1.66.6 2.72 1.74 2.91 3.13.18 1.35-.52 2.68-1.9 3.64-2.28 1.58-4.87 2.37-7.85 2.37Zm-.84-3.03c2.75.16 4.99-.43 6.98-1.81.5-.34.65-.66.64-.78-.02-.15-.29-.47-.95-.7-.86-.31-1.14-.27-1.17-.27-1.96.86-3.76 1.68-5.26 2.8-.06.09-.16.43-.24.77Z"/><path d="M72.85 67.01c-1.43 0-2.62-.7-3.92-2.37-.06-.07-.11-.14-.16-.22-.03.06-.07.12-.1.18l-1.11 1.94-1.37-1.77c-1.74-2.24-1.6-4.51-1.48-6.34.03-.55.07-1.07.05-1.55v-.41c-.09-2.26-.17-4.6.04-6.92.15-1.72.48-3.42.8-5.08.14-.7.28-1.41.4-2.12l.25-1.44 1.45.22c5.2.78 9.68-1.23 14.42-3.35 2.79-1.25 5.67-2.53 8.79-3.3l.51-.12c.93-1.65 2.96-2.75 7.03-3.8l1.38-.36.43 1.36c.05.15.11.3.17.45.18.46.41 1.02.43 1.68.26 6.01.47 11.9.62 17.49.03.76-.25 1.41-.48 1.94-.07.16-.14.32-.19.47l-.35 1.07-1.12-.04h-1.42c-.46 2.59-2.18 3.63-6.58 5.49-1.16.5-2.32 1.1-3.54 1.74-.58.31-1.18.62-1.81.93l-1.6.81-.29-1c-.57 2.03-1.96 2.41-5.19 2.71l-.9.08-.03-.05-.58.28c-1.84.87-3.26 1.4-4.5 1.4Zm-3.47-15.75.79 2.93c.34 1.28.42 2.49.45 3.61.01.4.01.82.01 1.24 0 .77 0 1.49.09 2.17.09.66.3 1.25.56 1.58 1.04 1.34 1.31 1.68 3.91.52 0-.13 0-.26-.01-.39-.03-1.07-.06-2.18.06-3.3.02-.22-.03-.55-.08-.9-.17-1.11-.43-2.8 1.11-4.43l1.78-1.87.75 2.47c.46 1.52.47 2.99.49 4.28.01 1.14.02 2.17.32 3.04.69-.08 1.38-.18 1.55-.32.15-.23.2-1.54.22-2.1.06-1.51.08-3.02.11-4.54.02-1.2.04-2.4.08-3.59.02-.64.11-1.24.2-1.82.03-.22.07-.44.09-.67l.17-1.31h3.26l.18 1.3c.23 1.59.29 3.21.36 4.77.08 1.83.15 3.58.46 5.29.02-.01.05-.03.07-.04 1.28-.67 2.49-1.3 3.76-1.85 2.78-1.18 4.14-1.81 4.59-2.59.49-.83.35-2.57.07-5.35l-.05-.44c-.15-1.33-.37-3.33 1.49-4.96l1.94-1.71c-.1-2.78-.21-5.61-.33-8.47-4.46 1.23-4.41 1.91-4 6.75l.04.46c.18 2.18.31 4.43.38 6.88.03.71-.26 1.3-.48 1.74-.05.11-.11.22-.15.33l-.44 1.12-3.05-.45-.35-12.75c-2.22.71-4.38 1.67-6.48 2.61-4.53 2.03-9.21 4.11-14.64 3.73-.05.26-.1.53-.16.79-.32 1.65-.63 3.2-.76 4.76-.11 1.21-.13 2.46-.12 3.71l1.73-2.25ZM96.91 97.2c-.81 0-1.62-.08-2.38-.16-4.26-.48-5.02-2.69-4.88-6.35l.06-1.57 1.57.13c.8.07 1.57.15 2.33.23 1.67.18 3.25.35 4.79.32 1.46-.01 2.93-.21 4.64-.44.78-.11 1.59-.22 2.45-.32l3.41-.39-2.02 2.77c-2.61 3.56-5.31 5.33-8.76 5.72-.4.05-.8.06-1.19.06Zm-4.25-4.8c.14 1.42.74 1.49 2.2 1.66.97.11 1.99.2 2.9.1 1.46-.17 2.74-.67 3.95-1.6-1.11.14-2.2.24-3.29.25-1.71.01-3.38-.15-5.14-.34-.21-.02-.41-.04-.62-.07ZM98.83 125.74c-2.19 0-4.37-.71-6.53-2.11-3.29-2.16-1.88-5.77-1.42-6.96l.55-1.41 1.4.56c4.46 1.78 8.56 1.03 12.53-2.28l1.53-1.28.8 1.82c1.02 2.31 1.18 4.4.47 6.2-.74 1.88-2.4 3.4-4.94 4.5-1.46.64-2.93.96-4.4.96Zm-5.57-6.61c-.25 1.36.29 1.72.68 1.98 2.78 1.82 5.36 2.11 8.09.92 1.78-.77 2.91-1.73 3.35-2.84.23-.59.28-1.27.16-2.04-3.87 2.58-7.99 3.25-12.28 1.98ZM271.92 141.24c-.72 0-1.44-.06-2.19-.2-1.13-.21-2.49-.61-3.01-1.82-.51-1.19.09-2.36.67-3.25.72-1.1 1.02-1.66.88-2.52-.25-1.37.93-2.74 1.58-3.28 4.05-3.18 8.46-4.24 13.12-3.16 1.2.27 2.65.27 4.56 0 4.84-.67 8.71-1.66 11.91-4.27.77-.63 1.46-1.39 2.2-2.19.35-.38.7-.76 1.06-1.13.38-.39.76-.79 1.29-1.32l2.74-2.82.67 2.58c.83 3.18 1 5.88-.85 8.73-3.88 6.01-9.72 9.63-17.88 11.08-2.38.42-4.79 1.05-7.12 1.65l-2.56.66-1.04.26c-1.94.5-3.93 1-6.04 1Zm-2.24-3.28c.14.04.33.09.59.13 2.28.42 4.55-.15 6.94-.77l1.06-.27c.84-.21 1.68-.43 2.52-.65 2.39-.62 4.86-1.26 7.35-1.7 7.38-1.31 12.43-4.41 15.88-9.76.71-1.1 1.02-2.17.95-3.58l-.14.14c-.34.35-.67.71-1 1.07-.77.84-1.58 1.71-2.51 2.48-3.97 3.23-8.78 4.27-13.4 4.92-2.28.33-4.08.31-5.65-.04-3.79-.88-7.25-.04-10.57 2.58-.19.15-.39.44-.47.6.28 2.03-.66 3.45-1.35 4.49-.09.14-.16.25-.21.34Zm1.54-5.03v.02-.02Z"/><path d="M283.73 124.38c-.75 0-1.47-.04-2.18-.13l-1.31-.16v-20.58c-.01-.9-.03-1.83.07-2.78.2-1.95.92-3.39 2.16-4.28 1.29-.93 2.98-1.17 5.04-.71 3.15.69 5.9 2.12 8.57 3.5.72.37 1.44.75 2.17 1.11 2.07 1.01 2.84 2.83 2.11 5.01-.69 2.07-.76 4.31-.22 7.24.84 4.51-.8 7.36-5.34 9.26-4.06 1.69-7.77 2.54-11.06 2.54Zm-.5-3.01c3 .1 6.5-.67 10.4-2.3 3.22-1.35 4.12-2.85 3.54-5.94-.64-3.46-.54-6.15.32-8.74.26-.76.15-1-.58-1.35-.76-.37-1.5-.76-2.24-1.14-2.61-1.35-5.07-2.63-7.83-3.23-.82-.18-1.94-.29-2.64.21-.51.37-.83 1.09-.94 2.15-.08.77-.07 1.58-.05 2.43 0 .33.01.66.01 1v16.91ZM262.13 114.73c-1.23 0-2.36-.59-3.31-1.76l-.55-.68c-.97-1.2-1.98-2.43-2.9-3.74-.42-.6-.6-1.23-.79-1.91-.08-.29-.18-.62-.3-.98l-.23-.65.34-.6c.22-.37.41-.78.62-1.19.54-1.09 1.14-2.33 2.14-3.3 1.73-1.7 3.64-3.25 5.48-4.75.76-.62 1.51-1.23 2.26-1.86.53-.45 1.06-.91 1.6-1.37 1.03-.89 2.07-1.78 3.12-2.64 1.11-.9 1.62-1.92 1.7-3.39.1-1.83.91-3.21 2.22-3.79 1.26-.56 2.76-.26 4.1.81 1.56 1.24 2.92 3.02 3.73 4.9.88 2.04 2.53 5.85-1.25 9.06-1.33 1.14-1.58 3.21-1.74 5.59-.17 2.6-1.39 4.44-3.83 5.78-3.53 1.94-6.73 3.79-9.79 5.64-.9.54-1.78.81-2.61.81Zm-4.81-9.4c.05.17.1.34.14.49.13.45.24.83.36 1.01.85 1.21 1.78 2.35 2.77 3.56l.56.69c.6.74 1 .9 2.04.27 3.09-1.87 6.33-3.74 9.89-5.7 1.54-.85 2.18-1.79 2.29-3.36.16-2.37.38-5.61 2.78-7.67 1.79-1.52 1.58-2.96.44-5.59-.61-1.41-1.67-2.81-2.84-3.74-.48-.39-.86-.49-1.01-.42-.16.07-.4.45-.44 1.21-.12 2.3-1.04 4.12-2.8 5.55-1.03.84-2.04 1.71-3.06 2.58-.54.46-1.08.93-1.62 1.39-.76.64-1.53 1.27-2.3 1.89-1.79 1.45-3.63 2.96-5.27 4.56-.63.62-1.09 1.57-1.54 2.48-.13.26-.26.53-.39.78ZM252.21 128.57l-1.19-1.07c-2.87-2.58-3.73-5.53-4.23-8.33l-.27-1.49 1.49-.26c3.59-.61 6.24.46 9.11 2.27l1.42.89-1.04 1.31c-1.45 1.82-2.75 3.46-4.3 5.42l-.99 1.25Zm-2.12-8.32c.37 1.42.91 2.69 1.83 3.85.74-.93 1.44-1.82 2.15-2.71-1.34-.71-2.57-1.12-3.99-1.13ZM245.06 148.11c-.59 0-1.2-.06-1.83-.21-2.29-.51-3.47-2.21-3.09-4.44.05-.61.09-1.23.13-1.84.09-1.4.19-2.85.4-4.29.28-1.99 1.37-2.69 1.99-2.93.62-.23 1.88-.44 3.41.83 1.87 1.54 3.58 3.12 5.1 4.67.97 1 1.44 2.39 1.24 3.73-.18 1.22-.88 2.26-1.93 2.86-1.33.74-3.21 1.61-5.42 1.61Zm-1.29-10.82c-.04.1-.09.26-.12.48-.2 1.33-.29 2.66-.38 4.06-.04.65-.09 1.31-.14 1.96l-.02.15c-.11.59-.07.85.78 1.04 1.55.35 3.13.01 5.14-1.1.29-.17.39-.45.42-.66.06-.42-.1-.88-.42-1.21a63.294 63.294 0 0 0-4.87-4.46c-.17-.14-.3-.22-.39-.27ZM240.43 105.59h-.2c-2.77 0-5.35-1.23-7.81-3.76-1.62-1.67-1.98-4.01-.92-5.97s.18-.35.18-.35c.88-1.65 2.08-3.9 4.94-3.99 2.94-.09 5.34.71 6.97 2.34 1.62 1.61 2.43 4 2.34 6.9-.03 1.12-.61 2.25-1.62 3.18-1.11 1.03-2.58 1.64-3.87 1.64Zm-6.31-8.31c-.63 1.16.09 2.1.43 2.45 1.9 1.95 3.72 2.86 5.75 2.86.62.03 1.39-.32 1.96-.84.47-.44.65-.85.66-1.07.06-2.08-.43-3.66-1.46-4.69-1.3-1.3-3.31-1.52-4.75-1.47-1.02.03-1.51.76-2.4 2.41l-.19.36ZM226.82 152.93l-.5-.28c-.21-.11-.46-.21-.71-.32-.93-.39-2.1-.88-2.62-1.99-.65-1.42.02-3.25.69-4.53 1.02-1.94 2.29-4.19 3.88-6.21.73-.92 2.03-1.59 3.86-1.99 2.19-.45 3.07 1.37 3.5 2.24l.14.28c.45.88.95 1.72 1.49 2.62.51.85 1.05 1.74 1.52 2.66.45.87.98 2.17.44 3.44-.39.92-1.21 1.55-2.52 1.94-1.91.57-3.84.99-5.89 1.42-.88.19-1.79.38-2.72.59l-.56.13Zm-1.1-3.89c.2.16.73.38 1.05.52.16.07.31.13.46.2.77-.17 1.51-.33 2.25-.49 1.98-.42 3.86-.82 5.65-1.36.36-.11.53-.21.6-.26-.01-.11-.07-.38-.33-.88-.43-.83-.91-1.64-1.43-2.49-.54-.9-1.1-1.83-1.6-2.81l-.16-.32c-.09-.18-.21-.43-.31-.59-1.17.27-1.8.63-2 .88-1.45 1.83-2.62 3.94-3.58 5.75-.45.86-.62 1.57-.61 1.85ZM178.36 124.42c-.64 0-1.35-.18-2.07-.69-1.22-.86-1.92-2-1.97-3.21-.05-1.16.49-2.29 1.54-3.19 1.1-.94 2.28-1.76 3.43-2.55.83-.57 1.61-1.12 2.37-1.7 2.66-2.06 5.67-3.24 8.58-4.38 1.68-.66 3.27-1.28 4.81-2.06 2.9-1.46 4.99 1.08 5.89 2.16l1.03 1.25-1.33.93c-1.07.75-2.12 1.5-3.14 2.23-2.37 1.7-4.61 3.3-6.96 4.81-2.05 1.31-4.2 2.51-6.28 3.67-1.12.62-2.24 1.25-3.34 1.89-.51.29-1.44.84-2.56.84Zm18.41-15.22c-.15 0-.26.06-.36.11-1.66.84-3.39 1.52-5.07 2.18-2.84 1.11-5.52 2.16-7.84 3.96-.82.63-1.67 1.22-2.5 1.8-1.13.78-2.2 1.53-3.19 2.37-.33.28-.51.56-.5.78.01.25.28.6.71.9.24.18.39.29 1.39-.29 1.12-.65 2.25-1.28 3.38-1.92 2.04-1.14 4.14-2.32 6.12-3.58 2.29-1.46 4.49-3.05 6.83-4.72.57-.41 1.15-.82 1.74-1.24-.32-.25-.55-.33-.72-.33ZM176.19 139.31h-.15c-1.51-.05-2.97-.72-3.91-1.77-.75-.84-1.12-1.87-1.04-2.89.18-2.44 1.86-4.22 4-4.22h.03c1.42 0 2.8.59 3.81 1.61.89.91 1.36 2.05 1.33 3.22-.03 1.19-.48 2.26-1.26 3-.73.69-1.71 1.06-2.78 1.06Zm-1.09-5.89c-.53 0-.95.61-1.01 1.45-.02.28.17.54.29.67.4.45 1.09.75 1.78.77.34.02.59-.07.77-.24.26-.24.32-.62.32-.9 0-.35-.16-.72-.48-1.04-.43-.44-1.06-.71-1.67-.71ZM184.26 144.3c-2.72 0-4.33-2.36-4.94-3.25l-.43-.63.26-.72c.42-1.17 1.4-3.89 4.54-3.78 2.16.09 3.81 1.17 4.67 3.04.48 1.05.55 2.02.21 2.88-.34.87-1.05 1.54-2.11 1.99-.8.34-1.53.48-2.19.48Zm-2.01-4.32c1.29 1.62 2.15 1.45 3.02 1.08.41-.17.49-.31.49-.31s.04-.15-.15-.55c-.24-.53-.71-1.23-2.05-1.28-.54-.02-.88.09-1.31 1.07Z"/><path d="m182.34 132.17-.88-1.66c-.09-.17-.19-.33-.29-.5-.33-.54-.74-1.2-.86-2.01-.15-1.06.48-2.21 1.17-2.88.53-.5 1.13-.74 1.62-.93.17-.07.33-.13.49-.21 2.35-1.2 4.4-2.75 6.25-4.75 3.09-3.34 7.18-5.93 12.51-7.92 1.22-.46 2.76.21 3.46.84.94.84.9 2.82.18 3.73l-.41.53c-2.13 2.74-4.55 5.84-8.77 6.75-.66.14-1.36.5-1.84.93-3.11 2.82-6.79 4.66-9.99 6.16h-.02c-.23.12-.47.2-.71.27l-.12.09-1.78 1.54Zm.97-4.49v.01c.14-.04.27-.09.4-.15 3-1.41 6.44-3.13 9.25-5.67.88-.79 2.06-1.39 3.23-1.64 3.15-.68 5.04-3.1 7.03-5.67l.27-.35c-.07-.03-.14-.04-.2-.05-4.83 1.82-8.51 4.15-11.26 7.11-2.1 2.26-4.42 4.02-7.1 5.39-.24.12-.48.22-.73.32-.24.1-.57.23-.66.31-.09.09-.2.26-.24.37Zm20.1-13.55Zm.23-.09Z"/><path d="M190.77 135.51c-.76 0-1.48-.15-2.01-.34-.99-.36-1.71-1.11-1.96-2.07-.27-1.01 0-2.09.73-2.97.61-.73 1.37-1.26 2.1-1.72 1.23-.78 2.47-1.54 3.7-2.3 2.01-1.24 4.09-2.52 6.08-3.84 1.27-.84 2.52-1.78 3.74-2.69 1.16-.87 2.36-1.77 3.6-2.6 2.28-1.56 3.22-.82 5.29.78l1.59 1.23-1.33 1.2c-.46.42-.9.82-1.32 1.22-1.02.94-1.97 1.84-3.03 2.65-.57.44-1.16.79-1.73 1.12-1.29.76-2.32 1.37-2.78 2.77-.54 1.63-2.23 2.62-3.73 3.5-.2.12-.4.23-.59.35-2.15 1.3-4.34 2.44-6.51 3.38-.59.25-1.22.35-1.84.35Zm-1.08-3.2s.04.02.09.03c.52.19 1.27.22 1.65.06 2.04-.88 4.11-1.95 6.14-3.18.2-.12.41-.25.63-.37.83-.48 2.21-1.29 2.39-1.85.82-2.47 2.64-3.55 4.1-4.41.51-.3 1-.59 1.43-.92.94-.72 1.85-1.57 2.81-2.47l.01-.01c-.02-.01-.04-.03-.06-.04-.16.09-.37.24-.46.3-1.18.8-2.35 1.68-3.48 2.52-1.25.93-2.54 1.9-3.87 2.79-2.03 1.35-4.14 2.65-6.17 3.9-1.22.75-2.45 1.51-3.67 2.28-.53.33-1.06.7-1.41 1.12-.11.13-.13.23-.13.26ZM166.57 132.09c-.78 0-1.58-.48-2.18-.95-.59-.47-1.13-.97-1.81-1.61-.34-.32-.73-.68-1.18-1.09l-1.21-1.1 1.2-1.11c.35-.33.67-.66.99-.98.81-.83 1.65-1.69 2.74-2.24 1.31-.66 3.33-.23 4.45.54 2.58 1.78 1.21 4.72.76 5.69-.57 1.22-1.79 1.96-2.77 2.56l-.09.05c-.29.17-.59.24-.89.24Zm-1.98-4.79.05.04c.66.61 1.13 1.05 1.63 1.45l.21.15c.49-.31 1-.67 1.14-.97.75-1.61.48-1.8.26-1.95-.39-.27-1.18-.4-1.42-.31-.6.3-1.18.9-1.86 1.59ZM149.13 108.67h-.25c-2.45-.16-4.12-1.9-4.06-4.22.06-2.68 2.4-5.25 4.83-5.28 1.21-.02 2.39.49 3.27 1.4.88.91 1.35 2.11 1.29 3.3-.06 1.22-.71 2.46-1.78 3.42-.99.88-2.18 1.38-3.31 1.38Zm.59-6.5h-.02c-.76 0-1.85 1.23-1.88 2.35-.02.88.67 1.11 1.26 1.15.39.03.91-.22 1.36-.62.46-.41.77-.93.79-1.33.02-.37-.15-.76-.45-1.07-.3-.31-.68-.49-1.05-.49ZM150.63 55.16c-.64 0-1.26-.14-1.82-.54-1.13-.81-1.35-2.23-1.42-3.51-.01-.21-.01-.44 0-.8v-.79l.02-.24c.02-.14.05-.33.08-.54.08-.6.19-1.42.38-2.23.63-2.68 2.32-4.32 4.89-4.75.69-.12 1.38-.27 2.07-.43.89-.2 1.8-.4 2.75-.54 1.3-.18 2.13.23 2.61.61.71.57 1.13 1.43 1.23 2.57.37 4.23-1.94 8.05-5.89 9.72l-.48.21c-.76.33-1.55.67-2.41.92-.64.18-1.32.34-1.99.34Zm-.06-3.01c.15.01.49 0 1.22-.22.67-.19 1.33-.48 2.04-.79l.51-.22c2.77-1.18 4.33-3.74 4.08-6.7-.03-.32-.1-.46-.12-.5.02.02-.1 0-.3.03-.82.12-1.64.3-2.51.5-.74.17-1.48.33-2.23.46-1.37.23-2.11.97-2.46 2.46-.16.68-.25 1.39-.33 1.96-.03.18-.05.35-.07.49V50.92c.04.76.13 1.09.19 1.22ZM141.29 30.79c-3.1 0-5.74-1.11-7.86-3.32l-.1-.1c-.42-.44-.86-.9-1.29-1.15-3.92-2.32-3.53-6.25-3.28-8.85.05-.53.18-1.01.3-1.44.1-.37.2-.73.21-1 .2-6.09 3.57-10.12 10.04-11.96 3.67-1.05 9.16-2.02 14.33 1.6 2.1 1.47 3.34 3.72 3.3 6-.04 2.16-1.19 4.12-3.15 5.4-.97.63-1.97 1.24-3 1.76 1.32-.49 2.63-1.29 3.97-2.4l1.43-1.2.86 1.66c.23.43.5.85.76 1.25.65.99 1.32 2.02 1.11 3.2-.39 2.2-1.25 4.2-2.42 5.63-1.96 2.4-4.66 3.79-7.8 4.03-1.68.13-3.44.42-5 .67-.83.14-1.63.21-2.41.21Zm-9.04-15.35c-.06.47-.18.91-.29 1.3-.09.34-.18.66-.21.93-.28 2.89-.3 4.73 1.82 5.98.78.46 1.39 1.09 1.92 1.65l.1.1c1.98 2.06 4.39 2.77 7.61 2.23 1.62-.27 3.45-.57 5.26-.71 2.3-.17 4.28-1.19 5.7-2.93.83-1.01 1.47-2.53 1.78-4.18-.07-.23-.4-.73-.64-1.11-3.28 2.3-6.65 3.08-10.25 2.4-.5-.09-1-.18-1.5-.26-3.15-.54-6.41-1.09-9.17-3.52l-2.13-1.88Zm.05-.81 3.1.05c2.24.04 4.82.15 7.15 1.02 3.6 1.35 6.49-.23 9.62-2.25 1.13-.73 1.76-1.77 1.78-2.93.02-1.31-.71-2.58-2.02-3.49-3.19-2.23-6.82-2.59-11.79-1.18-4.99 1.42-7.56 4.29-7.84 8.77ZM146.7 165.26c-2.55 0-4.67-1.07-5.82-2.94-1.14-1.85-1.15-4.15-.03-6.32 1.46-2.84 3.66-5.14 6.36-6.65 3.76-2.12 7.66-4.12 11.42-6.05 1.19-.61 2.37-1.22 3.56-1.83 4.58-2.37 8.82-.58 11.61.98 1.86 1.05 2.47 2.4 2.65 3.35.18.94.12 2.41-1.2 4.05-1.07 1.34-2.53 2.58-4.1 3.48-4.49 2.58-9.04 5-12.9 7.02-2.75 1.44-5.49 2.71-8.52 4.11h-.01c-.77.35-1.56.52-2.13.65-.17.04-.32.07-.44.1l-.19.05h-.26Zm20.11-21.96c-1.13 0-2.19.28-3.24.82-1.19.62-2.38 1.23-3.57 1.84-3.74 1.92-7.61 3.91-11.33 6-2.19 1.22-3.97 3.09-5.16 5.41-.63 1.22-.66 2.45-.08 3.38.58.93 1.71 1.48 3.14 1.51.12-.03.24-.06.38-.09.47-.1 1.06-.23 1.54-.45 2.99-1.38 5.69-2.64 8.38-4.04 3.83-2.01 8.35-4.4 12.8-6.96 1.25-.72 2.41-1.7 3.26-2.76.33-.41.7-1.03.59-1.61-.11-.59-.7-1.03-1.17-1.3-2.11-1.18-3.89-1.76-5.52-1.76ZM169.71 181.75l-.4-.04c-2.32-.21-3.6-1.47-4.45-2.54-1.74-2.19-2.4-3.93-2.14-5.63.25-1.66 1.38-3.12 3.55-4.6 2.44-1.67 4.99-3.25 7.45-4.78l3.04-1.9c2.34-1.46 4.76-2.97 7.2-4.37.94-.53 1.91-.96 2.84-1.38.86-.38 1.67-.74 2.43-1.16 3.98-2.19 7.31-.43 9.46 1.09 2.13 1.5 2.55 3.1 2.53 4.18-.02 1.06-.5 2.62-2.63 3.99-1.81 1.17-3.67 2.32-5.46 3.42-1.12.69-2.24 1.38-3.36 2.08-1.46.91-2.91 1.83-4.36 2.75-3.16 1.99-6.42 4.06-9.68 6.02-1.26.76-2.6 1.34-3.89 1.9-.59.26-1.19.52-1.78.79l-.37.17Zm23.33-24.42c-.79 0-1.55.22-2.33.65-.88.49-1.79.89-2.67 1.28-.91.4-1.77.78-2.57 1.24-2.39 1.37-4.79 2.86-7.1 4.31l-3.05 1.9c-2.44 1.51-4.96 3.08-7.35 4.71-1.42.97-2.16 1.81-2.28 2.57-.12.79.38 1.88 1.53 3.32.65.82 1.22 1.22 1.99 1.37.48-.22.97-.43 1.46-.64 1.26-.54 2.44-1.06 3.53-1.72 3.23-1.95 6.48-4 9.62-5.98 1.46-.92 2.91-1.84 4.37-2.75 1.12-.7 2.25-1.4 3.38-2.1 1.78-1.1 3.63-2.24 5.41-3.39.79-.51 1.25-1.07 1.25-1.53 0-.49-.45-1.09-1.25-1.66-1.5-1.05-2.75-1.56-3.95-1.56ZM183.23 89.78l-.27-.09c-.64-.2-1.29-.37-1.95-.54-1.54-.4-3.12-.81-4.57-1.64-4.75-2.74-9.44-5.73-13.97-8.63l-1.62-1.03c-.88-.56-1.54-1.35-2.11-2.05l-.31-.37c-1.5-1.78-2.19-3.73-2-5.63.18-1.79 1.14-3.42 2.77-4.72 3.97-3.16 8.77-6.7 14.22-8.99 1.34-.56 2.58-1 3.79-1.35.46-.14.93-.3 1.4-.46 1.92-.67 4.1-1.43 6.58-.66.26.08.51.15.77.22.86.24 1.84.51 2.7 1.07l1.84 1.16c4.94 3.12 10.05 6.35 14.94 9.76 2.25 1.57 3.53 3.84 3.5 6.23-.03 2.49-1.43 4.84-3.86 6.45-3.89 2.58-7.77 5.17-11.65 7.76-.74.5-1.5.95-2.25 1.34-2.47 1.3-4.98 2.01-7.69 2.17l-.28.02Zm-.18-33.5c-1.1 0-2.21.39-3.45.82-.51.18-1.02.36-1.54.51a30.7 30.7 0 0 0-3.48 1.24c-5.11 2.14-9.7 5.54-13.51 8.57-1 .79-1.55 1.69-1.65 2.67-.11 1.08.34 2.26 1.3 3.4l.33.4c.48.58.92 1.12 1.41 1.43l1.62 1.04c4.5 2.88 9.16 5.86 13.85 8.56 1.09.63 2.42.97 3.83 1.34.61.16 1.23.32 1.83.5 2.17-.17 4.2-.77 6.21-1.82.66-.34 1.31-.73 1.96-1.16 3.89-2.6 7.77-5.19 11.66-7.77 1.58-1.05 2.5-2.5 2.52-3.98.02-1.4-.77-2.73-2.22-3.74-4.83-3.36-9.91-6.58-14.83-9.68l-1.85-1.17c-.49-.32-1.17-.51-1.89-.71-.29-.08-.57-.16-.85-.25-.42-.13-.84-.19-1.26-.19Z"/><path d="M183.33 81.91H182.76l-.23-.1c-.55-.21-1.11-.41-1.67-.6-1.32-.46-2.69-.94-3.98-1.64-2.49-1.35-4.89-2.71-6.92-4.5-1.43-1.27-2.07-2.6-1.91-3.95.16-1.38 1.14-2.55 2.9-3.5a46.28 46.28 0 0 1 7.57-3.25c1.37-.45 3.54-.53 5.05.32 3.12 1.77 5.7 3.55 7.87 5.45 1.63 1.42 2.38 2.79 2.31 4.21-.11 1.91-1.69 3.22-2.87 4.03-.36.25-.72.52-1.08.79-1.71 1.29-3.65 2.74-6.46 2.74Zm-2.6-14.87c-.44 0-.9.06-1.29.19-2.35.76-4.73 1.78-7.07 3.04-.94.5-1.31.96-1.34 1.2-.03.23.2.71.92 1.35 1.78 1.58 3.93 2.8 6.35 4.11 1.08.58 2.28 1 3.54 1.45.5.18 1.01.35 1.51.54 1.8-.01 3.12-1 4.63-2.14.39-.29.78-.59 1.18-.86 1.39-.96 1.57-1.53 1.58-1.73.01-.19-.09-.75-1.28-1.78-2.02-1.76-4.44-3.43-7.39-5.1-.31-.18-.82-.27-1.35-.27Z"/><path d="M183.33 82.03h-.32l-.29-.02-.23-.09c-.52-.2-1.05-.39-1.57-.57l-.1-.03c-1.33-.46-2.7-.95-4-1.65-2.5-1.35-4.91-2.71-6.94-4.52-1.46-1.3-2.12-2.66-1.95-4.05.17-1.42 1.16-2.63 2.96-3.59 2.51-1.34 5.06-2.44 7.59-3.25 1.4-.45 3.6-.54 5.15.33 3.13 1.78 5.71 3.56 7.89 5.46 1.66 1.45 2.43 2.85 2.35 4.31-.11 1.97-1.72 3.3-2.92 4.13-.35.25-.71.51-1.06.77-1.75 1.31-3.71 2.78-6.56 2.78Zm-.54-.26h.23c.11.01.21.01.31.01 2.77 0 4.69-1.44 6.39-2.71.37-.28.73-.55 1.09-.79 1.16-.8 2.71-2.08 2.81-3.94.08-1.37-.66-2.72-2.26-4.11-2.17-1.89-4.74-3.66-7.85-5.43-1.48-.84-3.6-.75-4.95-.31-2.51.81-5.05 1.9-7.55 3.24-1.72.92-2.68 2.07-2.83 3.4-.15 1.31.48 2.6 1.87 3.84 2.01 1.79 4.41 3.14 6.89 4.49 1.28.69 2.64 1.17 3.96 1.63l.1.03c.52.18 1.06.37 1.58.57l.21.08Zm.55-2.74h-.02c-.5-.2-1-.37-1.51-.55-1.27-.45-2.47-.87-3.56-1.45-2.43-1.31-4.58-2.53-6.37-4.12-.65-.57-1.01-1.12-.97-1.46.03-.28.42-.77 1.4-1.3 2.35-1.26 4.73-2.28 7.09-3.04.39-.12.86-.19 1.33-.19.58 0 1.09.1 1.41.28 2.95 1.67 5.37 3.35 7.41 5.11 1.18 1.03 1.34 1.62 1.32 1.88-.01.27-.25.87-1.63 1.83-.4.28-.81.59-1.17.86-1.54 1.15-2.86 2.15-4.71 2.16h-.02Zm-2.61-11.87c-.45 0-.89.06-1.26.18-2.34.76-4.72 1.78-7.05 3.03-.96.52-1.25.95-1.27 1.11-.02.15.15.59.88 1.24 1.77 1.58 3.91 2.79 6.33 4.09 1.07.58 2.26 1 3.53 1.44.5.17 1 .35 1.49.54 1.75-.02 3.04-.99 4.54-2.11.36-.27.78-.58 1.18-.86 1.38-.96 1.52-1.49 1.52-1.63 0-.13-.06-.66-1.24-1.68-2.02-1.76-4.43-3.42-7.37-5.09-.28-.16-.75-.25-1.29-.25Z"/></g></svg>