<?xml version="1.0" encoding="UTF-8"?>
<svg id="Layer_2" data-name="Layer 2" xmlns="http://www.w3.org/2000/svg" viewBox="0 0 327.52 204.62">
  <g id="Layer_2-2" data-name="Layer 2">
    <g>
      <path d="M217.85,69.39c-3.36-3.07-6.78-6.07-10.31-8.95-3.51-2.86-7.13-5.62-10.81-8.26-4.49-3.22-9.38-4.14-14.81-2.52-4.07,1.21-7.9,2.92-11.79,4.58-6.49,2.79-12.68,6.12-18.71,9.74-4.5,2.7-5.67,7.01-2.82,11.37,1.44,2.19,3.15,4.35,5.15,6.06.28.24.57.48.87.7,4.48,3.39,9.31,6.34,14.05,9.37,2.63,1.68,5.36,3.19,8.1,4.69,3,1.64,6.09,1.86,9.42.76,1.84-.61,3.58-1.49,5.26-2.43,1.04-.58,1.94-1.32,3.04-1.83,1.16-.55,2.38-.98,3.54-1.53,3.61-1.7,7.05-4.43,9.98-7.12,1.34-1.23,2.58-2.57,4-3.69,1.69-1.34,3.53-2.51,5.31-3.74,2.6-1.8,2.92-5.01.53-7.2ZM326.01,131.62c-.41-5.51-.81-11.02-1.19-16.54-.12-1.61-.83-2.87-2.08-3.89-6.56-5.36-13.78-9.76-21.11-13.93-4.01-2.28-8.49-3.77-12.81-5.48-1.32-.53-2.19-1.07-2.48-2.61-1.31-7.07-4.67-9.8-11.71-9.69-.33,0-.66-.01-.98.03-2.38.31-3.86-.83-5-2.83-.68-1.19-1.52-2.44-2.61-3.23-3.76-2.74-7.55-5.47-11.54-7.86-3.61-2.16-7.6-3.68-11.22-5.83-2.91-1.72-5.75-2.12-8.97-1.31-2.2.55-4.47.89-6.73,1.06-2.2.16-2.87-.58-3.02-2.84-.14-2.05-.13-4.11-.3-6.16-.21-2.63-1.46-4.81-3.61-6.23-3.61-2.39-7.31-4.65-11.07-6.78-4.7-2.66-9.36-5.44-14.57-7.08-1.13-.36-2.19-.96-3.22-1.54-3.68-2.08-7.29-4.27-11-6.27-1.89-1.02-3.95-1.73-5.93-2.59-4.85-2.12-9.73-4.2-14.54-6.4-.65-.3-1.42-1.25-1.42-1.91-.03-5.49-3.68-7.94-8.12-9.28-4.41-1.34-9.03-1.22-13.44.3-2.93,1-5.64,2.66-7,5.5-.96,1.99-1.38,4.33-1.57,6.56-.24,2.72-1.37,4.3-4,5.14-7.16,2.27-13.3,6.29-18.88,11.24-.72.63-1.48,1.21-2.96,2.41-.41-2.65-.78-4.53-.96-6.42-.17-1.79-.91-2.95-2.59-3.76-3.67-1.78-7.34-1.91-10.97-.23-2.55,1.18-4.95,2.7-7.4,4.08-.75.42-1.43.96-2.2,1.33-3.02,1.44-6.13,2.72-9.08,4.3-2.56,1.36-4.55,3.42-5.16,6.39-.74,3.59-1.36,7.21-1.93,10.84-.18,1.1-.61,1.74-1.61,2.2-2.57,1.17-5.14,2.33-7.62,3.66-7.64,4.1-15.27,8.21-22.83,12.44-4.34,2.43-8.58,5.06-12.83,7.66-1.66,1.01-3.21,2.19-4.84,3.26-1.78,1.19-3.53,2.46-5.41,3.47-4.3,2.3-6.64,6.48-5.84,11.28.17,1,1.07,2.24,1.98,2.7,3.97,2.02,7.57,4.56,11.24,7.05,6.53,4.42,13.38,8.35,20.15,12.41,1.34.8,2.97,1.12,4.34,1.89,5.46,3.04,10.27,7.17,16.09,9.62.68.28,1.27.81,1.89,1.24,1.57,1.11,3.12,2.26,4.72,3.33.81.54,1.73.92,2.55,1.44,6.92,4.41,13.78,8.93,20.78,13.21,5.81,3.56,11.79,6.83,17.68,10.25,1.87,1.09,3.68,2.29,5.55,3.36,2.05,1.17,4.34,2,6.2,3.41,6.14,4.66,12.73,8.56,19.54,12.11,1.54.8,3.18,1.43,4.63,2.36,4.18,2.69,8.3,5.46,12.42,8.24,4.3,2.91,8.54,5.92,12.87,8.8,2.76,1.85,5.14,4.32,8.49,5.24.3.08.62.26.84.48,1.97,1.98,4.54,1.88,7.01,1.9,3.89.02,7.8-.04,11.68-.26,4.87-.28,9.94-.03,14.52-1.36,4.97-1.44,10.1-3.32,13.82-7.45.64-.71,1.46-1.37,2.32-1.76,3.24-1.46,6.47-2.98,9.82-4.14,5.96-2.07,11.49-4.88,16.93-8.06,8.4-4.92,17.08-9.37,25.61-14.07,3.5-1.92,7.18-3.64,10.33-6.03,8.07-6.11,16.85-11.01,25.57-16.06,4.74-2.76,9.01-6.33,13.51-9.52.99-.7,1.36-1.6,1.27-2.79ZM43.35,94.96c2.17-2.38,3.88-4.96,7.3-4.96.92-.01,2.3.58,2.63,1.29.33.72-.13,2.12-.7,2.87-2.39,3.15-5.37,3.48-9.23.8ZM61.49,101.45c-1.61,2.02-3.64,3.4-6.38,3.39-1.47-.01-2.54-.62-2.97-2.05-.42-1.37.73-2.04,1.59-2.53,1.86-1.05,3.63-2.51,6.19-2.46.78.44,1.88.7,2.24,1.36.27.51-.19,1.68-.67,2.29ZM57,87.98c-1.71-.49-2.14-1.34-1.44-2.84,1.63-3.57,4.68-4.7,8.45-3.12.2,3.79-3.52,6.95-7.01,5.96ZM106.84,109.92c-1.27,4.09-7.43,7.29-11.72,6.26-2.98-.71-3.51-1.5-3-4.61.11-.73.38-1.43.74-2.72,5.24,2.3,9.28-.39,13.93-2.75.04,1.61.36,2.82.05,3.82ZM104.32,104.65c-2.21,1.32-4.61,2.33-6.98,3.35-.64.27-1.5.14-2.24.07-2.29-.23-2.77-.75-2.8-3.06,0-.94.15-1.88.25-3.1,2.71.19,4.85,1.44,7.12.25,1.87-.98,3.86-1.73,5.81-2.58.76,2.35.55,4.04-1.16,5.07ZM95.25,101.04c-2.57-.27-3.41-1.41-3.23-4.35,2.43,0,4.92.33,7.27-.1,2.31-.41,4.48-1.6,6.59-2.4-1.51,4.1-6.35,7.29-10.63,6.85ZM101.73,77.8c1.28-.12,2.65-.06,3.37,1.37.73,1.45.53,4.23-.56,5.13-2.38,1.96-5.1,3.17-8.12,3.11-.48-.03-.8-.05-1.12-.08-1.27-.11-2.73.1-3.3-1.47-.57-1.6.04-2.94,1.11-4.15,2.3-2.59,5.32-3.61,8.62-3.91ZM69.16,35.84c1.22-.88,2.5-1.72,3.84-2.39,4.92-2.45,9.85-4.89,14.83-7.2,1.75-.81,3.66-1.28,5.52-1.85.49-.15,1.21-.28,1.57-.04.94.62,1.97,1.32,2.47,2.25.2.35-.74,1.71-1.45,2.12-3.17,1.85-6.38,3.67-9.7,5.22-4.29,2.01-8.7,3.76-13.08,5.6-.69.29-1.45.43-2,.59-1.54.21-2.48-.38-3.07-1.57-.64-1.28.18-2.1,1.07-2.73ZM75.93,79.73c-2.75,1.91-5.9,2.47-9.74,1.88.45-1.28.51-2.73,1.25-3.27,1.69-1.26,3.68-2.15,5.63-3,.59-.25,1.51.01,2.2.26,2.26.81,2.64,2.76.66,4.13ZM85.29,61.44c-1.18-3.98-.72-8.1-1.28-12.06-.21,0-.43-.01-.64-.01-.1.78-.25,1.56-.28,2.34-.08,2.71-.09,5.43-.19,8.14-.13,3.44-.34,3.61-4.16,3.96-1.58-2.45-.44-5.44-1.36-8.49-1.51,1.59-.48,3.13-.63,4.46-.16,1.48-.03,3-.03,4.48-3.73,1.77-4.84,1.72-6.6-.54-.49-.62-.76-1.51-.87-2.31-.16-1.17-.08-2.38-.12-3.57-.03-1.08-.1-2.15-.4-3.26-.99,1.29-.53,2.85-.62,4.3-.09,1.55.29,3.18-.74,4.98-1.85-2.38-1.04-4.79-1.12-7.03-.08-2.38-.18-4.78.03-7.15.2-2.35.77-4.68,1.19-7.07,8.82,1.32,15.5-4.65,23.79-6.67.13,4.66.25,9.04.37,13.41.21.03.42.06.62.09.19-.49.55-.99.53-1.48-.07-2.27-.19-4.54-.38-6.8-.49-5.88-.81-7.28,6.42-9.15.18.57.51,1.14.53,1.73.25,5.82.46,11.65.62,17.48.02.63-.38,1.27-.59,1.9-.27,0-.54,0-.81,0-.45-2.66-.89-5.33-1.33-7.99-1.43,1.26-1.07,2.75-.94,4.13.65,6.62.48,6.91-5.57,9.47-1.78.76-3.48,1.73-5.44,2.72ZM91.15,90.75c2.58.22,4.93.59,7.27.56,2.24-.02,4.47-.45,7.24-.77-2.12,2.9-4.43,4.74-7.72,5.11-1.06.12-2.16.02-3.24-.1-2.93-.33-3.68-1.31-3.55-4.8ZM102.64,123.41c-3.42,1.49-6.55.89-9.51-1.04-1.69-1.11-1.76-2.8-.84-5.16,5.32,2.12,9.93.92,14.05-2.52,1.79,4.06.46,6.92-3.7,8.72ZM303.78,120.47c.57-.58,1.14-1.17,2.18-2.24.83,3.19.78,5.32-.66,7.54-4,6.2-9.84,9.17-16.88,10.42-3.29.58-6.53,1.52-9.78,2.33-2.84.7-5.65,1.6-8.63,1.05-2.09-.39-2.48-1.06-1.36-2.78.74-1.12,1.35-2.12,1.1-3.59-.1-.55.52-1.43,1.05-1.86,3.49-2.74,7.35-3.9,11.83-2.86,1.63.37,3.43.26,5.11.02,4.52-.63,8.98-1.6,12.65-4.59,1.24-1.02,2.27-2.29,3.39-3.44ZM281.79,100.88c.32-3.16,2.27-4.37,5.39-3.68,3.78.83,7.01,2.82,10.4,4.49,1.38.67,1.86,1.67,1.35,3.18-.88,2.63-.78,5.25-.27,7.99.73,3.91-.71,6.04-4.44,7.6-3.73,1.55-8.22,2.83-12.48,2.3,0-6.25-.01-12.28,0-18.3,0-1.2-.07-2.4.05-3.58ZM258.21,101c2.38-2.34,5.08-4.37,7.65-6.53,1.57-1.33,3.11-2.7,4.7-3.99,1.44-1.17,2.15-2.59,2.25-4.47.14-2.51,1.94-3.45,3.88-1.89,1.39,1.1,2.59,2.69,3.29,4.32,1.06,2.45,1.91,4.99-.84,7.33-1.87,1.6-2.1,4.26-2.26,6.63-.15,2.23-1.21,3.55-3.06,4.57-3.32,1.83-6.6,3.71-9.84,5.67-1.59.96-2.85.79-3.98-.61-1.16-1.43-2.34-2.84-3.4-4.34-.41-.59-.51-1.39-.9-2.51.76-1.31,1.34-3.04,2.51-4.18ZM256.33,120.97c-1.45,1.82-2.75,3.46-4.3,5.42-2.3-2.07-3.21-4.43-3.76-7.48,3.21-.55,5.47.43,8.06,2.06ZM250.11,140.97c1.26,1.29,1.13,3.4-.35,4.23-1.88,1.04-3.94,1.76-6.19,1.25-1.48-.33-2.22-1.23-1.93-2.78.17-2.04.23-4.09.53-6.11.27-1.89,1.5-2.37,2.95-1.16,1.74,1.44,3.42,2.96,4.99,4.57ZM232.81,96.57c.87-1.6,1.71-3.48,3.86-3.55,4.89-.16,7.92,2.44,7.76,7.7-.05,1.72-2.35,3.46-4.12,3.37-2.81,0-4.99-1.43-6.82-3.31-1.06-1.09-1.5-2.69-.68-4.21ZM225.01,146.5c1.1-2.08,2.28-4.14,3.73-5.98.62-.79,1.93-1.22,3-1.45,1.16-.24,1.52.82,1.98,1.73.92,1.81,2.09,3.49,3.02,5.29.9,1.75.62,2.72-1.18,3.26-2.67.8-5.44,1.29-8.51,1.99-.85-.47-2.31-.81-2.7-1.64-.37-.81.16-2.24.66-3.2ZM177.17,122.51c-1.6-1.13-1.85-2.73-.32-4.04,1.8-1.54,3.87-2.76,5.74-4.21,3.94-3.05,8.82-4.08,13.15-6.29,1.49-.75,2.67.11,4.05,1.78-3.53,2.48-6.71,4.87-10.05,7.01-3.1,1.98-6.38,3.68-9.56,5.53-1,.58-1.94.98-3.01.22ZM178.75,135.21c-.04,1.6-1.11,2.65-2.65,2.6-1.97-.07-3.63-1.51-3.51-3.05.12-1.66,1.16-2.84,2.5-2.84,1.96-.01,3.71,1.56,3.66,3.29ZM183.63,137.41c1.5.06,2.71.73,3.36,2.16.61,1.34.24,2.29-1.12,2.87-2.05.87-3.64.2-5.31-2.24.53-1.48,1.2-2.86,3.07-2.79ZM184.35,128.91c-.29.13-.59.21-.89.32-.22.19-.44.39-.66.58-.35-.66-.89-1.31-.99-2.01-.07-.5.33-1.2.73-1.59.45-.42,1.15-.58,1.73-.87,2.53-1.29,4.71-2.95,6.68-5.07,3.27-3.53,7.45-5.86,11.94-7.54.53-.2,1.48.14,1.94.55.29.26.29,1.32,0,1.69-2.25,2.87-4.39,5.89-8.32,6.74-.9.19-1.85.67-2.53,1.28-2.85,2.58-6.2,4.31-9.63,5.92ZM188.68,131.09c.48-.57,1.13-1.02,1.76-1.42,3.27-2.07,6.6-4.02,9.81-6.16,2.51-1.67,4.84-3.61,7.34-5.3,1.42-.97,1.5-.85,3.71.86-1.55,1.4-2.83,2.69-4.26,3.79-1.8,1.38-4.13,1.93-5.02,4.61-.42,1.28-2.3,2.21-3.67,3.04-2.03,1.23-4.15,2.34-6.33,3.28-.78.33-1.92.27-2.74-.03-1.19-.43-1.41-1.7-.6-2.67ZM168.98,128.61c-.39.84-1.42,1.44-2.28,1.96-.25.15-.97-.29-1.36-.6-.83-.66-1.58-1.42-2.91-2.63,1.22-1.13,2.14-2.36,3.38-2.98.74-.37,2.17-.09,2.92.43,1.45,1,.81,2.62.25,3.82ZM152.73,103.8c-.08,1.7-2.06,3.48-3.74,3.37-1.65-.11-2.7-1.17-2.66-2.68.04-1.88,1.72-3.8,3.35-3.82,1.65-.03,3.13,1.49,3.05,3.13ZM159.92,44.1c.31,3.57-1.59,6.77-4.98,8.21-.89.38-1.78.8-2.72,1.07-2.44.7-3.19.14-3.32-2.35-.02-.33,0-.65,0-1.51.09-.55.2-1.63.44-2.68.46-1.96,1.58-3.25,3.67-3.6,1.6-.27,3.17-.73,4.78-.96,1.28-.18,2.01.44,2.13,1.82ZM134.52,26.44c-.52-.54-1.06-1.12-1.7-1.5-2.98-1.76-2.83-4.57-2.55-7.41.08-.86.49-1.69.52-2.54.19-5.9,3.72-9.08,8.95-10.57,4.46-1.27,8.93-1.5,13.06,1.39,3.39,2.37,3.63,6.68.19,8.91-3.29,2.13-6.7,3.99-10.96,2.4-2.06-.77-4.36-.89-6.65-.93,2.86,2.52,6.5,2.79,9.96,3.44,3.71.7,7.08-.37,10.39-3.14.77,1.48,1.88,2.6,1.72,3.5-.31,1.74-1.01,3.6-2.11,4.95-1.66,2.03-3.98,3.27-6.75,3.48-1.71.13-3.43.41-5.13.69-3.42.57-6.46-.09-8.94-2.67ZM149.12,163.09c-.87.39-1.86.53-2.36.67-4.3.03-6.39-3.54-4.57-7.08,1.32-2.57,3.29-4.65,5.76-6.03,4.9-2.76,9.94-5.27,14.94-7.86,3.59-1.86,6.97-.84,10.19.96,2.17,1.22,2.58,3.21,1.02,5.15-.99,1.24-2.3,2.33-3.68,3.12-4.22,2.43-8.53,4.73-12.85,6.99-2.77,1.45-5.61,2.77-8.45,4.08ZM189,168.85c-4.67,2.92-9.3,5.91-14.02,8.75-1.74,1.05-3.68,1.75-5.53,2.62-1.57-.14-2.54-.89-3.4-1.98-2.74-3.45-2.54-5.59,1.08-8.06,3.03-2.07,6.18-3.98,9.3-5.93,2.75-1.71,5.49-3.44,8.3-5.05,1.69-.96,3.56-1.59,5.26-2.53,2.91-1.6,5.44-.71,7.87,1,2.53,1.78,2.53,4.02-.05,5.68-2.91,1.88-5.88,3.66-8.81,5.5Z"/>
      <path d="M204.6,67.05c-5.46-3.8-11.11-7.33-16.73-10.89-.9-.58-2.05-.79-3.1-1.12-2.55-.79-4.79.44-7.12,1.13-1.25.36-2.45.8-3.63,1.29-5.08,2.13-9.56,5.35-13.87,8.78-2.86,2.27-2.89,5.44-.56,8.21.64.76,1.26,1.61,2.08,2.13,5.14,3.28,10.26,6.59,15.53,9.63,1.86,1.07,4.14,1.39,6.23,2.06,2.63-.16,4.94-.88,7.09-2.01.72-.37,1.42-.79,2.1-1.25,3.88-2.59,7.76-5.18,11.65-7.76,4.05-2.69,4.33-7.41.33-10.2Z"/>
      <path d="M183.07,80.41c-1.83-.71-3.77-1.24-5.48-2.16-2.32-1.25-4.68-2.57-6.63-4.3-2.15-1.92-1.84-3.64.7-5,2.34-1.25,4.8-2.33,7.32-3.14,1.16-.38,2.83-.37,3.84.2,2.68,1.52,5.31,3.25,7.63,5.27,2.57,2.24,2.34,3.96-.43,5.87-2.06,1.43-3.94,3.37-6.95,3.26Z"/>
    </g>
  </g>
</svg>