<?xml version="1.0" encoding="UTF-8"?>
<svg id="Layer_2" xmlns="http://www.w3.org/2000/svg" viewBox="0 0 128.59 127.19">
  <defs>
    <style>
      .cls-1 {
        font-family: Futura-Medium, Futura;
        font-size: 11px;
        font-weight: 500;
      }
    </style>
  </defs>
  <g id="Layer_2-2" data-name="Layer_2">
    <g>
      <g>
        <path d="M14.8,38.28l-1.33-.38c.45-1.58,1.09-3.19,1.88-4.8l1.25.61c-.76,1.53-1.36,3.07-1.79,4.57ZM19.08,29.44l-1.15-.78c.91-1.35,1.94-2.72,3.07-4.08l1.07.89c-1.1,1.33-2.1,2.66-2.98,3.97ZM25.39,21.77l-.99-.97.21-.22c1.07-1.09,2.23-2.21,3.45-3.3l.93,1.03c-1.2,1.08-2.34,2.17-3.39,3.24l-.21.22ZM32.81,15.09l-.86-1.09c1.39-1.09,2.77-2.11,4.11-3.01l.78,1.15c-1.31.88-2.66,1.87-4.02,2.95ZM40.95,9.03l-1.05-.91c1.22-1.41,2.45-2.58,3.74-3.57l.84,1.1c-1.22.93-2.38,2.04-3.54,3.38ZM62.51,4.68c-1.35-.89-2.82-1.55-4.37-1.96l.36-1.34c1.69.45,3.3,1.17,4.78,2.15l-.76,1.16ZM48.68,3.26l-.51-1.29c1.63-.64,3.35-1.01,5.11-1.11l.08,1.39c-1.61.09-3.19.43-4.69,1.02Z"/>
        <path d="M11.69,47.56l-.85-1.1c.55-.43,1.14-.85,1.75-1.24-.04-.71-.04-1.44,0-2.17l1.39.07c-.04.75-.03,1.5.02,2.23l.05.59-.36.22c-.7.44-1.37.91-1.99,1.39Z"/>
        <path d="M49.92,127.19c-.9,0-1.81-.08-2.7-.24l.17-1.38h.07c1.57.29,3.2.3,4.75.04l.23,1.37c-.83.14-1.68.21-2.52.21ZM42.15,125.49c-1.47-.57-3-1.29-4.68-2.19l.65-1.22c1.63.87,3.11,1.56,4.53,2.12l-.5,1.29ZM57.45,125.26l-.66-1.22c.28-.15.54-.3.75-.43,1.35-.61,2.62-1.19,3.87-1.77l.59,1.26c-1.26.59-2.53,1.17-3.82,1.75-.16.1-.43.26-.74.42ZM66.6,120.87l-.62-1.24c1.53-.76,3.03-1.52,4.52-2.29l.64,1.23c-1.5.78-3.01,1.55-4.55,2.31ZM33.04,120.72c-1.27-.79-2.67-1.7-4.29-2.78l.77-1.15c1.6,1.07,2.99,1.97,4.25,2.75l-.73,1.18ZM75.65,116.19l-.65-1.22c1.5-.8,2.99-1.61,4.47-2.42l.66,1.22c-1.48.81-2.97,1.62-4.48,2.42ZM24.54,115.09l-1.39-.96c-.92-.63-1.86-1.29-2.8-1.93l.78-1.15c.94.64,1.89,1.3,2.81,1.93l1.39.96-.79,1.14ZM84.75,111.24l-.83-1.13.08-.04c1.54-.85,2.98-1.63,4.39-2.4l.66,1.22c-1.41.77-2.84,1.55-4.3,2.36ZM16.14,109.39c-1.64-1.06-2.86-1.76-3.71-2.17-.2-.08-.41-.19-.64-.29l.61-1.25c.21.1.41.19.6.28.93.44,2.2,1.17,3.89,2.26l-.75,1.17ZM93.52,106.47l-.65-1.23c.69-.37,1.38-.73,2.06-1.09.84-.44,1.66-.86,2.46-1.27l.63,1.24c-.79.4-1.61.82-2.44,1.26-.68.36-1.37.72-2.06,1.09ZM7.42,103.99c-1.3-1.18-2.43-2.54-3.36-4.05l1.18-.73c.86,1.4,1.91,2.66,3.11,3.75l-.93,1.03ZM102.56,101.88l-.59-1.25c1.41-.67,2.77-1.29,4.05-1.84l.61-.26.55,1.27-.61.26c-1.26.54-2.61,1.15-4,1.82ZM111.84,97.68l-.62-1.24c1.63-.81,3.05-1.62,4.34-2.48l.77,1.16c-1.34.88-2.81,1.72-4.49,2.56ZM1.91,95.15c-.33-1.06-.59-2.2-.78-3.37-.09-.58-.17-1.16-.23-1.74l1.38-.15c.06.56.13,1.11.22,1.67.18,1.11.43,2.18.74,3.18l-1.33.41ZM120.41,91.9l-.96-1.01c1.21-1.15,2.29-2.41,3.21-3.74l1.14.79c-.97,1.41-2.11,2.75-3.4,3.96ZM2.05,84.89H.66v-.16c0-1.44.03-2.94.07-4.52v-.42s1.4.03,1.4.03v.43c-.05,1.57-.08,3.05-.08,4.49v.16ZM126.28,83.34l-1.29-.53c.6-1.47,1.09-3.06,1.43-4.73l1.36.28c-.37,1.75-.87,3.43-1.51,4.98ZM2.2,74.72H.81c0-1.83.06-3.55.15-5.12l1.39.08c-.09,1.55-.13,3.25-.14,5.05ZM128.48,73.24l-1.38-.1c.07-.97.1-1.97.1-2.97,0-.68-.02-1.35-.05-2.03l1.39-.06c.03.7.05,1.4.05,2.1,0,1.03-.04,2.06-.11,3.07ZM2.81,64.68l-1.38-.19c.26-1.85.6-3.51,1.03-5.07l1.34.37c-.42,1.5-.74,3.1-.99,4.89ZM126.64,63.16c-.27-1.67-.64-3.31-1.09-4.88l1.33-.39c.47,1.62.85,3.32,1.13,5.04l-1.37.22ZM5.55,55.15l-1.25-.61c.78-1.6,1.72-3.08,2.8-4.42l1.08.87c-1.01,1.25-1.9,2.65-2.63,4.16ZM123.83,53.6c-.69-1.54-1.49-3.01-2.38-4.36l1.16-.76c.93,1.41,1.77,2.95,2.49,4.56l-1.27.57Z"/>
      </g>
      <g>
        <text class="cls-1" transform="translate(64.06 7.13) rotate(44.77)"><tspan x="0" y="0">P</tspan></text>
        <text class="cls-1" transform="translate(68.13 11.28) rotate(43.65)"><tspan x="0" y="0">o</tspan></text>
        <text class="cls-1" transform="translate(74.46 17.55) rotate(12.79)"><tspan x="0" y="0">w</tspan></text>
        <text class="cls-1" transform="translate(82.12 19.35) rotate(25.77)"><tspan x="0" y="0">e</tspan></text>
        <text class="cls-1" transform="translate(87.27 21.89) rotate(31.51)"><tspan x="0" y="0">r</tspan></text>
        <text class="cls-1" transform="translate(90.58 23.93) rotate(34.45)"><tspan x="0" y="0"> </tspan></text>
        <text class="cls-1" transform="translate(93.21 25.7) rotate(37.11)"><tspan x="0" y="0">S</tspan></text>
        <text class="cls-1" transform="translate(98.16 29.46) rotate(39.11)"><tspan x="0" y="0">u</tspan></text>
        <text class="cls-1" transform="translate(102.68 33.14) rotate(40.07)"><tspan x="0" y="0">p</tspan></text>
        <text class="cls-1" transform="translate(107.6 37.32) rotate(39.57)"><tspan x="0" y="0">p</tspan></text>
        <text class="cls-1" transform="translate(112.68 41.45) rotate(38.82)"><tspan x="0" y="0">l</tspan></text>
        <text class="cls-1" transform="translate(114.77 42.87) rotate(44.18)"><tspan x="0" y="0">y</tspan></text>
      </g>
    </g>
  </g>
</svg>