<?xml version="1.0" encoding="UTF-8"?>
<svg id="Layer_2" xmlns="http://www.w3.org/2000/svg" viewBox="0 0 94.03 78.74">
  <defs>
    <style>
      .cls-1 {
        font-family: Futura-Medium, Futura;
        font-size: 11px;
        font-weight: 500;
      }
    </style>
  </defs>
  <g id="Layer_2-2" data-name="Layer_2">
    <g>
      <path d="M40.06,78.74c-1.65-.01-3.34-.24-5.13-.48l-.81-.11.2-1.49.82.11c1.74.24,3.38.46,4.94.47v1.5ZM28.28,77.46l-.69-.08c-1.51-.19-3.08-.21-4.6-.23h-.49s.02-1.51.02-1.51h.49c1.56.03,3.18.05,4.76.25l.7.08-.19,1.49ZM46.09,77.31l-.74-1.3c1.09-.62,2.09-1.5,3.06-2.66.3-.38.61-.79.92-1.19l1.19.91c-.31.41-.62.81-.94,1.22-1.1,1.33-2.23,2.31-3.49,3.03ZM16.54,76.65c-.72-.1-1.45-.2-2.17-.28l-.99-.1c-.89-.09-1.79-.17-2.69-.3l.21-1.48c.87.12,1.75.21,2.62.29l1,.1c.74.08,1.49.18,2.23.29l-.21,1.48ZM4.89,74.06c-1.71-.96-3.15-2.66-4.04-4.79l1.38-.58c.76,1.82,1.96,3.26,3.39,4.06l-.73,1.31ZM54.03,68.32l-1.22-.88c1-1.38,1.99-2.78,2.98-4.17l.44-.62,1.22.87-.44.62c-.99,1.39-1.98,2.79-2.98,4.18ZM1.48,63.32l-1.48-.21c.05-.36.12-.71.21-1.05.46-1.79,1.32-3.28,2.18-4.62l1.26.81c-.8,1.23-1.59,2.59-1.99,4.18-.08.29-.14.58-.18.88ZM60.87,58.75l-1.21-.88c1.14-1.56,2.15-2.92,3.11-4.16l.41-.56,1.2.9-.42.56c-.96,1.25-1.97,2.6-3.1,4.14ZM6.94,53.4l-1.23-.86c1.12-1.61,2.26-3.21,3.42-4.81l1.21.88c-1.15,1.59-2.29,3.18-3.4,4.78ZM67.9,49.32l-1.21-.89c1.16-1.57,2.31-3.15,3.46-4.75l1.22.88c-1.15,1.61-2.31,3.19-3.47,4.76ZM74.73,39.71l-1.23-.85c1.14-1.66,2.29-3.27,3.42-4.81l1.21.89c-1.12,1.53-2.26,3.13-3.39,4.78ZM81.65,30.26l-1.18-.93c1.22-1.56,2.48-3.1,3.72-4.59l1.15.97c-1.24,1.47-2.48,3-3.69,4.54ZM89.07,21.06l-1.25-.84c1.21-1.81,1.96-3.46,2.28-5.06l1.47.29c-.36,1.8-1.18,3.63-2.5,5.6ZM34.91,15.59l-1.22-.87c1.24-1.73,2.39-3.29,3.52-4.75l1.19.91c-1.11,1.45-2.25,2.99-3.49,4.71ZM89.44,9.89l-.04-.08c-.87-1.82-2-3.17-3.46-4.13l.82-1.25c1.69,1.11,3,2.66,4,4.75l-.64.4-.68.31ZM41.95,6.22l-1.17-.94c.91-1.13,2.19-2.57,4.05-3.62.21-.12.44-.24.67-.35l.65,1.35c-.19.09-.38.19-.57.3-1.64.93-2.8,2.23-3.62,3.26ZM80.73,3.94c-.87-.11-1.81-.18-2.9-.21-1-.1-1.97-.19-2.93-.28l.13-1.49c.97.09,1.94.18,2.9.28,1.08.03,2.08.1,3,.22l-.19,1.49ZM69.06,3.02c-.6-.03-1.21-.07-1.81-.09-1.4-.16-2.74-.31-4.08-.45l.16-1.49c1.35.14,2.7.29,4.05.45.55.02,1.16.05,1.77.09l-.08,1.5ZM57.32,1.92l-1.46-.12c-1.56-.23-2.96-.32-4.32-.28l-.04-1.5c1.44-.04,2.93.06,4.53.29l1.42.12-.13,1.49Z"/>
      <text class="cls-1" transform="translate(16.6 43.28) rotate(-52.94)"><tspan x="0" y="0">R</tspan></text>
      <text class="cls-1" transform="translate(20.44 38.14) rotate(-51.27)"><tspan x="0" y="0">A</tspan></text>
      <text class="cls-1" transform="translate(25.81 31.84) rotate(-53.83)"><tspan x="0" y="0">M</tspan></text>
    </g>
  </g>
</svg>