<svg id="Layer_2" data-name="Layer 2" xmlns="http://www.w3.org/2000/svg" viewBox="0 0 160.36 131.39"><defs><style>.cls-1{stroke-width:0}</style></defs><g id="Layer_2-2" data-name="Layer 2"><path class="cls-1" d="M16.69 124.36c-1.09 1.58-2.88.98-4.43.98-2.56 0-5.12-.23-7.67-.41-.95-.07-1.92-.14-2.82-.41-.54-.16-1.18-.63-1.37-1.12-.3-.79-.69-1.62-.03-2.58 1.96-2.84 3.78-5.78 5.71-8.64 1.46-2.17 2.99-4.3 4.53-6.43.41-.57.88-1.12 1.43-1.55 1.3-1.01 1.33-2.71 2.23-3.91 2.08-2.77 4.22-5.49 6.29-8.27 1.3-1.75 2.48-3.6 3.78-5.35 1.45-1.94 3-3.81 4.47-5.74 1.01-1.33 1.96-2.7 2.95-4.04.57-.77 1.19-1.5 1.78-2.26 2.59-3.33 5.05-6.79 7.82-9.97 1.97-2.26 3.65-4.75 5.91-6.8 1.77-1.61 3.1-3.74 4.48-5.75 3.95-5.77 7.8-11.62 11.74-17.4 1.77-2.59 3.7-5.06 5.5-7.63 1.21-1.73 2.24-3.58 3.48-5.28 1.85-2.54 3.81-4.99 5.72-7.49 1.02-1.33 2.38-2.4 3.06-3.99.02-.06.08-.1.12-.15 2.3-2.64 4.21-5.58 6.25-8.42 1.49-2.08 3.52-1.8 5.55-1.66 1.15.08 2.27.43 3.41.66.63.13 1.27.37 1.89.34 2.53-.12 5 .34 7.48.69 2.46.34 3.33 1.98 2.12 4.22-.39.72-.75 1.46-1.09 2.2-.11.23-.23.52-.17.74.12.45.27.97.59 1.25.14.12.9-.18 1.09-.48 1.12-1.71 2.26-3.42 3.18-5.25.89-1.77 2.13-2.71 4.02-2.52.33.03.74.27.92.54.56.81 1.04 1.68 1.66 2.71 0-.12.05.04 0 .13-2.15 3.1-3.92 6.44-6.71 9.11-1.89 1.81-3.42 3.98-5.09 6.01-2.07 2.52-4.07 5.12-6.2 7.59-2.48 2.87-4.85 5.8-6.97 8.95-2.47 3.67-5.12 7.22-7.64 10.86-1.14 1.63-2.12 3.37-3.25 5.02-1.12 1.64-2.33 3.21-3.48 4.82-1.41 1.97-2.79 3.95-4.22 5.91-.37.5-.86.92-1.31 1.36-.12.12-.38.2-.4.32-.32 2.23-2.19 3.38-3.45 4.95-.27.34-.43.77-.68 1.12-2.49 3.5-4.86 7.1-7.54 10.45-2.8 3.5-5.36 7.18-8.23 10.63-.08.1-.18.19-.24.31-1.57 3.19-4.03 5.78-5.98 8.72-1.84 2.77-3.97 5.35-5.91 8.06-1.05 1.46-1.98 3-2.96 4.5-.21.32-.38.71-.67.94-2.14 1.67-3.11 4.21-4.74 6.27-1.14 1.44-2.16 3-3.03 4.62-.76 1.43-1.98 1.96-3.34 1.81-2.02-.23-4.04-.69-5.98-1.31-1.23-.4-2.32-1.27-3.56-1.99Zm36.49-44.09c-.43.45-.92.86-1.27 1.36-3.06 4.36-6.09 8.75-9.15 13.11-1.24 1.77-2.47 3.56-3.82 5.25-1.81 2.25-3.76 4.39-5.62 6.6-.7.84-1.28 1.77-1.94 2.64-1.78 2.34-3.5 4.73-5.38 6.99-.94 1.13-2.26 1.45-3.82 1.25-3.37-.43-6.78-.63-10.16-.97-1.07-.11-2.12-.38-3.18-.54-.81-.12-1.64-.28-2.44-.24-.27.02-.71.61-.71.95 0 .32.4.79.73.92.64.26 1.36.36 2.06.47 3.17.51 6.32 1.21 9.51 1.43 2.3.16 4.6-.01 6.82.81.99.37 1.76.01 2.33-.84.25-.37.56-.71.77-1.11 1.15-2.23 2.49-4.31 4.08-6.28 2.09-2.6 3.92-5.41 5.93-8.07 1.62-2.15 3.38-4.2 5.04-6.33 1.1-1.41 2.15-2.87 3.17-4.34 1.86-2.69 3.68-5.42 5.51-8.13.97-1.43 1.89-2.89 1.56-4.93ZM86 12.31c-3.05.65-4.48 3.09-2.81 5.31 1.28 1.7 9.38 3.49 9.59 3.64 2.53.78 6.86-3.63 3.77-5.34-2.49-1.52-7.23-3.27-10.55-3.6Zm15.57-.25c1.38.04 4.61-2.14 2.47-4.98-2.4-2.49-8.52-3.28-12.15-3.29-2.31 0-4.11 3.67-2.84 4.78 2.95 1.97 8.76 3.52 12.53 3.49ZM76.25 25.32c.16 1.25 7.13 4.59 10.98 4.52 1.82.32 3.1.4 4.12-2.86.15-3.43-8.47-6.62-11.93-6.32-1.71.15-3.19 2.47-3.17 4.66ZM58.78 128.06c-1.09 1.58-2.88.98-4.43.98-2.56 0-5.12-.23-7.67-.41-.95-.07-1.92-.14-2.82-.41-.54-.16-1.18-.63-1.37-1.12-.3-.79-.69-1.62-.03-2.58 1.96-2.84 3.78-5.78 5.71-8.64 1.46-2.17 2.99-4.3 4.53-6.43.41-.57.88-1.12 1.43-1.55 1.3-1.01 1.33-2.71 2.23-3.91 2.08-2.77 4.22-5.49 6.29-8.27 1.3-1.75 2.48-3.6 3.78-5.35 1.45-1.94 3-3.81 4.47-5.74 1.01-1.33 1.96-2.7 2.95-4.04.57-.77 1.19-1.5 1.78-2.26 2.59-3.33 5.05-6.79 7.82-9.97 1.97-2.26 3.65-4.75 5.91-6.8 1.77-1.61 3.1-3.74 4.48-5.75 3.95-5.77 7.8-11.62 11.74-17.4 1.77-2.59 3.7-5.06 5.5-7.63 1.21-1.73 2.24-3.58 3.48-5.28 1.85-2.54 3.81-4.99 5.72-7.49 1.02-1.33 2.38-2.4 3.06-3.99.02-.06.08-.1.12-.15 2.3-2.64 4.21-5.58 6.25-8.42 1.49-2.08 3.52-1.8 5.55-1.66 1.15.08 2.27.43 3.41.66.63.13 1.27.37 1.89.34 2.53-.12 5 .34 7.48.69 2.46.34 3.33 1.98 2.12 4.22-.39.72-.75 1.46-1.09 2.2-.11.23-.23.52-.17.74.12.45.27.97.59 1.25.14.12.9-.18 1.09-.48 1.12-1.71 2.26-3.42 3.18-5.25.89-1.77 2.13-2.71 4.02-2.52.33.03.74.27.92.54.56.81 1.04 1.68 1.66 2.71 0-.12.05.04 0 .13-2.15 3.1-3.92 6.44-6.71 9.11-1.89 1.81-3.42 3.98-5.09 6.01-2.07 2.52-4.07 5.12-6.2 7.59-2.48 2.87-4.85 5.8-6.97 8.95-2.47 3.67-5.12 7.22-7.64 10.86-1.14 1.63-2.12 3.37-3.25 5.02-1.12 1.64-2.33 3.21-3.48 4.82-1.41 1.97-2.79 3.95-4.22 5.91-.37.5-.86.92-1.31 1.36-.12.12-.38.2-.4.32-.32 2.23-2.19 3.38-3.45 4.95-.27.34-.43.77-.68 1.12-2.49 3.5-4.86 7.1-7.54 10.45-2.8 3.5-5.36 7.18-8.23 10.63-.08.1-.18.19-.24.31-1.57 3.19-4.03 5.78-5.98 8.72-1.84 2.77-3.97 5.35-5.91 8.06-1.05 1.46-1.98 3-2.96 4.5-.21.32-.38.71-.67.94-2.14 1.67-3.11 4.21-4.74 6.27-1.14 1.44-2.16 3-3.03 4.62-.76 1.43-1.98 1.96-3.34 1.81-2.02-.23-4.04-.69-5.98-1.31-1.23-.4-2.32-1.27-3.56-1.99Zm36.49-44.09c-.43.45-.92.86-1.27 1.36-3.06 4.36-6.09 8.75-9.15 13.11-1.24 1.77-2.47 3.56-3.82 5.25-1.81 2.25-3.76 4.39-5.62 6.6-.7.84-1.28 1.77-1.94 2.64-1.78 2.34-3.5 4.73-5.38 6.99-.94 1.13-2.26 1.45-3.82 1.25-3.37-.43-6.78-.63-10.16-.97-1.07-.11-2.12-.38-3.18-.54-.81-.12-1.64-.28-2.44-.24-.27.02-.71.61-.71.95 0 .32.4.79.73.92.64.26 1.36.36 2.06.47 3.17.51 6.32 1.21 9.51 1.43 2.3.16 4.6-.01 6.82.81.99.37 1.76.01 2.33-.84.25-.37.56-.71.77-1.11 1.15-2.23 2.49-4.31 4.08-6.28 2.09-2.6 3.92-5.41 5.93-8.07 1.62-2.15 3.38-4.2 5.04-6.33 1.1-1.41 2.15-2.87 3.17-4.34 1.86-2.69 3.68-5.42 5.51-8.13.97-1.43 1.89-2.89 1.56-4.93Zm32.81-67.96c-3.05.65-4.48 3.09-2.81 5.31 1.28 1.7 9.38 3.49 9.59 3.64 2.53.78 6.86-3.63 3.77-5.34-2.49-1.52-7.23-3.27-10.55-3.6Zm15.57-.26c1.38.04 4.61-2.14 2.47-4.98-2.4-2.49-8.52-3.28-12.15-3.29-2.31 0-4.11 3.67-2.84 4.78 2.95 1.97 8.76 3.52 12.53 3.49Zm-25.32 13.27c.16 1.25 7.13 4.59 10.98 4.52 1.82.32 3.1.4 4.12-2.86.15-3.43-8.47-6.62-11.93-6.32-1.71.15-3.19 2.47-3.17 4.66Z"/></g></svg>